<ttFont>
    <TTGlyph name=".notdef" xMin="195" yMin="0" xMax="1034" yMax="1462">
      <contour>
        <pt x="1034" y="1462" on="1"/>
        <pt x="1034" y="0" on="1"/>
        <pt x="195" y="0" on="1"/>
        <pt x="195" y="1462" on="1"/>
      </contour>
      <contour>
        <pt x="930" y="104" on="1"/>
        <pt x="930" y="1358" on="1"/>
        <pt x="299" y="1358" on="1"/>
        <pt x="299" y="104" on="1"/>
      </contour>
    </TTGlyph>
    <TTGlyph name="A" xMin="-121" yMin="0" xMax="1249" yMax="1462">
      <contour>
        <pt x="410" y="274" on="1"/>
        <pt x="285" y="0" on="1"/>
        <pt x="-121" y="0" on="1"/>
        <pt x="623" y="1462" on="1"/>
        <pt x="1126" y="1462" on="1"/>
        <pt x="1249" y="0" on="1"/>
        <pt x="868" y="0" on="1"/>
        <pt x="858" y="274" on="1"/>
      </contour>
      <contour>
        <pt x="846" y="586" on="1"/>
        <pt x="829" y="1010" on="1"/>
        <pt x="827" y="1096" on="1"/>
        <pt x="827" y="1178" on="0"/>
        <pt x="831" y="1227" on="1"/>
        <pt x="806" y="1136" on="0"/>
        <pt x="770" y="1061" on="1"/>
        <pt x="553" y="586" on="1"/>
      </contour>
    </TTGlyph>
    <TTGlyph name="AE" xMin="-125" yMin="0" xMax="1997" yMax="1462">
      <contour>
        <pt x="819" y="0" on="1"/>
        <pt x="877" y="274" on="1"/>
        <pt x="459" y="274" on="1"/>
        <pt x="289" y="0" on="1"/>
        <pt x="-125" y="0" on="1"/>
        <pt x="784" y="1462" on="1"/>
        <pt x="1997" y="1462" on="1"/>
        <pt x="1931" y="1145" on="1"/>
        <pt x="1454" y="1145" on="1"/>
        <pt x="1407" y="915" on="1"/>
        <pt x="1851" y="915" on="1"/>
        <pt x="1780" y="598" on="1"/>
        <pt x="1335" y="598" on="1"/>
        <pt x="1278" y="322" on="1"/>
        <pt x="1755" y="322" on="1"/>
        <pt x="1688" y="0" on="1"/>
      </contour>
      <contour>
        <pt x="1061" y="1145" on="1"/>
        <pt x="993" y="1145" on="1"/>
        <pt x="662" y="602" on="1"/>
        <pt x="948" y="602" on="1"/>
      </contour>
    </TTGlyph>
    <TTGlyph name="Aacute" xMin="-121" yMin="0" xMax="1430" yMax="1907">
      <contour>
        <pt x="709" y="1579" on="1"/>
        <pt x="709" y="1602" on="1"/>
        <pt x="831" y="1703" on="0"/>
        <pt x="991" y="1907" on="1"/>
        <pt x="1430" y="1907" on="1"/>
        <pt x="1430" y="1892" on="1"/>
        <pt x="1386" y="1839" on="0"/>
        <pt x="1094" y="1633" on="0"/>
        <pt x="993" y="1579" on="1"/>
      </contour>
      <contour>
        <pt x="285" y="0" on="1"/>
        <pt x="-121" y="0" on="1"/>
        <pt x="623" y="1462" on="1"/>
        <pt x="1126" y="1462" on="1"/>
        <pt x="1249" y="0" on="1"/>
        <pt x="868" y="0" on="1"/>
        <pt x="858" y="274" on="1"/>
        <pt x="410" y="274" on="1"/>
      </contour>
      <contour>
        <pt x="829" y="1010" on="1"/>
        <pt x="827" y="1096" on="1"/>
        <pt x="827" y="1178" on="0"/>
        <pt x="831" y="1227" on="1"/>
        <pt x="806" y="1136" on="0"/>
        <pt x="770" y="1061" on="1"/>
        <pt x="553" y="586" on="1"/>
        <pt x="846" y="586" on="1"/>
      </contour>
    </TTGlyph>
    <TTGlyph name="Acircumflex" xMin="-121" yMin="0" xMax="1335" yMax="1907">
      <contour>
        <pt x="1335" y="1579" on="1"/>
        <pt x="1069" y="1579" on="1"/>
        <pt x="1022" y="1620" on="0"/>
        <pt x="913" y="1753" on="1"/>
        <pt x="774" y="1644" on="0"/>
        <pt x="673" y="1579" on="1"/>
        <pt x="399" y="1579" on="1"/>
        <pt x="399" y="1602" on="1"/>
        <pt x="466" y="1663" on="0"/>
        <pt x="665" y="1860" on="0"/>
        <pt x="708" y="1907" on="1"/>
        <pt x="1155" y="1907" on="1"/>
        <pt x="1180" y="1848" on="0"/>
        <pt x="1287" y="1665" on="0"/>
        <pt x="1335" y="1602" on="1"/>
      </contour>
      <contour>
        <pt x="285" y="0" on="1"/>
        <pt x="-121" y="0" on="1"/>
        <pt x="623" y="1462" on="1"/>
        <pt x="1126" y="1462" on="1"/>
        <pt x="1249" y="0" on="1"/>
        <pt x="868" y="0" on="1"/>
        <pt x="858" y="274" on="1"/>
        <pt x="410" y="274" on="1"/>
      </contour>
      <contour>
        <pt x="829" y="1010" on="1"/>
        <pt x="827" y="1096" on="1"/>
        <pt x="827" y="1178" on="0"/>
        <pt x="831" y="1227" on="1"/>
        <pt x="806" y="1136" on="0"/>
        <pt x="770" y="1061" on="1"/>
        <pt x="553" y="586" on="1"/>
        <pt x="846" y="586" on="1"/>
      </contour>
    </TTGlyph>
    <TTGlyph name="Adieresis" xMin="-121" yMin="0" xMax="1358" yMax="1909">
      <contour>
        <pt x="502" y="1722" on="1"/>
        <pt x="502" y="1909" on="0"/>
        <pt x="703" y="1909" on="1"/>
        <pt x="873" y="1909" on="0"/>
        <pt x="873" y="1784" on="1"/>
        <pt x="873" y="1595" on="0"/>
        <pt x="672" y="1595" on="1"/>
        <pt x="584" y="1595" on="0"/>
        <pt x="502" y="1657" on="0"/>
      </contour>
      <contour>
        <pt x="989" y="1722" on="1"/>
        <pt x="989" y="1909" on="0"/>
        <pt x="1190" y="1909" on="1"/>
        <pt x="1358" y="1909" on="0"/>
        <pt x="1358" y="1784" on="1"/>
        <pt x="1358" y="1595" on="0"/>
        <pt x="1159" y="1595" on="1"/>
        <pt x="1071" y="1595" on="0"/>
        <pt x="989" y="1657" on="0"/>
      </contour>
      <contour>
        <pt x="285" y="0" on="1"/>
        <pt x="-121" y="0" on="1"/>
        <pt x="623" y="1462" on="1"/>
        <pt x="1126" y="1462" on="1"/>
        <pt x="1249" y="0" on="1"/>
        <pt x="868" y="0" on="1"/>
        <pt x="858" y="274" on="1"/>
        <pt x="410" y="274" on="1"/>
      </contour>
      <contour>
        <pt x="829" y="1010" on="1"/>
        <pt x="827" y="1096" on="1"/>
        <pt x="827" y="1178" on="0"/>
        <pt x="831" y="1227" on="1"/>
        <pt x="806" y="1136" on="0"/>
        <pt x="770" y="1061" on="1"/>
        <pt x="553" y="586" on="1"/>
        <pt x="846" y="586" on="1"/>
      </contour>
    </TTGlyph>
    <TTGlyph name="Agrave" xMin="-121" yMin="0" xMax="1249" yMax="1907">
      <contour>
        <pt x="1041" y="1579" on="1"/>
        <pt x="805" y="1579" on="1"/>
        <pt x="727" y="1650" on="0"/>
        <pt x="582" y="1823" on="0"/>
        <pt x="551" y="1886" on="1"/>
        <pt x="551" y="1907" on="1"/>
        <pt x="947" y="1907" on="1"/>
        <pt x="975" y="1753" on="0"/>
        <pt x="1041" y="1604" on="1"/>
      </contour>
      <contour>
        <pt x="285" y="0" on="1"/>
        <pt x="-121" y="0" on="1"/>
        <pt x="623" y="1462" on="1"/>
        <pt x="1126" y="1462" on="1"/>
        <pt x="1249" y="0" on="1"/>
        <pt x="868" y="0" on="1"/>
        <pt x="858" y="274" on="1"/>
        <pt x="410" y="274" on="1"/>
      </contour>
      <contour>
        <pt x="829" y="1010" on="1"/>
        <pt x="827" y="1096" on="1"/>
        <pt x="827" y="1178" on="0"/>
        <pt x="831" y="1227" on="1"/>
        <pt x="806" y="1136" on="0"/>
        <pt x="770" y="1061" on="1"/>
        <pt x="553" y="586" on="1"/>
        <pt x="846" y="586" on="1"/>
      </contour>
    </TTGlyph>
    <TTGlyph name="Aring" xMin="-121" yMin="0" xMax="1249" yMax="1804">
      <contour>
        <pt x="608" y="1550" on="1"/>
        <pt x="608" y="1664" on="0"/>
        <pt x="754" y="1804" on="0"/>
        <pt x="994" y="1804" on="0"/>
        <pt x="1145" y="1662" on="0"/>
        <pt x="1145" y="1552" on="1"/>
        <pt x="1145" y="1496" on="0"/>
        <pt x="1127" y="1451" on="1"/>
        <pt x="1249" y="0" on="1"/>
        <pt x="868" y="0" on="1"/>
        <pt x="858" y="274" on="1"/>
        <pt x="410" y="274" on="1"/>
        <pt x="285" y="0" on="1"/>
        <pt x="-121" y="0" on="1"/>
        <pt x="622" y="1460" on="1"/>
        <pt x="608" y="1502" on="0"/>
      </contour>
      <contour>
        <pt x="965" y="1587" on="0"/>
        <pt x="913" y="1636" on="0"/>
        <pt x="840" y="1636" on="0"/>
        <pt x="788" y="1587" on="0"/>
        <pt x="788" y="1513" on="0"/>
        <pt x="836" y="1466" on="0"/>
        <pt x="915" y="1466" on="0"/>
        <pt x="965" y="1515" on="0"/>
      </contour>
      <contour>
        <pt x="846" y="586" on="1"/>
        <pt x="829" y="1010" on="1"/>
        <pt x="827" y="1096" on="1"/>
        <pt x="827" y="1178" on="0"/>
        <pt x="831" y="1227" on="1"/>
        <pt x="806" y="1136" on="0"/>
        <pt x="770" y="1061" on="1"/>
        <pt x="553" y="586" on="1"/>
      </contour>
    </TTGlyph>
    <TTGlyph name="Atilde" xMin="-121" yMin="0" xMax="1364" yMax="1919">
      <contour>
        <pt x="1036" y="1577" on="1"/>
        <pt x="970" y="1577" on="0"/>
        <pt x="871" y="1630" on="1"/>
        <pt x="798" y="1675" on="0"/>
        <pt x="744" y="1675" on="1"/>
        <pt x="712" y="1675" on="0"/>
        <pt x="653" y="1619" on="0"/>
        <pt x="647" y="1575" on="1"/>
        <pt x="459" y="1575" on="1"/>
        <pt x="491" y="1748" on="0"/>
        <pt x="645" y="1917" on="0"/>
        <pt x="772" y="1917" on="1"/>
        <pt x="807" y="1917" on="0"/>
        <pt x="857" y="1904" on="0"/>
        <pt x="926" y="1868" on="1"/>
        <pt x="1013" y="1819" on="0"/>
        <pt x="1059" y="1819" on="1"/>
        <pt x="1137" y="1819" on="0"/>
        <pt x="1174" y="1919" on="1"/>
        <pt x="1364" y="1919" on="1"/>
        <pt x="1330" y="1746" on="0"/>
        <pt x="1172" y="1577" on="0"/>
        <pt x="1043" y="1577" on="1"/>
        <pt x="1040" y="1577" on="0"/>
      </contour>
      <contour>
        <pt x="285" y="0" on="1"/>
        <pt x="-121" y="0" on="1"/>
        <pt x="623" y="1462" on="1"/>
        <pt x="1126" y="1462" on="1"/>
        <pt x="1249" y="0" on="1"/>
        <pt x="868" y="0" on="1"/>
        <pt x="858" y="274" on="1"/>
        <pt x="410" y="274" on="1"/>
      </contour>
      <contour>
        <pt x="829" y="1010" on="1"/>
        <pt x="827" y="1096" on="1"/>
        <pt x="827" y="1178" on="0"/>
        <pt x="831" y="1227" on="1"/>
        <pt x="806" y="1136" on="0"/>
        <pt x="770" y="1061" on="1"/>
        <pt x="553" y="586" on="1"/>
        <pt x="846" y="586" on="1"/>
      </contour>
    </TTGlyph>
    <TTGlyph name="B" xMin="33" yMin="0" xMax="1270" yMax="1462">
      <contour>
        <pt x="829" y="1462" on="1"/>
        <pt x="1045" y="1462" on="0"/>
        <pt x="1270" y="1298" on="0"/>
        <pt x="1270" y="1143" on="1"/>
        <pt x="1270" y="854" on="0"/>
        <pt x="973" y="766" on="1"/>
        <pt x="973" y="758" on="1"/>
        <pt x="1062" y="728" on="0"/>
        <pt x="1165" y="582" on="0"/>
        <pt x="1165" y="479" on="1"/>
        <pt x="1165" y="250" on="0"/>
        <pt x="860" y="0" on="0"/>
        <pt x="580" y="0" on="1"/>
        <pt x="33" y="0" on="1"/>
        <pt x="342" y="1462" on="1"/>
      </contour>
      <contour>
        <pt x="686" y="901" on="1"/>
        <pt x="775" y="901" on="0"/>
        <pt x="864" y="978" on="0"/>
        <pt x="864" y="1061" on="1"/>
        <pt x="864" y="1163" on="0"/>
        <pt x="737" y="1163" on="1"/>
        <pt x="674" y="1163" on="1"/>
        <pt x="614" y="901" on="1"/>
      </contour>
      <contour>
        <pt x="571" y="305" on="1"/>
        <pt x="657" y="305" on="0"/>
        <pt x="772" y="402" on="0"/>
        <pt x="772" y="546" on="0"/>
        <pt x="704" y="612" on="0"/>
        <pt x="623" y="612" on="1"/>
        <pt x="555" y="612" on="1"/>
        <pt x="489" y="305" on="1"/>
      </contour>
    </TTGlyph>
    <TTGlyph name="C" xMin="104" yMin="-20" xMax="1362" yMax="1485">
      <contour>
        <pt x="881" y="1159" on="1"/>
        <pt x="773" y="1159" on="0"/>
        <pt x="599" y="1003" on="0"/>
        <pt x="500" y="731" on="0"/>
        <pt x="500" y="569" on="1"/>
        <pt x="500" y="303" on="0"/>
        <pt x="717" y="303" on="1"/>
        <pt x="797" y="303" on="0"/>
        <pt x="971" y="344" on="0"/>
        <pt x="1085" y="393" on="1"/>
        <pt x="1085" y="70" on="1"/>
        <pt x="882" y="-20" on="0"/>
        <pt x="645" y="-20" on="1"/>
        <pt x="385" y="-20" on="0"/>
        <pt x="244" y="128" on="1"/>
        <pt x="104" y="277" on="0"/>
        <pt x="104" y="814" on="0"/>
        <pt x="306" y="1257" on="0"/>
        <pt x="654" y="1485" on="0"/>
        <pt x="881" y="1485" on="1"/>
        <pt x="1145" y="1485" on="0"/>
        <pt x="1362" y="1354" on="1"/>
        <pt x="1214" y="1049" on="1"/>
        <pt x="1117" y="1106" on="0"/>
        <pt x="962" y="1159" on="0"/>
      </contour>
    </TTGlyph>
    <TTGlyph name="Ccedilla" xMin="104" yMin="-492" xMax="1362" yMax="1485">
      <contour>
        <pt x="881" y="1159" on="1"/>
        <pt x="773" y="1159" on="0"/>
        <pt x="599" y="1003" on="0"/>
        <pt x="500" y="731" on="0"/>
        <pt x="500" y="569" on="1"/>
        <pt x="500" y="303" on="0"/>
        <pt x="717" y="303" on="1"/>
        <pt x="797" y="303" on="0"/>
        <pt x="971" y="344" on="0"/>
        <pt x="1085" y="393" on="1"/>
        <pt x="1085" y="70" on="1"/>
        <pt x="884" y="-20" on="0"/>
        <pt x="647" y="-20" on="1"/>
        <pt x="635" y="-41" on="1"/>
        <pt x="813" y="-78" on="0"/>
        <pt x="813" y="-236" on="1"/>
        <pt x="813" y="-357" on="0"/>
        <pt x="647" y="-492" on="0"/>
        <pt x="497" y="-492" on="1"/>
        <pt x="383" y="-492" on="0"/>
        <pt x="305" y="-463" on="1"/>
        <pt x="305" y="-258" on="1"/>
        <pt x="336" y="-267" on="0"/>
        <pt x="432" y="-285" on="0"/>
        <pt x="456" y="-285" on="1"/>
        <pt x="524" y="-285" on="0"/>
        <pt x="524" y="-236" on="1"/>
        <pt x="524" y="-163" on="0"/>
        <pt x="379" y="-135" on="1"/>
        <pt x="454" y="0" on="1"/>
        <pt x="470" y="0" on="1"/>
        <pt x="331" y="35" on="0"/>
        <pt x="244" y="128" on="1"/>
        <pt x="104" y="277" on="0"/>
        <pt x="104" y="814" on="0"/>
        <pt x="306" y="1257" on="0"/>
        <pt x="654" y="1485" on="0"/>
        <pt x="881" y="1485" on="1"/>
        <pt x="1145" y="1485" on="0"/>
        <pt x="1362" y="1354" on="1"/>
        <pt x="1214" y="1049" on="1"/>
        <pt x="1117" y="1106" on="0"/>
        <pt x="962" y="1159" on="0"/>
      </contour>
    </TTGlyph>
    <TTGlyph name="D" xMin="33" yMin="0" xMax="1337" yMax="1462">
      <contour>
        <pt x="758" y="1462" on="1"/>
        <pt x="1034" y="1462" on="0"/>
        <pt x="1337" y="1173" on="0"/>
        <pt x="1337" y="909" on="1"/>
        <pt x="1337" y="904" on="0"/>
        <pt x="1337" y="898" on="1"/>
        <pt x="1337" y="627" on="0"/>
        <pt x="1139" y="218" on="0"/>
        <pt x="763" y="0" on="0"/>
        <pt x="513" y="0" on="1"/>
        <pt x="509" y="0" on="0"/>
        <pt x="504" y="0" on="1"/>
        <pt x="33" y="0" on="1"/>
        <pt x="342" y="1462" on="1"/>
      </contour>
      <contour>
        <pt x="572" y="324" on="1"/>
        <pt x="675" y="324" on="0"/>
        <pt x="846" y="464" on="0"/>
        <pt x="942" y="723" on="0"/>
        <pt x="942" y="882" on="1"/>
        <pt x="942" y="886" on="0"/>
        <pt x="942" y="889" on="1"/>
        <pt x="942" y="1013" on="0"/>
        <pt x="835" y="1143" on="0"/>
        <pt x="737" y="1143" on="1"/>
        <pt x="666" y="1143" on="1"/>
        <pt x="494" y="324" on="1"/>
        <pt x="563" y="324" on="1"/>
        <pt x="567" y="324" on="0"/>
      </contour>
    </TTGlyph>
    <TTGlyph name="E" xMin="33" yMin="0" xMax="1210" yMax="1462">
      <contour>
        <pt x="33" y="0" on="1"/>
        <pt x="342" y="1462" on="1"/>
        <pt x="1210" y="1462" on="1"/>
        <pt x="1145" y="1145" on="1"/>
        <pt x="668" y="1145" on="1"/>
        <pt x="621" y="915" on="1"/>
        <pt x="1065" y="915" on="1"/>
        <pt x="993" y="598" on="1"/>
        <pt x="549" y="598" on="1"/>
        <pt x="492" y="322" on="1"/>
        <pt x="969" y="322" on="1"/>
        <pt x="901" y="0" on="1"/>
      </contour>
    </TTGlyph>
    <TTGlyph name="Eacute" xMin="33" yMin="0" xMax="1299" yMax="1907">
      <contour>
        <pt x="578" y="1579" on="1"/>
        <pt x="578" y="1602" on="1"/>
        <pt x="700" y="1703" on="0"/>
        <pt x="860" y="1907" on="1"/>
        <pt x="1299" y="1907" on="1"/>
        <pt x="1299" y="1892" on="1"/>
        <pt x="1255" y="1839" on="0"/>
        <pt x="963" y="1633" on="0"/>
        <pt x="862" y="1579" on="1"/>
      </contour>
      <contour>
        <pt x="342" y="1462" on="1"/>
        <pt x="1210" y="1462" on="1"/>
        <pt x="1145" y="1145" on="1"/>
        <pt x="668" y="1145" on="1"/>
        <pt x="621" y="915" on="1"/>
        <pt x="1065" y="915" on="1"/>
        <pt x="993" y="598" on="1"/>
        <pt x="549" y="598" on="1"/>
        <pt x="492" y="322" on="1"/>
        <pt x="969" y="322" on="1"/>
        <pt x="901" y="0" on="1"/>
        <pt x="33" y="0" on="1"/>
      </contour>
    </TTGlyph>
    <TTGlyph name="Ecircumflex" xMin="33" yMin="0" xMax="1239" yMax="1907">
      <contour>
        <pt x="1239" y="1579" on="1"/>
        <pt x="973" y="1579" on="1"/>
        <pt x="926" y="1620" on="0"/>
        <pt x="817" y="1753" on="1"/>
        <pt x="678" y="1644" on="0"/>
        <pt x="577" y="1579" on="1"/>
        <pt x="303" y="1579" on="1"/>
        <pt x="303" y="1602" on="1"/>
        <pt x="370" y="1663" on="0"/>
        <pt x="569" y="1860" on="0"/>
        <pt x="612" y="1907" on="1"/>
        <pt x="1059" y="1907" on="1"/>
        <pt x="1084" y="1848" on="0"/>
        <pt x="1191" y="1665" on="0"/>
        <pt x="1239" y="1602" on="1"/>
      </contour>
      <contour>
        <pt x="342" y="1462" on="1"/>
        <pt x="1210" y="1462" on="1"/>
        <pt x="1145" y="1145" on="1"/>
        <pt x="668" y="1145" on="1"/>
        <pt x="621" y="915" on="1"/>
        <pt x="1065" y="915" on="1"/>
        <pt x="993" y="598" on="1"/>
        <pt x="549" y="598" on="1"/>
        <pt x="492" y="322" on="1"/>
        <pt x="969" y="322" on="1"/>
        <pt x="901" y="0" on="1"/>
        <pt x="33" y="0" on="1"/>
      </contour>
    </TTGlyph>
    <TTGlyph name="Edieresis" xMin="33" yMin="0" xMax="1239" yMax="1909">
      <contour>
        <pt x="383" y="1722" on="1"/>
        <pt x="383" y="1909" on="0"/>
        <pt x="584" y="1909" on="1"/>
        <pt x="754" y="1909" on="0"/>
        <pt x="754" y="1784" on="1"/>
        <pt x="754" y="1595" on="0"/>
        <pt x="553" y="1595" on="1"/>
        <pt x="465" y="1595" on="0"/>
        <pt x="383" y="1657" on="0"/>
      </contour>
      <contour>
        <pt x="870" y="1722" on="1"/>
        <pt x="870" y="1909" on="0"/>
        <pt x="1071" y="1909" on="1"/>
        <pt x="1239" y="1909" on="0"/>
        <pt x="1239" y="1784" on="1"/>
        <pt x="1239" y="1595" on="0"/>
        <pt x="1040" y="1595" on="1"/>
        <pt x="952" y="1595" on="0"/>
        <pt x="870" y="1657" on="0"/>
      </contour>
      <contour>
        <pt x="342" y="1462" on="1"/>
        <pt x="1210" y="1462" on="1"/>
        <pt x="1145" y="1145" on="1"/>
        <pt x="668" y="1145" on="1"/>
        <pt x="621" y="915" on="1"/>
        <pt x="1065" y="915" on="1"/>
        <pt x="993" y="598" on="1"/>
        <pt x="549" y="598" on="1"/>
        <pt x="492" y="322" on="1"/>
        <pt x="969" y="322" on="1"/>
        <pt x="901" y="0" on="1"/>
        <pt x="33" y="0" on="1"/>
      </contour>
    </TTGlyph>
    <TTGlyph name="Egrave" xMin="33" yMin="0" xMax="1210" yMax="1907">
      <contour>
        <pt x="933" y="1579" on="1"/>
        <pt x="697" y="1579" on="1"/>
        <pt x="619" y="1650" on="0"/>
        <pt x="474" y="1823" on="0"/>
        <pt x="443" y="1886" on="1"/>
        <pt x="443" y="1907" on="1"/>
        <pt x="839" y="1907" on="1"/>
        <pt x="867" y="1753" on="0"/>
        <pt x="933" y="1604" on="1"/>
      </contour>
      <contour>
        <pt x="342" y="1462" on="1"/>
        <pt x="1210" y="1462" on="1"/>
        <pt x="1145" y="1145" on="1"/>
        <pt x="668" y="1145" on="1"/>
        <pt x="621" y="915" on="1"/>
        <pt x="1065" y="915" on="1"/>
        <pt x="993" y="598" on="1"/>
        <pt x="549" y="598" on="1"/>
        <pt x="492" y="322" on="1"/>
        <pt x="969" y="322" on="1"/>
        <pt x="901" y="0" on="1"/>
        <pt x="33" y="0" on="1"/>
      </contour>
    </TTGlyph>
    <TTGlyph name="Euro" xMin="53" yMin="-20" xMax="1280" yMax="1487">
      <contour>
        <pt x="905" y="1178" on="1"/>
        <pt x="762" y="1178" on="0"/>
        <pt x="686" y="983" on="1"/>
        <pt x="983" y="983" on="1"/>
        <pt x="938" y="778" on="1"/>
        <pt x="629" y="778" on="1"/>
        <pt x="612" y="722" on="0"/>
        <pt x="604" y="655" on="1"/>
        <pt x="850" y="655" on="1"/>
        <pt x="807" y="451" on="1"/>
        <pt x="580" y="451" on="1"/>
        <pt x="580" y="370" on="0"/>
        <pt x="607" y="338" on="1"/>
        <pt x="635" y="307" on="0"/>
        <pt x="713" y="307" on="1"/>
        <pt x="834" y="307" on="0"/>
        <pt x="1006" y="375" on="1"/>
        <pt x="1006" y="45" on="1"/>
        <pt x="879" y="-20" on="0"/>
        <pt x="420" y="-20" on="0"/>
        <pt x="199" y="208" on="0"/>
        <pt x="193" y="451" on="1"/>
        <pt x="53" y="451" on="1"/>
        <pt x="96" y="655" on="1"/>
        <pt x="205" y="655" on="1"/>
        <pt x="227" y="778" on="1"/>
        <pt x="121" y="778" on="1"/>
        <pt x="168" y="983" on="1"/>
        <pt x="285" y="983" on="1"/>
        <pt x="369" y="1227" on="0"/>
        <pt x="688" y="1487" on="0"/>
        <pt x="905" y="1487" on="1"/>
        <pt x="1022" y="1487" on="0"/>
        <pt x="1198" y="1435" on="0"/>
        <pt x="1280" y="1382" on="1"/>
        <pt x="1126" y="1100" on="1"/>
        <pt x="1006" y="1178" on="0"/>
      </contour>
    </TTGlyph>
    <TTGlyph name="F" xMin="33" yMin="0" xMax="1204" yMax="1462">
      <contour>
        <pt x="33" y="0" on="1"/>
        <pt x="342" y="1462" on="1"/>
        <pt x="1204" y="1462" on="1"/>
        <pt x="1137" y="1145" on="1"/>
        <pt x="666" y="1145" on="1"/>
        <pt x="608" y="866" on="1"/>
        <pt x="1044" y="866" on="1"/>
        <pt x="975" y="547" on="1"/>
        <pt x="537" y="547" on="1"/>
        <pt x="424" y="0" on="1"/>
      </contour>
    </TTGlyph>
    <TTGlyph name="G" xMin="104" yMin="-20" xMax="1409" yMax="1485">
      <contour>
        <pt x="1174" y="61" on="1"/>
        <pt x="924" y="-20" on="0"/>
        <pt x="392" y="-20" on="0"/>
        <pt x="104" y="284" on="0"/>
        <pt x="104" y="830" on="0"/>
        <pt x="324" y="1260" on="0"/>
        <pt x="707" y="1485" on="0"/>
        <pt x="1227" y="1485" on="0"/>
        <pt x="1409" y="1378" on="1"/>
        <pt x="1262" y="1069" on="1"/>
        <pt x="1109" y="1159" on="0"/>
        <pt x="966" y="1159" on="1"/>
        <pt x="683" y="1159" on="0"/>
        <pt x="560" y="872" on="1"/>
        <pt x="500" y="730" on="0"/>
        <pt x="500" y="569" on="1"/>
        <pt x="500" y="305" on="0"/>
        <pt x="709" y="305" on="1"/>
        <pt x="769" y="305" on="0"/>
        <pt x="842" y="319" on="1"/>
        <pt x="893" y="551" on="1"/>
        <pt x="664" y="551" on="1"/>
        <pt x="731" y="856" on="1"/>
        <pt x="1341" y="856" on="1"/>
      </contour>
    </TTGlyph>
    <TTGlyph name="H" xMin="33" yMin="0" xMax="1473" yMax="1462">
      <contour>
        <pt x="772" y="0" on="1"/>
        <pt x="897" y="596" on="1"/>
        <pt x="551" y="596" on="1"/>
        <pt x="424" y="0" on="1"/>
        <pt x="33" y="0" on="1"/>
        <pt x="342" y="1462" on="1"/>
        <pt x="733" y="1462" on="1"/>
        <pt x="621" y="920" on="1"/>
        <pt x="969" y="920" on="1"/>
        <pt x="1081" y="1462" on="1"/>
        <pt x="1473" y="1462" on="1"/>
        <pt x="1163" y="0" on="1"/>
      </contour>
    </TTGlyph>
    <TTGlyph name="I" xMin="31" yMin="0" xMax="737" yMax="1462">
      <contour>
        <pt x="340" y="1462" on="1"/>
        <pt x="737" y="1462" on="1"/>
        <pt x="428" y="0" on="1"/>
        <pt x="31" y="0" on="1"/>
      </contour>
    </TTGlyph>
    <TTGlyph name="Iacute" xMin="31" yMin="0" xMax="1066" yMax="1907">
      <contour>
        <pt x="345" y="1579" on="1"/>
        <pt x="345" y="1602" on="1"/>
        <pt x="467" y="1703" on="0"/>
        <pt x="627" y="1907" on="1"/>
        <pt x="1066" y="1907" on="1"/>
        <pt x="1066" y="1892" on="1"/>
        <pt x="1022" y="1839" on="0"/>
        <pt x="730" y="1633" on="0"/>
        <pt x="629" y="1579" on="1"/>
      </contour>
      <contour>
        <pt x="737" y="1462" on="1"/>
        <pt x="428" y="0" on="1"/>
        <pt x="31" y="0" on="1"/>
        <pt x="340" y="1462" on="1"/>
      </contour>
    </TTGlyph>
    <TTGlyph name="Icircumflex" xMin="31" yMin="0" xMax="1015" yMax="1907">
      <contour>
        <pt x="1015" y="1579" on="1"/>
        <pt x="749" y="1579" on="1"/>
        <pt x="702" y="1620" on="0"/>
        <pt x="593" y="1753" on="1"/>
        <pt x="454" y="1644" on="0"/>
        <pt x="353" y="1579" on="1"/>
        <pt x="79" y="1579" on="1"/>
        <pt x="79" y="1602" on="1"/>
        <pt x="146" y="1663" on="0"/>
        <pt x="345" y="1860" on="0"/>
        <pt x="388" y="1907" on="1"/>
        <pt x="835" y="1907" on="1"/>
        <pt x="860" y="1848" on="0"/>
        <pt x="967" y="1665" on="0"/>
        <pt x="1015" y="1602" on="1"/>
      </contour>
      <contour>
        <pt x="737" y="1462" on="1"/>
        <pt x="428" y="0" on="1"/>
        <pt x="31" y="0" on="1"/>
        <pt x="340" y="1462" on="1"/>
      </contour>
    </TTGlyph>
    <TTGlyph name="Idieresis" xMin="31" yMin="0" xMax="1015" yMax="1909">
      <contour>
        <pt x="159" y="1722" on="1"/>
        <pt x="159" y="1909" on="0"/>
        <pt x="360" y="1909" on="1"/>
        <pt x="530" y="1909" on="0"/>
        <pt x="530" y="1784" on="1"/>
        <pt x="530" y="1595" on="0"/>
        <pt x="329" y="1595" on="1"/>
        <pt x="241" y="1595" on="0"/>
        <pt x="159" y="1657" on="0"/>
      </contour>
      <contour>
        <pt x="646" y="1722" on="1"/>
        <pt x="646" y="1909" on="0"/>
        <pt x="847" y="1909" on="1"/>
        <pt x="1015" y="1909" on="0"/>
        <pt x="1015" y="1784" on="1"/>
        <pt x="1015" y="1595" on="0"/>
        <pt x="816" y="1595" on="1"/>
        <pt x="728" y="1595" on="0"/>
        <pt x="646" y="1657" on="0"/>
      </contour>
      <contour>
        <pt x="737" y="1462" on="1"/>
        <pt x="428" y="0" on="1"/>
        <pt x="31" y="0" on="1"/>
        <pt x="340" y="1462" on="1"/>
      </contour>
    </TTGlyph>
    <TTGlyph name="Igrave" xMin="31" yMin="0" xMax="749" yMax="1907">
      <contour>
        <pt x="749" y="1579" on="1"/>
        <pt x="513" y="1579" on="1"/>
        <pt x="435" y="1650" on="0"/>
        <pt x="290" y="1823" on="0"/>
        <pt x="259" y="1886" on="1"/>
        <pt x="259" y="1907" on="1"/>
        <pt x="655" y="1907" on="1"/>
        <pt x="683" y="1753" on="0"/>
        <pt x="749" y="1604" on="1"/>
      </contour>
      <contour>
        <pt x="737" y="1462" on="1"/>
        <pt x="428" y="0" on="1"/>
        <pt x="31" y="0" on="1"/>
        <pt x="340" y="1462" on="1"/>
      </contour>
    </TTGlyph>
    <TTGlyph name="J" xMin="-328" yMin="-461" xMax="772" yMax="1462">
      <contour>
        <pt x="-115" y="-461" on="1"/>
        <pt x="-220" y="-461" on="0"/>
        <pt x="-328" y="-432" on="1"/>
        <pt x="-328" y="-113" on="1"/>
        <pt x="-229" y="-137" on="0"/>
        <pt x="-154" y="-137" on="1"/>
        <pt x="-48" y="-137" on="0"/>
        <pt x="64" y="-20" on="0"/>
        <pt x="92" y="117" on="1"/>
        <pt x="381" y="1462" on="1"/>
        <pt x="772" y="1462" on="1"/>
        <pt x="473" y="68" on="1"/>
        <pt x="429" y="-134" on="0"/>
        <pt x="290" y="-356" on="0"/>
        <pt x="66" y="-461" on="0"/>
      </contour>
    </TTGlyph>
    <TTGlyph name="K" xMin="33" yMin="0" xMax="1522" yMax="1462">
      <contour>
        <pt x="803" y="0" on="1"/>
        <pt x="629" y="578" on="1"/>
        <pt x="532" y="522" on="1"/>
        <pt x="424" y="0" on="1"/>
        <pt x="33" y="0" on="1"/>
        <pt x="342" y="1462" on="1"/>
        <pt x="733" y="1462" on="1"/>
        <pt x="598" y="838" on="1"/>
        <pt x="636" y="897" on="1"/>
        <pt x="726" y="1042" on="0"/>
        <pt x="766" y="1092" on="1"/>
        <pt x="1063" y="1462" on="1"/>
        <pt x="1522" y="1462" on="1"/>
        <pt x="971" y="788" on="1"/>
        <pt x="1241" y="0" on="1"/>
      </contour>
    </TTGlyph>
    <TTGlyph name="L" xMin="33" yMin="0" xMax="969" yMax="1462">
      <contour>
        <pt x="342" y="1462" on="1"/>
        <pt x="733" y="1462" on="1"/>
        <pt x="492" y="319" on="1"/>
        <pt x="969" y="319" on="1"/>
        <pt x="901" y="0" on="1"/>
        <pt x="33" y="0" on="1"/>
      </contour>
    </TTGlyph>
    <TTGlyph name="M" xMin="33" yMin="0" xMax="1872" yMax="1462">
      <contour>
        <pt x="588" y="1049" on="1"/>
        <pt x="580" y="1049" on="1"/>
        <pt x="508" y="607" on="0"/>
        <pt x="494" y="537" on="1"/>
        <pt x="381" y="0" on="1"/>
        <pt x="33" y="0" on="1"/>
        <pt x="342" y="1462" on="1"/>
        <pt x="860" y="1462" on="1"/>
        <pt x="860" y="424" on="1"/>
        <pt x="868" y="424" on="1"/>
        <pt x="1346" y="1462" on="1"/>
        <pt x="1872" y="1462" on="1"/>
        <pt x="1559" y="0" on="1"/>
        <pt x="1208" y="0" on="1"/>
        <pt x="1325" y="549" on="1"/>
        <pt x="1374" y="775" on="0"/>
        <pt x="1433" y="985" on="1"/>
        <pt x="1448" y="1049" on="1"/>
        <pt x="1440" y="1049" on="1"/>
        <pt x="958" y="0" on="1"/>
        <pt x="588" y="0" on="1"/>
      </contour>
    </TTGlyph>
    <TTGlyph name="N" xMin="33" yMin="0" xMax="1628" yMax="1462">
      <contour>
        <pt x="864" y="0" on="1"/>
        <pt x="575" y="1028" on="1"/>
        <pt x="567" y="1028" on="1"/>
        <pt x="539" y="738" on="0"/>
        <pt x="510" y="610" on="1"/>
        <pt x="381" y="0" on="1"/>
        <pt x="33" y="0" on="1"/>
        <pt x="342" y="1462" on="1"/>
        <pt x="797" y="1462" on="1"/>
        <pt x="1083" y="479" on="1"/>
        <pt x="1092" y="479" on="1"/>
        <pt x="1121" y="716" on="0"/>
        <pt x="1149" y="850" on="1"/>
        <pt x="1280" y="1462" on="1"/>
        <pt x="1628" y="1462" on="1"/>
        <pt x="1319" y="0" on="1"/>
      </contour>
    </TTGlyph>
    <TTGlyph name="Ntilde" xMin="33" yMin="0" xMax="1628" yMax="1919">
      <contour>
        <pt x="1130" y="1577" on="1"/>
        <pt x="1064" y="1577" on="0"/>
        <pt x="965" y="1630" on="1"/>
        <pt x="891" y="1675" on="0"/>
        <pt x="838" y="1675" on="1"/>
        <pt x="806" y="1675" on="0"/>
        <pt x="747" y="1619" on="0"/>
        <pt x="741" y="1575" on="1"/>
        <pt x="553" y="1575" on="1"/>
        <pt x="585" y="1748" on="0"/>
        <pt x="739" y="1917" on="0"/>
        <pt x="866" y="1917" on="1"/>
        <pt x="901" y="1917" on="0"/>
        <pt x="951" y="1904" on="0"/>
        <pt x="1020" y="1868" on="1"/>
        <pt x="1107" y="1819" on="0"/>
        <pt x="1153" y="1819" on="1"/>
        <pt x="1231" y="1819" on="0"/>
        <pt x="1268" y="1919" on="1"/>
        <pt x="1458" y="1919" on="1"/>
        <pt x="1424" y="1746" on="0"/>
        <pt x="1266" y="1577" on="0"/>
        <pt x="1137" y="1577" on="1"/>
        <pt x="1134" y="1577" on="0"/>
      </contour>
      <contour>
        <pt x="575" y="1028" on="1"/>
        <pt x="567" y="1028" on="1"/>
        <pt x="539" y="738" on="0"/>
        <pt x="510" y="610" on="1"/>
        <pt x="381" y="0" on="1"/>
        <pt x="33" y="0" on="1"/>
        <pt x="342" y="1462" on="1"/>
        <pt x="797" y="1462" on="1"/>
        <pt x="1083" y="479" on="1"/>
        <pt x="1092" y="479" on="1"/>
        <pt x="1121" y="716" on="0"/>
        <pt x="1149" y="850" on="1"/>
        <pt x="1280" y="1462" on="1"/>
        <pt x="1628" y="1462" on="1"/>
        <pt x="1319" y="0" on="1"/>
        <pt x="864" y="0" on="1"/>
      </contour>
    </TTGlyph>
    <TTGlyph name="O" xMin="104" yMin="-20" xMax="1446" yMax="1485">
      <contour>
        <pt x="897" y="1485" on="1"/>
        <pt x="1157" y="1485" on="0"/>
        <pt x="1446" y="1188" on="0"/>
        <pt x="1446" y="654" on="0"/>
        <pt x="1247" y="215" on="0"/>
        <pt x="897" y="-20" on="0"/>
        <pt x="666" y="-20" on="1"/>
        <pt x="397" y="-20" on="0"/>
        <pt x="250" y="129" on="1"/>
        <pt x="104" y="278" on="0"/>
        <pt x="104" y="809" on="0"/>
        <pt x="310" y="1251" on="0"/>
        <pt x="665" y="1485" on="0"/>
      </contour>
      <contour>
        <pt x="1051" y="918" on="1"/>
        <pt x="1051" y="1033" on="0"/>
        <pt x="954" y="1161" on="0"/>
        <pt x="764" y="1161" on="0"/>
        <pt x="598" y="991" on="0"/>
        <pt x="500" y="700" on="0"/>
        <pt x="500" y="545" on="1"/>
        <pt x="500" y="303" on="0"/>
        <pt x="700" y="303" on="1"/>
        <pt x="795" y="303" on="0"/>
        <pt x="957" y="467" on="0"/>
        <pt x="1051" y="753" on="0"/>
      </contour>
    </TTGlyph>
    <TTGlyph name="OE" xMin="104" yMin="-20" xMax="1968" yMax="1485">
      <contour>
        <pt x="647" y="-20" on="1"/>
        <pt x="391" y="-20" on="0"/>
        <pt x="247" y="126" on="1"/>
        <pt x="104" y="274" on="0"/>
        <pt x="104" y="528" on="1"/>
        <pt x="104" y="726" on="0"/>
        <pt x="220" y="1089" on="0"/>
        <pt x="433" y="1350" on="0"/>
        <pt x="726" y="1485" on="0"/>
        <pt x="903" y="1485" on="1"/>
        <pt x="994" y="1485" on="0"/>
        <pt x="1094" y="1462" on="1"/>
        <pt x="1968" y="1462" on="1"/>
        <pt x="1901" y="1143" on="1"/>
        <pt x="1423" y="1143" on="1"/>
        <pt x="1376" y="918" on="1"/>
        <pt x="1821" y="918" on="1"/>
        <pt x="1749" y="596" on="1"/>
        <pt x="1305" y="596" on="1"/>
        <pt x="1247" y="324" on="1"/>
        <pt x="1724" y="324" on="1"/>
        <pt x="1659" y="0" on="1"/>
        <pt x="844" y="0" on="1"/>
        <pt x="738" y="-20" on="0"/>
      </contour>
      <contour>
        <pt x="1024" y="1112" on="1"/>
        <pt x="972" y="1161" on="0"/>
        <pt x="774" y="1161" on="0"/>
        <pt x="687" y="1073" on="1"/>
        <pt x="600" y="983" on="0"/>
        <pt x="500" y="690" on="0"/>
        <pt x="500" y="526" on="1"/>
        <pt x="500" y="309" on="0"/>
        <pt x="682" y="309" on="1"/>
        <pt x="777" y="309" on="0"/>
        <pt x="862" y="350" on="1"/>
      </contour>
    </TTGlyph>
    <TTGlyph name="Oacute" xMin="104" yMin="-20" xMax="1446" yMax="1907">
      <contour>
        <pt x="717" y="1579" on="1"/>
        <pt x="717" y="1602" on="1"/>
        <pt x="839" y="1703" on="0"/>
        <pt x="999" y="1907" on="1"/>
        <pt x="1438" y="1907" on="1"/>
        <pt x="1438" y="1892" on="1"/>
        <pt x="1394" y="1839" on="0"/>
        <pt x="1102" y="1633" on="0"/>
        <pt x="1001" y="1579" on="1"/>
      </contour>
      <contour>
        <pt x="897" y="1485" on="1"/>
        <pt x="1157" y="1485" on="0"/>
        <pt x="1446" y="1188" on="0"/>
        <pt x="1446" y="654" on="0"/>
        <pt x="1247" y="215" on="0"/>
        <pt x="897" y="-20" on="0"/>
        <pt x="666" y="-20" on="1"/>
        <pt x="397" y="-20" on="0"/>
        <pt x="250" y="129" on="1"/>
        <pt x="104" y="278" on="0"/>
        <pt x="104" y="809" on="0"/>
        <pt x="310" y="1251" on="0"/>
        <pt x="665" y="1485" on="0"/>
      </contour>
      <contour>
        <pt x="1051" y="918" on="1"/>
        <pt x="1051" y="1033" on="0"/>
        <pt x="954" y="1161" on="0"/>
        <pt x="764" y="1161" on="0"/>
        <pt x="598" y="991" on="0"/>
        <pt x="500" y="700" on="0"/>
        <pt x="500" y="545" on="1"/>
        <pt x="500" y="303" on="0"/>
        <pt x="700" y="303" on="1"/>
        <pt x="795" y="303" on="0"/>
        <pt x="957" y="467" on="0"/>
        <pt x="1051" y="753" on="0"/>
      </contour>
    </TTGlyph>
    <TTGlyph name="Ocircumflex" xMin="104" yMin="-20" xMax="1446" yMax="1907">
      <contour>
        <pt x="1368" y="1579" on="1"/>
        <pt x="1102" y="1579" on="1"/>
        <pt x="1056" y="1620" on="0"/>
        <pt x="946" y="1753" on="1"/>
        <pt x="806" y="1644" on="0"/>
        <pt x="706" y="1579" on="1"/>
        <pt x="432" y="1579" on="1"/>
        <pt x="432" y="1602" on="1"/>
        <pt x="499" y="1663" on="0"/>
        <pt x="698" y="1860" on="0"/>
        <pt x="741" y="1907" on="1"/>
        <pt x="1188" y="1907" on="1"/>
        <pt x="1214" y="1848" on="0"/>
        <pt x="1320" y="1665" on="0"/>
        <pt x="1368" y="1602" on="1"/>
      </contour>
      <contour>
        <pt x="897" y="1485" on="1"/>
        <pt x="1157" y="1485" on="0"/>
        <pt x="1446" y="1188" on="0"/>
        <pt x="1446" y="654" on="0"/>
        <pt x="1247" y="215" on="0"/>
        <pt x="897" y="-20" on="0"/>
        <pt x="666" y="-20" on="1"/>
        <pt x="397" y="-20" on="0"/>
        <pt x="250" y="129" on="1"/>
        <pt x="104" y="278" on="0"/>
        <pt x="104" y="809" on="0"/>
        <pt x="310" y="1251" on="0"/>
        <pt x="665" y="1485" on="0"/>
      </contour>
      <contour>
        <pt x="1051" y="918" on="1"/>
        <pt x="1051" y="1033" on="0"/>
        <pt x="954" y="1161" on="0"/>
        <pt x="764" y="1161" on="0"/>
        <pt x="598" y="991" on="0"/>
        <pt x="500" y="700" on="0"/>
        <pt x="500" y="545" on="1"/>
        <pt x="500" y="303" on="0"/>
        <pt x="700" y="303" on="1"/>
        <pt x="795" y="303" on="0"/>
        <pt x="957" y="467" on="0"/>
        <pt x="1051" y="753" on="0"/>
      </contour>
    </TTGlyph>
    <TTGlyph name="Odieresis" xMin="104" yMin="-20" xMax="1446" yMax="1909">
      <contour>
        <pt x="512" y="1722" on="1"/>
        <pt x="512" y="1909" on="0"/>
        <pt x="713" y="1909" on="1"/>
        <pt x="883" y="1909" on="0"/>
        <pt x="883" y="1784" on="1"/>
        <pt x="883" y="1595" on="0"/>
        <pt x="682" y="1595" on="1"/>
        <pt x="594" y="1595" on="0"/>
        <pt x="512" y="1657" on="0"/>
      </contour>
      <contour>
        <pt x="999" y="1722" on="1"/>
        <pt x="999" y="1909" on="0"/>
        <pt x="1200" y="1909" on="1"/>
        <pt x="1368" y="1909" on="0"/>
        <pt x="1368" y="1784" on="1"/>
        <pt x="1368" y="1595" on="0"/>
        <pt x="1169" y="1595" on="1"/>
        <pt x="1081" y="1595" on="0"/>
        <pt x="999" y="1657" on="0"/>
      </contour>
      <contour>
        <pt x="897" y="1485" on="1"/>
        <pt x="1157" y="1485" on="0"/>
        <pt x="1446" y="1188" on="0"/>
        <pt x="1446" y="654" on="0"/>
        <pt x="1247" y="215" on="0"/>
        <pt x="897" y="-20" on="0"/>
        <pt x="666" y="-20" on="1"/>
        <pt x="397" y="-20" on="0"/>
        <pt x="250" y="129" on="1"/>
        <pt x="104" y="278" on="0"/>
        <pt x="104" y="809" on="0"/>
        <pt x="310" y="1251" on="0"/>
        <pt x="665" y="1485" on="0"/>
      </contour>
      <contour>
        <pt x="1051" y="918" on="1"/>
        <pt x="1051" y="1033" on="0"/>
        <pt x="954" y="1161" on="0"/>
        <pt x="764" y="1161" on="0"/>
        <pt x="598" y="991" on="0"/>
        <pt x="500" y="700" on="0"/>
        <pt x="500" y="545" on="1"/>
        <pt x="500" y="303" on="0"/>
        <pt x="700" y="303" on="1"/>
        <pt x="795" y="303" on="0"/>
        <pt x="957" y="467" on="0"/>
        <pt x="1051" y="753" on="0"/>
      </contour>
    </TTGlyph>
    <TTGlyph name="Ograve" xMin="104" yMin="-20" xMax="1446" yMax="1907">
      <contour>
        <pt x="1102" y="1579" on="1"/>
        <pt x="866" y="1579" on="1"/>
        <pt x="788" y="1650" on="0"/>
        <pt x="643" y="1823" on="0"/>
        <pt x="612" y="1886" on="1"/>
        <pt x="612" y="1907" on="1"/>
        <pt x="1008" y="1907" on="1"/>
        <pt x="1036" y="1753" on="0"/>
        <pt x="1102" y="1604" on="1"/>
      </contour>
      <contour>
        <pt x="897" y="1485" on="1"/>
        <pt x="1157" y="1485" on="0"/>
        <pt x="1446" y="1188" on="0"/>
        <pt x="1446" y="654" on="0"/>
        <pt x="1247" y="215" on="0"/>
        <pt x="897" y="-20" on="0"/>
        <pt x="666" y="-20" on="1"/>
        <pt x="397" y="-20" on="0"/>
        <pt x="250" y="129" on="1"/>
        <pt x="104" y="278" on="0"/>
        <pt x="104" y="809" on="0"/>
        <pt x="310" y="1251" on="0"/>
        <pt x="665" y="1485" on="0"/>
      </contour>
      <contour>
        <pt x="1051" y="918" on="1"/>
        <pt x="1051" y="1033" on="0"/>
        <pt x="954" y="1161" on="0"/>
        <pt x="764" y="1161" on="0"/>
        <pt x="598" y="991" on="0"/>
        <pt x="500" y="700" on="0"/>
        <pt x="500" y="545" on="1"/>
        <pt x="500" y="303" on="0"/>
        <pt x="700" y="303" on="1"/>
        <pt x="795" y="303" on="0"/>
        <pt x="957" y="467" on="0"/>
        <pt x="1051" y="753" on="0"/>
      </contour>
    </TTGlyph>
    <TTGlyph name="Oslash" xMin="94" yMin="-86" xMax="1446" yMax="1528">
      <contour>
        <pt x="104" y="543" on="1"/>
        <pt x="104" y="804" on="0"/>
        <pt x="305" y="1249" on="0"/>
        <pt x="655" y="1485" on="0"/>
        <pt x="879" y="1485" on="1"/>
        <pt x="1060" y="1485" on="0"/>
        <pt x="1194" y="1413" on="1"/>
        <pt x="1286" y="1528" on="1"/>
        <pt x="1442" y="1409" on="1"/>
        <pt x="1343" y="1284" on="1"/>
        <pt x="1446" y="1142" on="0"/>
        <pt x="1446" y="922" on="1"/>
        <pt x="1446" y="664" on="0"/>
        <pt x="1250" y="220" on="0"/>
        <pt x="903" y="-20" on="0"/>
        <pt x="684" y="-20" on="1"/>
        <pt x="492" y="-20" on="0"/>
        <pt x="360" y="49" on="1"/>
        <pt x="254" y="-86" on="1"/>
        <pt x="94" y="31" on="1"/>
        <pt x="211" y="176" on="1"/>
        <pt x="104" y="318" on="0"/>
      </contour>
      <contour>
        <pt x="852" y="1161" on="1"/>
        <pt x="758" y="1161" on="0"/>
        <pt x="595" y="996" on="0"/>
        <pt x="500" y="712" on="0"/>
        <pt x="500" y="549" on="1"/>
        <pt x="500" y="539" on="1"/>
        <pt x="967" y="1128" on="1"/>
        <pt x="922" y="1161" on="0"/>
      </contour>
      <contour>
        <pt x="700" y="303" on="1"/>
        <pt x="795" y="303" on="0"/>
        <pt x="958" y="468" on="0"/>
        <pt x="1051" y="750" on="0"/>
        <pt x="1051" y="915" on="1"/>
        <pt x="586" y="332" on="1"/>
        <pt x="633" y="303" on="0"/>
      </contour>
    </TTGlyph>
    <TTGlyph name="Otilde" xMin="104" yMin="-20" xMax="1446" yMax="1919">
      <contour>
        <pt x="1066" y="1577" on="1"/>
        <pt x="1000" y="1577" on="0"/>
        <pt x="901" y="1630" on="1"/>
        <pt x="828" y="1675" on="0"/>
        <pt x="774" y="1675" on="1"/>
        <pt x="742" y="1675" on="0"/>
        <pt x="683" y="1619" on="0"/>
        <pt x="677" y="1575" on="1"/>
        <pt x="489" y="1575" on="1"/>
        <pt x="521" y="1748" on="0"/>
        <pt x="675" y="1917" on="0"/>
        <pt x="802" y="1917" on="1"/>
        <pt x="837" y="1917" on="0"/>
        <pt x="887" y="1904" on="0"/>
        <pt x="956" y="1868" on="1"/>
        <pt x="1043" y="1819" on="0"/>
        <pt x="1089" y="1819" on="1"/>
        <pt x="1167" y="1819" on="0"/>
        <pt x="1204" y="1919" on="1"/>
        <pt x="1394" y="1919" on="1"/>
        <pt x="1360" y="1746" on="0"/>
        <pt x="1202" y="1577" on="0"/>
        <pt x="1073" y="1577" on="1"/>
        <pt x="1070" y="1577" on="0"/>
      </contour>
      <contour>
        <pt x="897" y="1485" on="1"/>
        <pt x="1157" y="1485" on="0"/>
        <pt x="1446" y="1188" on="0"/>
        <pt x="1446" y="654" on="0"/>
        <pt x="1247" y="215" on="0"/>
        <pt x="897" y="-20" on="0"/>
        <pt x="666" y="-20" on="1"/>
        <pt x="397" y="-20" on="0"/>
        <pt x="250" y="129" on="1"/>
        <pt x="104" y="278" on="0"/>
        <pt x="104" y="809" on="0"/>
        <pt x="310" y="1251" on="0"/>
        <pt x="665" y="1485" on="0"/>
      </contour>
      <contour>
        <pt x="1051" y="918" on="1"/>
        <pt x="1051" y="1033" on="0"/>
        <pt x="954" y="1161" on="0"/>
        <pt x="764" y="1161" on="0"/>
        <pt x="598" y="991" on="0"/>
        <pt x="500" y="700" on="0"/>
        <pt x="500" y="545" on="1"/>
        <pt x="500" y="303" on="0"/>
        <pt x="700" y="303" on="1"/>
        <pt x="795" y="303" on="0"/>
        <pt x="957" y="467" on="0"/>
        <pt x="1051" y="753" on="0"/>
      </contour>
    </TTGlyph>
    <TTGlyph name="P" xMin="33" yMin="0" xMax="1251" yMax="1462">
      <contour>
        <pt x="715" y="1462" on="1"/>
        <pt x="974" y="1462" on="0"/>
        <pt x="1251" y="1235" on="0"/>
        <pt x="1251" y="1024" on="1"/>
        <pt x="1251" y="772" on="0"/>
        <pt x="907" y="485" on="0"/>
        <pt x="610" y="485" on="1"/>
        <pt x="524" y="485" on="1"/>
        <pt x="424" y="0" on="1"/>
        <pt x="33" y="0" on="1"/>
        <pt x="342" y="1462" on="1"/>
      </contour>
      <contour>
        <pt x="657" y="805" on="1"/>
        <pt x="749" y="805" on="0"/>
        <pt x="860" y="922" on="0"/>
        <pt x="860" y="1012" on="1"/>
        <pt x="860" y="1072" on="0"/>
        <pt x="788" y="1143" on="0"/>
        <pt x="725" y="1143" on="1"/>
        <pt x="666" y="1143" on="1"/>
        <pt x="594" y="805" on="1"/>
      </contour>
    </TTGlyph>
    <TTGlyph name="Q" xMin="104" yMin="-348" xMax="1446" yMax="1485">
      <contour>
        <pt x="647" y="-20" on="1"/>
        <pt x="389" y="-20" on="0"/>
        <pt x="246" y="129" on="1"/>
        <pt x="104" y="278" on="0"/>
        <pt x="104" y="808" on="0"/>
        <pt x="309" y="1250" on="0"/>
        <pt x="668" y="1485" on="0"/>
        <pt x="903" y="1485" on="1"/>
        <pt x="1160" y="1485" on="0"/>
        <pt x="1446" y="1186" on="0"/>
        <pt x="1446" y="642" on="0"/>
        <pt x="1218" y="183" on="0"/>
        <pt x="1022" y="74" on="1"/>
        <pt x="1260" y="-348" on="1"/>
        <pt x="821" y="-348" on="1"/>
        <pt x="659" y="-20" on="1"/>
      </contour>
      <contour>
        <pt x="1051" y="926" on="1"/>
        <pt x="1051" y="1157" on="0"/>
        <pt x="862" y="1157" on="1"/>
        <pt x="767" y="1157" on="0"/>
        <pt x="597" y="993" on="0"/>
        <pt x="500" y="706" on="0"/>
        <pt x="500" y="539" on="1"/>
        <pt x="500" y="425" on="0"/>
        <pt x="594" y="309" on="0"/>
        <pt x="784" y="309" on="0"/>
        <pt x="868" y="390" on="1"/>
        <pt x="952" y="469" on="0"/>
        <pt x="1051" y="757" on="0"/>
      </contour>
    </TTGlyph>
    <TTGlyph name="R" xMin="33" yMin="0" xMax="1249" yMax="1462">
      <contour>
        <pt x="729" y="1462" on="1"/>
        <pt x="983" y="1462" on="0"/>
        <pt x="1249" y="1260" on="0"/>
        <pt x="1249" y="1061" on="1"/>
        <pt x="1249" y="903" on="0"/>
        <pt x="1106" y="672" on="0"/>
        <pt x="967" y="612" on="1"/>
        <pt x="1191" y="96" on="1"/>
        <pt x="1231" y="0" on="1"/>
        <pt x="805" y="0" on="1"/>
        <pt x="610" y="532" on="1"/>
        <pt x="537" y="532" on="1"/>
        <pt x="424" y="0" on="1"/>
        <pt x="33" y="0" on="1"/>
        <pt x="342" y="1462" on="1"/>
      </contour>
      <contour>
        <pt x="651" y="829" on="1"/>
        <pt x="747" y="829" on="0"/>
        <pt x="858" y="938" on="0"/>
        <pt x="858" y="1036" on="1"/>
        <pt x="858" y="1098" on="0"/>
        <pt x="789" y="1163" on="0"/>
        <pt x="723" y="1163" on="1"/>
        <pt x="670" y="1163" on="1"/>
        <pt x="600" y="829" on="1"/>
      </contour>
    </TTGlyph>
    <TTGlyph name="S" xMin="43" yMin="-20" xMax="1143" yMax="1483">
      <contour>
        <pt x="717" y="1167" on="1"/>
        <pt x="653" y="1167" on="0"/>
        <pt x="584" y="1111" on="0"/>
        <pt x="584" y="1009" on="0"/>
        <pt x="617" y="965" on="1"/>
        <pt x="654" y="920" on="0"/>
        <pt x="745" y="852" on="1"/>
        <pt x="864" y="764" on="0"/>
        <pt x="977" y="571" on="0"/>
        <pt x="977" y="449" on="1"/>
        <pt x="977" y="228" on="0"/>
        <pt x="830" y="103" on="1"/>
        <pt x="683" y="-20" on="0"/>
        <pt x="420" y="-20" on="1"/>
        <pt x="188" y="-20" on="0"/>
        <pt x="43" y="76" on="1"/>
        <pt x="43" y="426" on="1"/>
        <pt x="129" y="372" on="0"/>
        <pt x="344" y="301" on="0"/>
        <pt x="425" y="301" on="1"/>
        <pt x="582" y="301" on="0"/>
        <pt x="582" y="420" on="1"/>
        <pt x="582" y="471" on="0"/>
        <pt x="536" y="517" on="1"/>
        <pt x="510" y="545" on="0"/>
        <pt x="418" y="621" on="1"/>
        <pt x="302" y="714" on="0"/>
        <pt x="195" y="910" on="0"/>
        <pt x="195" y="1159" on="0"/>
        <pt x="326" y="1368" on="0"/>
        <pt x="564" y="1483" on="0"/>
        <pt x="713" y="1483" on="1"/>
        <pt x="952" y="1483" on="0"/>
        <pt x="1143" y="1376" on="1"/>
        <pt x="1008" y="1079" on="1"/>
        <pt x="838" y="1167" on="0"/>
      </contour>
    </TTGlyph>
    <TTGlyph name="T" xMin="156" yMin="0" xMax="1253" yMax="1462">
      <contour>
        <pt x="236" y="0" on="1"/>
        <pt x="473" y="1139" on="1"/>
        <pt x="156" y="1139" on="1"/>
        <pt x="225" y="1462" on="1"/>
        <pt x="1253" y="1462" on="1"/>
        <pt x="1182" y="1139" on="1"/>
        <pt x="864" y="1139" on="1"/>
        <pt x="627" y="0" on="1"/>
      </contour>
    </TTGlyph>
    <TTGlyph name="U" xMin="125" yMin="-20" xMax="1450" yMax="1462">
      <contour>
        <pt x="566" y="-20" on="1"/>
        <pt x="440" y="-20" on="0"/>
        <pt x="235" y="91" on="0"/>
        <pt x="125" y="286" on="0"/>
        <pt x="125" y="402" on="1"/>
        <pt x="125" y="406" on="0"/>
        <pt x="125" y="410" on="1"/>
        <pt x="125" y="474" on="0"/>
        <pt x="137" y="539" on="1"/>
        <pt x="336" y="1462" on="1"/>
        <pt x="727" y="1462" on="1"/>
        <pt x="532" y="549" on="1"/>
        <pt x="518" y="479" on="0"/>
        <pt x="518" y="434" on="1"/>
        <pt x="518" y="307" on="0"/>
        <pt x="639" y="307" on="1"/>
        <pt x="731" y="307" on="0"/>
        <pt x="840" y="434" on="0"/>
        <pt x="868" y="569" on="1"/>
        <pt x="1059" y="1462" on="1"/>
        <pt x="1450" y="1462" on="1"/>
        <pt x="1251" y="530" on="1"/>
        <pt x="1192" y="249" on="0"/>
        <pt x="860" y="-20" on="0"/>
        <pt x="575" y="-20" on="1"/>
        <pt x="571" y="-20" on="0"/>
      </contour>
    </TTGlyph>
    <TTGlyph name="Uacute" xMin="125" yMin="-20" xMax="1450" yMax="1907">
      <contour>
        <pt x="725" y="1579" on="1"/>
        <pt x="725" y="1602" on="1"/>
        <pt x="847" y="1703" on="0"/>
        <pt x="1007" y="1907" on="1"/>
        <pt x="1446" y="1907" on="1"/>
        <pt x="1446" y="1892" on="1"/>
        <pt x="1402" y="1839" on="0"/>
        <pt x="1110" y="1633" on="0"/>
        <pt x="1009" y="1579" on="1"/>
      </contour>
      <contour>
        <pt x="566" y="-20" on="1"/>
        <pt x="440" y="-20" on="0"/>
        <pt x="235" y="91" on="0"/>
        <pt x="125" y="286" on="0"/>
        <pt x="125" y="402" on="1"/>
        <pt x="125" y="406" on="0"/>
        <pt x="125" y="410" on="1"/>
        <pt x="125" y="474" on="0"/>
        <pt x="137" y="539" on="1"/>
        <pt x="336" y="1462" on="1"/>
        <pt x="727" y="1462" on="1"/>
        <pt x="532" y="549" on="1"/>
        <pt x="518" y="479" on="0"/>
        <pt x="518" y="434" on="1"/>
        <pt x="518" y="307" on="0"/>
        <pt x="639" y="307" on="1"/>
        <pt x="731" y="307" on="0"/>
        <pt x="840" y="434" on="0"/>
        <pt x="868" y="569" on="1"/>
        <pt x="1059" y="1462" on="1"/>
        <pt x="1450" y="1462" on="1"/>
        <pt x="1251" y="530" on="1"/>
        <pt x="1192" y="249" on="0"/>
        <pt x="860" y="-20" on="0"/>
        <pt x="575" y="-20" on="1"/>
        <pt x="571" y="-20" on="0"/>
      </contour>
    </TTGlyph>
    <TTGlyph name="Ucircumflex" xMin="125" yMin="-20" xMax="1450" yMax="1907">
      <contour>
        <pt x="1376" y="1579" on="1"/>
        <pt x="1110" y="1579" on="1"/>
        <pt x="1064" y="1620" on="0"/>
        <pt x="954" y="1753" on="1"/>
        <pt x="814" y="1644" on="0"/>
        <pt x="714" y="1579" on="1"/>
        <pt x="440" y="1579" on="1"/>
        <pt x="440" y="1602" on="1"/>
        <pt x="507" y="1663" on="0"/>
        <pt x="706" y="1860" on="0"/>
        <pt x="749" y="1907" on="1"/>
        <pt x="1196" y="1907" on="1"/>
        <pt x="1222" y="1848" on="0"/>
        <pt x="1328" y="1665" on="0"/>
        <pt x="1376" y="1602" on="1"/>
      </contour>
      <contour>
        <pt x="566" y="-20" on="1"/>
        <pt x="440" y="-20" on="0"/>
        <pt x="235" y="91" on="0"/>
        <pt x="125" y="286" on="0"/>
        <pt x="125" y="402" on="1"/>
        <pt x="125" y="406" on="0"/>
        <pt x="125" y="410" on="1"/>
        <pt x="125" y="474" on="0"/>
        <pt x="137" y="539" on="1"/>
        <pt x="336" y="1462" on="1"/>
        <pt x="727" y="1462" on="1"/>
        <pt x="532" y="549" on="1"/>
        <pt x="518" y="479" on="0"/>
        <pt x="518" y="434" on="1"/>
        <pt x="518" y="307" on="0"/>
        <pt x="639" y="307" on="1"/>
        <pt x="731" y="307" on="0"/>
        <pt x="840" y="434" on="0"/>
        <pt x="868" y="569" on="1"/>
        <pt x="1059" y="1462" on="1"/>
        <pt x="1450" y="1462" on="1"/>
        <pt x="1251" y="530" on="1"/>
        <pt x="1192" y="249" on="0"/>
        <pt x="860" y="-20" on="0"/>
        <pt x="575" y="-20" on="1"/>
        <pt x="571" y="-20" on="0"/>
      </contour>
    </TTGlyph>
    <TTGlyph name="Udieresis" xMin="125" yMin="-20" xMax="1450" yMax="1909">
      <contour>
        <pt x="533" y="1722" on="1"/>
        <pt x="533" y="1909" on="0"/>
        <pt x="734" y="1909" on="1"/>
        <pt x="904" y="1909" on="0"/>
        <pt x="904" y="1784" on="1"/>
        <pt x="904" y="1595" on="0"/>
        <pt x="703" y="1595" on="1"/>
        <pt x="615" y="1595" on="0"/>
        <pt x="533" y="1657" on="0"/>
      </contour>
      <contour>
        <pt x="1020" y="1722" on="1"/>
        <pt x="1020" y="1909" on="0"/>
        <pt x="1221" y="1909" on="1"/>
        <pt x="1389" y="1909" on="0"/>
        <pt x="1389" y="1784" on="1"/>
        <pt x="1389" y="1595" on="0"/>
        <pt x="1190" y="1595" on="1"/>
        <pt x="1102" y="1595" on="0"/>
        <pt x="1020" y="1657" on="0"/>
      </contour>
      <contour>
        <pt x="566" y="-20" on="1"/>
        <pt x="440" y="-20" on="0"/>
        <pt x="235" y="91" on="0"/>
        <pt x="125" y="286" on="0"/>
        <pt x="125" y="402" on="1"/>
        <pt x="125" y="406" on="0"/>
        <pt x="125" y="410" on="1"/>
        <pt x="125" y="474" on="0"/>
        <pt x="137" y="539" on="1"/>
        <pt x="336" y="1462" on="1"/>
        <pt x="727" y="1462" on="1"/>
        <pt x="532" y="549" on="1"/>
        <pt x="518" y="479" on="0"/>
        <pt x="518" y="434" on="1"/>
        <pt x="518" y="307" on="0"/>
        <pt x="639" y="307" on="1"/>
        <pt x="731" y="307" on="0"/>
        <pt x="840" y="434" on="0"/>
        <pt x="868" y="569" on="1"/>
        <pt x="1059" y="1462" on="1"/>
        <pt x="1450" y="1462" on="1"/>
        <pt x="1251" y="530" on="1"/>
        <pt x="1192" y="249" on="0"/>
        <pt x="860" y="-20" on="0"/>
        <pt x="575" y="-20" on="1"/>
        <pt x="571" y="-20" on="0"/>
      </contour>
    </TTGlyph>
    <TTGlyph name="Ugrave" xMin="125" yMin="-20" xMax="1450" yMax="1907">
      <contour>
        <pt x="1045" y="1579" on="1"/>
        <pt x="809" y="1579" on="1"/>
        <pt x="731" y="1650" on="0"/>
        <pt x="586" y="1823" on="0"/>
        <pt x="555" y="1886" on="1"/>
        <pt x="555" y="1907" on="1"/>
        <pt x="951" y="1907" on="1"/>
        <pt x="979" y="1753" on="0"/>
        <pt x="1045" y="1604" on="1"/>
      </contour>
      <contour>
        <pt x="566" y="-20" on="1"/>
        <pt x="440" y="-20" on="0"/>
        <pt x="235" y="91" on="0"/>
        <pt x="125" y="286" on="0"/>
        <pt x="125" y="402" on="1"/>
        <pt x="125" y="406" on="0"/>
        <pt x="125" y="410" on="1"/>
        <pt x="125" y="474" on="0"/>
        <pt x="137" y="539" on="1"/>
        <pt x="336" y="1462" on="1"/>
        <pt x="727" y="1462" on="1"/>
        <pt x="532" y="549" on="1"/>
        <pt x="518" y="479" on="0"/>
        <pt x="518" y="434" on="1"/>
        <pt x="518" y="307" on="0"/>
        <pt x="639" y="307" on="1"/>
        <pt x="731" y="307" on="0"/>
        <pt x="840" y="434" on="0"/>
        <pt x="868" y="569" on="1"/>
        <pt x="1059" y="1462" on="1"/>
        <pt x="1450" y="1462" on="1"/>
        <pt x="1251" y="530" on="1"/>
        <pt x="1192" y="249" on="0"/>
        <pt x="860" y="-20" on="0"/>
        <pt x="575" y="-20" on="1"/>
        <pt x="571" y="-20" on="0"/>
      </contour>
    </TTGlyph>
    <TTGlyph name="V" xMin="150" yMin="0" xMax="1415" yMax="1462">
      <contour>
        <pt x="559" y="610" on="1"/>
        <pt x="559" y="463" on="0"/>
        <pt x="543" y="354" on="1"/>
        <pt x="551" y="354" on="1"/>
        <pt x="563" y="413" on="0"/>
        <pt x="595" y="511" on="1"/>
        <pt x="628" y="609" on="0"/>
        <pt x="651" y="657" on="1"/>
        <pt x="1001" y="1462" on="1"/>
        <pt x="1415" y="1462" on="1"/>
        <pt x="690" y="0" on="1"/>
        <pt x="254" y="0" on="1"/>
        <pt x="150" y="1462" on="1"/>
        <pt x="532" y="1462" on="1"/>
        <pt x="559" y="661" on="1"/>
      </contour>
    </TTGlyph>
    <TTGlyph name="W" xMin="152" yMin="0" xMax="2089" yMax="1462">
      <contour>
        <pt x="1292" y="1462" on="1"/>
        <pt x="1292" y="670" on="1"/>
        <pt x="1292" y="518" on="0"/>
        <pt x="1266" y="354" on="1"/>
        <pt x="1399" y="700" on="1"/>
        <pt x="1702" y="1462" on="1"/>
        <pt x="2089" y="1462" on="1"/>
        <pt x="1454" y="0" on="1"/>
        <pt x="993" y="0" on="1"/>
        <pt x="993" y="620" on="1"/>
        <pt x="993" y="781" on="0"/>
        <pt x="1006" y="944" on="1"/>
        <pt x="972" y="808" on="0"/>
        <pt x="888" y="595" on="1"/>
        <pt x="635" y="0" on="1"/>
        <pt x="201" y="0" on="1"/>
        <pt x="152" y="1462" on="1"/>
        <pt x="522" y="1462" on="1"/>
        <pt x="512" y="729" on="1"/>
        <pt x="506" y="459" on="0"/>
        <pt x="487" y="354" on="1"/>
        <pt x="527" y="458" on="1"/>
        <pt x="621" y="690" on="1"/>
        <pt x="956" y="1462" on="1"/>
      </contour>
    </TTGlyph>
    <TTGlyph name="X" xMin="-125" yMin="0" xMax="1511" yMax="1462">
      <contour>
        <pt x="803" y="0" on="1"/>
        <pt x="657" y="498" on="1"/>
        <pt x="319" y="0" on="1"/>
        <pt x="-125" y="0" on="1"/>
        <pt x="438" y="776" on="1"/>
        <pt x="215" y="1462" on="1"/>
        <pt x="631" y="1462" on="1"/>
        <pt x="754" y="993" on="1"/>
        <pt x="1063" y="1462" on="1"/>
        <pt x="1511" y="1462" on="1"/>
        <pt x="973" y="737" on="1"/>
        <pt x="1235" y="0" on="1"/>
      </contour>
    </TTGlyph>
    <TTGlyph name="Y" xMin="164" yMin="0" xMax="1405" yMax="1462">
      <contour>
        <pt x="969" y="1462" on="1"/>
        <pt x="1405" y="1462" on="1"/>
        <pt x="793" y="567" on="1"/>
        <pt x="672" y="0" on="1"/>
        <pt x="281" y="0" on="1"/>
        <pt x="401" y="567" on="1"/>
        <pt x="164" y="1462" on="1"/>
        <pt x="567" y="1462" on="1"/>
        <pt x="657" y="920" on="1"/>
      </contour>
    </TTGlyph>
    <TTGlyph name="Ydieresis" xMin="164" yMin="0" xMax="1405" yMax="1909">
      <contour>
        <pt x="397" y="1722" on="1"/>
        <pt x="397" y="1909" on="0"/>
        <pt x="598" y="1909" on="1"/>
        <pt x="768" y="1909" on="0"/>
        <pt x="768" y="1784" on="1"/>
        <pt x="768" y="1595" on="0"/>
        <pt x="567" y="1595" on="1"/>
        <pt x="479" y="1595" on="0"/>
        <pt x="397" y="1657" on="0"/>
      </contour>
      <contour>
        <pt x="884" y="1722" on="1"/>
        <pt x="884" y="1909" on="0"/>
        <pt x="1085" y="1909" on="1"/>
        <pt x="1253" y="1909" on="0"/>
        <pt x="1253" y="1784" on="1"/>
        <pt x="1253" y="1595" on="0"/>
        <pt x="1054" y="1595" on="1"/>
        <pt x="966" y="1595" on="0"/>
        <pt x="884" y="1657" on="0"/>
      </contour>
      <contour>
        <pt x="1405" y="1462" on="1"/>
        <pt x="793" y="567" on="1"/>
        <pt x="672" y="0" on="1"/>
        <pt x="281" y="0" on="1"/>
        <pt x="401" y="567" on="1"/>
        <pt x="164" y="1462" on="1"/>
        <pt x="567" y="1462" on="1"/>
        <pt x="657" y="920" on="1"/>
        <pt x="969" y="1462" on="1"/>
      </contour>
    </TTGlyph>
    <TTGlyph name="Z" xMin="-92" yMin="0" xMax="1219" yMax="1462">
      <contour>
        <pt x="-92" y="0" on="1"/>
        <pt x="-45" y="242" on="1"/>
        <pt x="645" y="1143" on="1"/>
        <pt x="166" y="1143" on="1"/>
        <pt x="233" y="1462" on="1"/>
        <pt x="1219" y="1462" on="1"/>
        <pt x="1167" y="1217" on="1"/>
        <pt x="467" y="319" on="1"/>
        <pt x="1010" y="319" on="1"/>
        <pt x="942" y="0" on="1"/>
      </contour>
    </TTGlyph>
    <TTGlyph name="a" xMin="84" yMin="-20" xMax="1221" yMax="1153">
      <contour>
        <pt x="406" y="-20" on="1"/>
        <pt x="248" y="-20" on="0"/>
        <pt x="84" y="202" on="0"/>
        <pt x="84" y="412" on="1"/>
        <pt x="84" y="592" on="0"/>
        <pt x="229" y="961" on="0"/>
        <pt x="452" y="1153" on="0"/>
        <pt x="588" y="1153" on="1"/>
        <pt x="673" y="1153" on="0"/>
        <pt x="800" y="1077" on="0"/>
        <pt x="850" y="993" on="1"/>
        <pt x="858" y="993" on="1"/>
        <pt x="911" y="1133" on="1"/>
        <pt x="1221" y="1133" on="1"/>
        <pt x="981" y="0" on="1"/>
        <pt x="672" y="0" on="1"/>
        <pt x="682" y="123" on="1"/>
        <pt x="674" y="123" on="1"/>
        <pt x="619" y="47" on="0"/>
        <pt x="490" y="-20" on="0"/>
      </contour>
      <contour>
        <pt x="565" y="291" on="1"/>
        <pt x="615" y="291" on="0"/>
        <pt x="705" y="406" on="0"/>
        <pt x="760" y="604" on="0"/>
        <pt x="760" y="684" on="1"/>
        <pt x="760" y="842" on="0"/>
        <pt x="678" y="842" on="1"/>
        <pt x="601" y="842" on="0"/>
        <pt x="479" y="590" on="0"/>
        <pt x="479" y="291" on="0"/>
      </contour>
    </TTGlyph>
    <TTGlyph name="aacute" xMin="84" yMin="-20" xMax="1252" yMax="1569">
      <contour>
        <pt x="531" y="1241" on="1"/>
        <pt x="531" y="1264" on="1"/>
        <pt x="653" y="1365" on="0"/>
        <pt x="813" y="1569" on="1"/>
        <pt x="1252" y="1569" on="1"/>
        <pt x="1252" y="1554" on="1"/>
        <pt x="1208" y="1501" on="0"/>
        <pt x="916" y="1295" on="0"/>
        <pt x="815" y="1241" on="1"/>
      </contour>
      <contour>
        <pt x="406" y="-20" on="1"/>
        <pt x="248" y="-20" on="0"/>
        <pt x="84" y="202" on="0"/>
        <pt x="84" y="412" on="1"/>
        <pt x="84" y="592" on="0"/>
        <pt x="229" y="961" on="0"/>
        <pt x="452" y="1153" on="0"/>
        <pt x="588" y="1153" on="1"/>
        <pt x="673" y="1153" on="0"/>
        <pt x="800" y="1077" on="0"/>
        <pt x="850" y="993" on="1"/>
        <pt x="858" y="993" on="1"/>
        <pt x="911" y="1133" on="1"/>
        <pt x="1221" y="1133" on="1"/>
        <pt x="981" y="0" on="1"/>
        <pt x="672" y="0" on="1"/>
        <pt x="682" y="123" on="1"/>
        <pt x="674" y="123" on="1"/>
        <pt x="619" y="47" on="0"/>
        <pt x="490" y="-20" on="0"/>
      </contour>
      <contour>
        <pt x="565" y="291" on="1"/>
        <pt x="615" y="291" on="0"/>
        <pt x="705" y="406" on="0"/>
        <pt x="760" y="604" on="0"/>
        <pt x="760" y="684" on="1"/>
        <pt x="760" y="842" on="0"/>
        <pt x="678" y="842" on="1"/>
        <pt x="601" y="842" on="0"/>
        <pt x="479" y="590" on="0"/>
        <pt x="479" y="291" on="0"/>
      </contour>
    </TTGlyph>
    <TTGlyph name="acircumflex" xMin="84" yMin="-20" xMax="1221" yMax="1566">
      <contour>
        <pt x="1198" y="1238" on="1"/>
        <pt x="932" y="1238" on="1"/>
        <pt x="886" y="1278" on="0"/>
        <pt x="776" y="1412" on="1"/>
        <pt x="636" y="1302" on="0"/>
        <pt x="536" y="1238" on="1"/>
        <pt x="262" y="1238" on="1"/>
        <pt x="262" y="1261" on="1"/>
        <pt x="329" y="1322" on="0"/>
        <pt x="528" y="1519" on="0"/>
        <pt x="571" y="1566" on="1"/>
        <pt x="1018" y="1566" on="1"/>
        <pt x="1044" y="1508" on="0"/>
        <pt x="1150" y="1324" on="0"/>
        <pt x="1198" y="1261" on="1"/>
      </contour>
      <contour>
        <pt x="406" y="-20" on="1"/>
        <pt x="248" y="-20" on="0"/>
        <pt x="84" y="202" on="0"/>
        <pt x="84" y="412" on="1"/>
        <pt x="84" y="592" on="0"/>
        <pt x="229" y="961" on="0"/>
        <pt x="452" y="1153" on="0"/>
        <pt x="588" y="1153" on="1"/>
        <pt x="673" y="1153" on="0"/>
        <pt x="800" y="1077" on="0"/>
        <pt x="850" y="993" on="1"/>
        <pt x="858" y="993" on="1"/>
        <pt x="911" y="1133" on="1"/>
        <pt x="1221" y="1133" on="1"/>
        <pt x="981" y="0" on="1"/>
        <pt x="672" y="0" on="1"/>
        <pt x="682" y="123" on="1"/>
        <pt x="674" y="123" on="1"/>
        <pt x="619" y="47" on="0"/>
        <pt x="490" y="-20" on="0"/>
      </contour>
      <contour>
        <pt x="565" y="291" on="1"/>
        <pt x="615" y="291" on="0"/>
        <pt x="705" y="406" on="0"/>
        <pt x="760" y="604" on="0"/>
        <pt x="760" y="684" on="1"/>
        <pt x="760" y="842" on="0"/>
        <pt x="678" y="842" on="1"/>
        <pt x="601" y="842" on="0"/>
        <pt x="479" y="590" on="0"/>
        <pt x="479" y="291" on="0"/>
      </contour>
    </TTGlyph>
    <TTGlyph name="acute" xMin="453" yMin="1241" xMax="1174" yMax="1569">
      <contour>
        <pt x="453" y="1241" on="1"/>
        <pt x="453" y="1264" on="1"/>
        <pt x="575" y="1365" on="0"/>
        <pt x="735" y="1569" on="1"/>
        <pt x="1174" y="1569" on="1"/>
        <pt x="1174" y="1554" on="1"/>
        <pt x="1130" y="1501" on="0"/>
        <pt x="838" y="1295" on="0"/>
        <pt x="737" y="1241" on="1"/>
      </contour>
    </TTGlyph>
    <TTGlyph name="adieresis" xMin="84" yMin="-20" xMax="1221" yMax="1571">
      <contour>
        <pt x="331" y="1384" on="1"/>
        <pt x="331" y="1571" on="0"/>
        <pt x="532" y="1571" on="1"/>
        <pt x="702" y="1571" on="0"/>
        <pt x="702" y="1446" on="1"/>
        <pt x="702" y="1257" on="0"/>
        <pt x="501" y="1257" on="1"/>
        <pt x="413" y="1257" on="0"/>
        <pt x="331" y="1319" on="0"/>
      </contour>
      <contour>
        <pt x="818" y="1384" on="1"/>
        <pt x="818" y="1571" on="0"/>
        <pt x="1019" y="1571" on="1"/>
        <pt x="1187" y="1571" on="0"/>
        <pt x="1187" y="1446" on="1"/>
        <pt x="1187" y="1257" on="0"/>
        <pt x="988" y="1257" on="1"/>
        <pt x="900" y="1257" on="0"/>
        <pt x="818" y="1319" on="0"/>
      </contour>
      <contour>
        <pt x="406" y="-20" on="1"/>
        <pt x="248" y="-20" on="0"/>
        <pt x="84" y="202" on="0"/>
        <pt x="84" y="412" on="1"/>
        <pt x="84" y="592" on="0"/>
        <pt x="229" y="961" on="0"/>
        <pt x="452" y="1153" on="0"/>
        <pt x="588" y="1153" on="1"/>
        <pt x="673" y="1153" on="0"/>
        <pt x="800" y="1077" on="0"/>
        <pt x="850" y="993" on="1"/>
        <pt x="858" y="993" on="1"/>
        <pt x="911" y="1133" on="1"/>
        <pt x="1221" y="1133" on="1"/>
        <pt x="981" y="0" on="1"/>
        <pt x="672" y="0" on="1"/>
        <pt x="682" y="123" on="1"/>
        <pt x="674" y="123" on="1"/>
        <pt x="619" y="47" on="0"/>
        <pt x="490" y="-20" on="0"/>
      </contour>
      <contour>
        <pt x="565" y="291" on="1"/>
        <pt x="615" y="291" on="0"/>
        <pt x="705" y="406" on="0"/>
        <pt x="760" y="604" on="0"/>
        <pt x="760" y="684" on="1"/>
        <pt x="760" y="842" on="0"/>
        <pt x="678" y="842" on="1"/>
        <pt x="601" y="842" on="0"/>
        <pt x="479" y="590" on="0"/>
        <pt x="479" y="291" on="0"/>
      </contour>
    </TTGlyph>
    <TTGlyph name="ae" xMin="84" yMin="-20" xMax="1743" yMax="1153">
      <contour>
        <pt x="1192" y="-20" on="1"/>
        <pt x="1012" y="-20" on="0"/>
        <pt x="930" y="92" on="1"/>
        <pt x="899" y="0" on="1"/>
        <pt x="672" y="0" on="1"/>
        <pt x="682" y="123" on="1"/>
        <pt x="674" y="123" on="1"/>
        <pt x="619" y="47" on="0"/>
        <pt x="490" y="-20" on="0"/>
        <pt x="406" y="-20" on="1"/>
        <pt x="248" y="-20" on="0"/>
        <pt x="84" y="202" on="0"/>
        <pt x="84" y="412" on="1"/>
        <pt x="84" y="592" on="0"/>
        <pt x="229" y="961" on="0"/>
        <pt x="452" y="1153" on="0"/>
        <pt x="588" y="1153" on="1"/>
        <pt x="679" y="1153" on="0"/>
        <pt x="799" y="1078" on="0"/>
        <pt x="850" y="993" on="1"/>
        <pt x="858" y="993" on="1"/>
        <pt x="911" y="1133" on="1"/>
        <pt x="1118" y="1133" on="1"/>
        <pt x="1118" y="1038" on="1"/>
        <pt x="1175" y="1093" on="0"/>
        <pt x="1323" y="1153" on="0"/>
        <pt x="1397" y="1153" on="1"/>
        <pt x="1554" y="1153" on="0"/>
        <pt x="1743" y="980" on="0"/>
        <pt x="1743" y="838" on="1"/>
        <pt x="1743" y="637" on="0"/>
        <pt x="1429" y="422" on="0"/>
        <pt x="1135" y="422" on="1"/>
        <pt x="1075" y="422" on="1"/>
        <pt x="1075" y="406" on="1"/>
        <pt x="1075" y="258" on="0"/>
        <pt x="1239" y="258" on="1"/>
        <pt x="1317" y="258" on="0"/>
        <pt x="1469" y="304" on="0"/>
        <pt x="1567" y="356" on="1"/>
        <pt x="1567" y="82" on="1"/>
        <pt x="1471" y="25" on="0"/>
        <pt x="1303" y="-20" on="0"/>
      </contour>
      <contour>
        <pt x="1143" y="664" on="1"/>
        <pt x="1251" y="664" on="0"/>
        <pt x="1376" y="746" on="0"/>
        <pt x="1376" y="815" on="1"/>
        <pt x="1376" y="849" on="0"/>
        <pt x="1334" y="891" on="0"/>
        <pt x="1292" y="891" on="1"/>
        <pt x="1230" y="891" on="0"/>
        <pt x="1124" y="750" on="0"/>
        <pt x="1114" y="664" on="1"/>
      </contour>
      <contour>
        <pt x="565" y="291" on="1"/>
        <pt x="640" y="291" on="0"/>
        <pt x="758" y="538" on="0"/>
        <pt x="758" y="698" on="1"/>
        <pt x="758" y="764" on="0"/>
        <pt x="711" y="842" on="0"/>
        <pt x="620" y="842" on="0"/>
        <pt x="533" y="726" on="0"/>
        <pt x="479" y="532" on="0"/>
        <pt x="479" y="434" on="1"/>
        <pt x="479" y="291" on="0"/>
      </contour>
    </TTGlyph>
    <TTGlyph name="agrave" xMin="84" yMin="-20" xMax="1221" yMax="1569">
      <contour>
        <pt x="890" y="1241" on="1"/>
        <pt x="654" y="1241" on="1"/>
        <pt x="576" y="1312" on="0"/>
        <pt x="431" y="1485" on="0"/>
        <pt x="400" y="1548" on="1"/>
        <pt x="400" y="1569" on="1"/>
        <pt x="796" y="1569" on="1"/>
        <pt x="824" y="1415" on="0"/>
        <pt x="890" y="1266" on="1"/>
      </contour>
      <contour>
        <pt x="406" y="-20" on="1"/>
        <pt x="248" y="-20" on="0"/>
        <pt x="84" y="202" on="0"/>
        <pt x="84" y="412" on="1"/>
        <pt x="84" y="592" on="0"/>
        <pt x="229" y="961" on="0"/>
        <pt x="452" y="1153" on="0"/>
        <pt x="588" y="1153" on="1"/>
        <pt x="673" y="1153" on="0"/>
        <pt x="800" y="1077" on="0"/>
        <pt x="850" y="993" on="1"/>
        <pt x="858" y="993" on="1"/>
        <pt x="911" y="1133" on="1"/>
        <pt x="1221" y="1133" on="1"/>
        <pt x="981" y="0" on="1"/>
        <pt x="672" y="0" on="1"/>
        <pt x="682" y="123" on="1"/>
        <pt x="674" y="123" on="1"/>
        <pt x="619" y="47" on="0"/>
        <pt x="490" y="-20" on="0"/>
      </contour>
      <contour>
        <pt x="565" y="291" on="1"/>
        <pt x="615" y="291" on="0"/>
        <pt x="705" y="406" on="0"/>
        <pt x="760" y="604" on="0"/>
        <pt x="760" y="684" on="1"/>
        <pt x="760" y="842" on="0"/>
        <pt x="678" y="842" on="1"/>
        <pt x="601" y="842" on="0"/>
        <pt x="479" y="590" on="0"/>
        <pt x="479" y="291" on="0"/>
      </contour>
    </TTGlyph>
    <TTGlyph name="alefdageshhb" xMin="-22" yMin="0" xMax="1396" yMax="1295">
      <contour>
        <pt x="1396" y="1295" on="1"/>
        <pt x="1296" y="824" on="1"/>
        <pt x="1263" y="664" on="0"/>
        <pt x="1182" y="576" on="1"/>
        <pt x="1150" y="541" on="0"/>
        <pt x="1045" y="473" on="0"/>
        <pt x="978" y="450" on="1"/>
        <pt x="1103" y="152" on="0"/>
        <pt x="1168" y="0" on="1"/>
        <pt x="735" y="0" on="1"/>
        <pt x="509" y="584" on="1"/>
        <pt x="483" y="555" on="0"/>
        <pt x="466" y="474" on="1"/>
        <pt x="365" y="0" on="1"/>
        <pt x="-22" y="0" on="1"/>
        <pt x="78" y="471" on="1"/>
        <pt x="91" y="531" on="0"/>
        <pt x="127" y="625" on="0"/>
        <pt x="162" y="678" on="1"/>
        <pt x="235" y="788" on="0"/>
        <pt x="400" y="846" on="1"/>
        <pt x="247" y="1206" on="0"/>
        <pt x="210" y="1295" on="1"/>
        <pt x="642" y="1295" on="1"/>
        <pt x="807" y="857" on="1"/>
        <pt x="868" y="713" on="1"/>
        <pt x="892" y="749" on="0"/>
        <pt x="907" y="821" on="1"/>
        <pt x="1008" y="1295" on="1"/>
      </contour>
      <contour>
        <pt x="479" y="225" on="1"/>
        <pt x="509" y="248" on="0"/>
        <pt x="596" y="248" on="0"/>
        <pt x="632" y="207" on="0"/>
        <pt x="632" y="189" on="1"/>
        <pt x="632" y="130" on="0"/>
        <pt x="591" y="98" on="1"/>
        <pt x="560" y="75" on="0"/>
        <pt x="472" y="75" on="0"/>
        <pt x="438" y="113" on="0"/>
        <pt x="438" y="131" on="1"/>
        <pt x="438" y="194" on="0"/>
      </contour>
    </TTGlyph>
    <TTGlyph name="alefpatahhb" xMin="-22" yMin="-242" xMax="1396" yMax="1295">
      <contour>
        <pt x="1396" y="1295" on="1"/>
        <pt x="1296" y="824" on="1"/>
        <pt x="1263" y="664" on="0"/>
        <pt x="1182" y="576" on="1"/>
        <pt x="1150" y="541" on="0"/>
        <pt x="1045" y="473" on="0"/>
        <pt x="978" y="450" on="1"/>
        <pt x="1103" y="152" on="0"/>
        <pt x="1168" y="0" on="1"/>
        <pt x="735" y="0" on="1"/>
        <pt x="509" y="584" on="1"/>
        <pt x="483" y="555" on="0"/>
        <pt x="466" y="474" on="1"/>
        <pt x="365" y="0" on="1"/>
        <pt x="-22" y="0" on="1"/>
        <pt x="78" y="471" on="1"/>
        <pt x="91" y="531" on="0"/>
        <pt x="127" y="625" on="0"/>
        <pt x="162" y="678" on="1"/>
        <pt x="235" y="788" on="0"/>
        <pt x="400" y="846" on="1"/>
        <pt x="247" y="1206" on="0"/>
        <pt x="210" y="1295" on="1"/>
        <pt x="642" y="1295" on="1"/>
        <pt x="807" y="857" on="1"/>
        <pt x="868" y="713" on="1"/>
        <pt x="892" y="749" on="0"/>
        <pt x="907" y="821" on="1"/>
        <pt x="1008" y="1295" on="1"/>
      </contour>
      <contour>
        <pt x="697" y="-242" on="1"/>
        <pt x="304" y="-242" on="1"/>
        <pt x="328" y="-126" on="1"/>
        <pt x="721" y="-126" on="1"/>
      </contour>
    </TTGlyph>
    <TTGlyph name="alefqamatshb" xMin="-22" yMin="-445" xMax="1396" yMax="1295">
      <contour>
        <pt x="1396" y="1295" on="1"/>
        <pt x="1296" y="824" on="1"/>
        <pt x="1263" y="664" on="0"/>
        <pt x="1182" y="576" on="1"/>
        <pt x="1150" y="541" on="0"/>
        <pt x="1045" y="473" on="0"/>
        <pt x="978" y="450" on="1"/>
        <pt x="1103" y="152" on="0"/>
        <pt x="1168" y="0" on="1"/>
        <pt x="735" y="0" on="1"/>
        <pt x="509" y="584" on="1"/>
        <pt x="483" y="555" on="0"/>
        <pt x="466" y="474" on="1"/>
        <pt x="365" y="0" on="1"/>
        <pt x="-22" y="0" on="1"/>
        <pt x="78" y="471" on="1"/>
        <pt x="91" y="531" on="0"/>
        <pt x="127" y="625" on="0"/>
        <pt x="162" y="678" on="1"/>
        <pt x="235" y="788" on="0"/>
        <pt x="400" y="846" on="1"/>
        <pt x="247" y="1206" on="0"/>
        <pt x="210" y="1295" on="1"/>
        <pt x="642" y="1295" on="1"/>
        <pt x="807" y="857" on="1"/>
        <pt x="868" y="713" on="1"/>
        <pt x="892" y="749" on="0"/>
        <pt x="907" y="821" on="1"/>
        <pt x="1008" y="1295" on="1"/>
      </contour>
      <contour>
        <pt x="692" y="-243" on="1"/>
        <pt x="556" y="-243" on="1"/>
        <pt x="513" y="-445" on="1"/>
        <pt x="402" y="-445" on="1"/>
        <pt x="445" y="-243" on="1"/>
        <pt x="310" y="-243" on="1"/>
        <pt x="335" y="-126" on="1"/>
        <pt x="717" y="-126" on="1"/>
      </contour>
    </TTGlyph>
    <TTGlyph name="ampersand" xMin="8" yMin="-20" xMax="1489" yMax="1485">
      <contour>
        <pt x="528" y="-20" on="1"/>
        <pt x="283" y="-20" on="0"/>
        <pt x="8" y="192" on="0"/>
        <pt x="8" y="385" on="1"/>
        <pt x="8" y="544" on="0"/>
        <pt x="184" y="755" on="0"/>
        <pt x="367" y="815" on="1"/>
        <pt x="330" y="861" on="0"/>
        <pt x="283" y="1008" on="0"/>
        <pt x="283" y="1065" on="1"/>
        <pt x="283" y="1262" on="0"/>
        <pt x="534" y="1485" on="0"/>
        <pt x="764" y="1485" on="1"/>
        <pt x="954" y="1485" on="0"/>
        <pt x="1180" y="1309" on="0"/>
        <pt x="1180" y="1161" on="1"/>
        <pt x="1180" y="1032" on="0"/>
        <pt x="1022" y="827" on="0"/>
        <pt x="838" y="731" on="1"/>
        <pt x="967" y="545" on="1"/>
        <pt x="1003" y="581" on="0"/>
        <pt x="1081" y="736" on="0"/>
        <pt x="1106" y="821" on="1"/>
        <pt x="1489" y="821" on="1"/>
        <pt x="1443" y="660" on="0"/>
        <pt x="1279" y="371" on="0"/>
        <pt x="1171" y="262" on="1"/>
        <pt x="1362" y="0" on="1"/>
        <pt x="920" y="0" on="1"/>
        <pt x="877" y="61" on="1"/>
        <pt x="722" y="-20" on="0"/>
      </contour>
      <contour>
        <pt x="827" y="1171" on="0"/>
        <pt x="782" y="1221" on="0"/>
        <pt x="696" y="1221" on="0"/>
        <pt x="635" y="1151" on="0"/>
        <pt x="635" y="1016" on="0"/>
        <pt x="686" y="948" on="1"/>
        <pt x="827" y="1008" on="0"/>
        <pt x="827" y="1135" on="1"/>
      </contour>
      <contour>
        <pt x="399" y="424" on="1"/>
        <pt x="399" y="362" on="0"/>
        <pt x="494" y="287" on="0"/>
        <pt x="646" y="287" on="0"/>
        <pt x="709" y="313" on="1"/>
        <pt x="516" y="592" on="1"/>
        <pt x="399" y="540" on="0"/>
      </contour>
    </TTGlyph>
    <TTGlyph name="aring" xMin="84" yMin="-20" xMax="1221" yMax="1743">
      <contour>
        <pt x="488" y="1603" on="0"/>
        <pt x="634" y="1743" on="0"/>
        <pt x="874" y="1743" on="0"/>
        <pt x="1025" y="1602" on="0"/>
        <pt x="1025" y="1378" on="0"/>
        <pt x="877" y="1237" on="0"/>
        <pt x="636" y="1237" on="0"/>
        <pt x="488" y="1374" on="0"/>
      </contour>
      <contour>
        <pt x="795" y="1405" on="0"/>
        <pt x="845" y="1454" on="0"/>
        <pt x="845" y="1526" on="0"/>
        <pt x="793" y="1575" on="0"/>
        <pt x="720" y="1575" on="0"/>
        <pt x="668" y="1526" on="0"/>
        <pt x="668" y="1452" on="0"/>
        <pt x="716" y="1405" on="0"/>
      </contour>
      <contour>
        <pt x="406" y="-20" on="1"/>
        <pt x="248" y="-20" on="0"/>
        <pt x="84" y="202" on="0"/>
        <pt x="84" y="412" on="1"/>
        <pt x="84" y="592" on="0"/>
        <pt x="229" y="961" on="0"/>
        <pt x="452" y="1153" on="0"/>
        <pt x="588" y="1153" on="1"/>
        <pt x="673" y="1153" on="0"/>
        <pt x="800" y="1077" on="0"/>
        <pt x="850" y="993" on="1"/>
        <pt x="858" y="993" on="1"/>
        <pt x="911" y="1133" on="1"/>
        <pt x="1221" y="1133" on="1"/>
        <pt x="981" y="0" on="1"/>
        <pt x="672" y="0" on="1"/>
        <pt x="682" y="123" on="1"/>
        <pt x="674" y="123" on="1"/>
        <pt x="619" y="47" on="0"/>
        <pt x="490" y="-20" on="0"/>
      </contour>
      <contour>
        <pt x="565" y="291" on="1"/>
        <pt x="615" y="291" on="0"/>
        <pt x="705" y="406" on="0"/>
        <pt x="760" y="604" on="0"/>
        <pt x="760" y="684" on="1"/>
        <pt x="760" y="842" on="0"/>
        <pt x="678" y="842" on="1"/>
        <pt x="601" y="842" on="0"/>
        <pt x="479" y="590" on="0"/>
        <pt x="479" y="291" on="0"/>
      </contour>
    </TTGlyph>
    <TTGlyph name="asciicircum" xMin="-6" yMin="502" xMax="1081" yMax="1462">
      <contour>
        <pt x="625" y="1462" on="1"/>
        <pt x="797" y="1462" on="1"/>
        <pt x="1081" y="502" on="1"/>
        <pt x="807" y="502" on="1"/>
        <pt x="651" y="1071" on="1"/>
        <pt x="291" y="502" on="1"/>
        <pt x="-6" y="502" on="1"/>
      </contour>
    </TTGlyph>
    <TTGlyph name="asciitilde" xMin="96" yMin="524" xMax="1071" yMax="920">
      <contour>
        <pt x="809" y="526" on="1"/>
        <pt x="748" y="526" on="0"/>
        <pt x="642" y="552" on="0"/>
        <pt x="476" y="620" on="0"/>
        <pt x="385" y="645" on="0"/>
        <pt x="336" y="645" on="1"/>
        <pt x="221" y="645" on="0"/>
        <pt x="96" y="524" on="1"/>
        <pt x="96" y="809" on="1"/>
        <pt x="202" y="918" on="0"/>
        <pt x="358" y="918" on="1"/>
        <pt x="418" y="918" on="0"/>
        <pt x="512" y="897" on="0"/>
        <pt x="693" y="824" on="0"/>
        <pt x="785" y="799" on="0"/>
        <pt x="886" y="799" on="0"/>
        <pt x="1015" y="864" on="0"/>
        <pt x="1071" y="920" on="1"/>
        <pt x="1071" y="635" on="1"/>
        <pt x="965" y="526" on="0"/>
      </contour>
    </TTGlyph>
    <TTGlyph name="asterisk" xMin="152" yMin="551" xMax="1161" yMax="1571">
      <contour>
        <pt x="793" y="1178" on="1"/>
        <pt x="1161" y="1208" on="1"/>
        <pt x="1139" y="907" on="1"/>
        <pt x="829" y="948" on="1"/>
        <pt x="977" y="637" on="1"/>
        <pt x="692" y="551" on="1"/>
        <pt x="612" y="854" on="1"/>
        <pt x="446" y="610" on="1"/>
        <pt x="197" y="795" on="1"/>
        <pt x="451" y="1024" on="1"/>
        <pt x="152" y="1108" on="1"/>
        <pt x="252" y="1386" on="1"/>
        <pt x="571" y="1221" on="1"/>
        <pt x="602" y="1571" on="1"/>
        <pt x="909" y="1509" on="1"/>
      </contour>
    </TTGlyph>
    <TTGlyph name="at" xMin="82" yMin="-186" xMax="1774" yMax="1483">
      <contour>
        <pt x="780" y="-186" on="1"/>
        <pt x="571" y="-186" on="0"/>
        <pt x="253" y="-19" on="0"/>
        <pt x="82" y="295" on="0"/>
        <pt x="82" y="500" on="1"/>
        <pt x="82" y="788" on="0"/>
        <pt x="315" y="1233" on="0"/>
        <pt x="534" y="1358" on="1"/>
        <pt x="754" y="1483" on="0"/>
        <pt x="1020" y="1483" on="1"/>
        <pt x="1374" y="1483" on="0"/>
        <pt x="1774" y="1135" on="0"/>
        <pt x="1774" y="827" on="1"/>
        <pt x="1774" y="656" on="0"/>
        <pt x="1635" y="369" on="0"/>
        <pt x="1392" y="207" on="0"/>
        <pt x="1247" y="207" on="1"/>
        <pt x="1078" y="207" on="0"/>
        <pt x="1028" y="336" on="1"/>
        <pt x="1018" y="336" on="1"/>
        <pt x="969" y="270" on="0"/>
        <pt x="842" y="207" on="0"/>
        <pt x="750" y="207" on="1"/>
        <pt x="633" y="207" on="0"/>
        <pt x="559" y="290" on="1"/>
        <pt x="485" y="375" on="0"/>
        <pt x="485" y="667" on="0"/>
        <pt x="633" y="944" on="0"/>
        <pt x="877" y="1090" on="0"/>
        <pt x="1188" y="1090" on="0"/>
        <pt x="1368" y="1020" on="1"/>
        <pt x="1268" y="606" on="1"/>
        <pt x="1245" y="509" on="0"/>
        <pt x="1245" y="428" on="0"/>
        <pt x="1284" y="428" on="1"/>
        <pt x="1287" y="428" on="0"/>
        <pt x="1289" y="428" on="1"/>
        <pt x="1382" y="428" on="0"/>
        <pt x="1511" y="647" on="0"/>
        <pt x="1511" y="816" on="1"/>
        <pt x="1511" y="818" on="0"/>
        <pt x="1511" y="821" on="1"/>
        <pt x="1511" y="1033" on="0"/>
        <pt x="1245" y="1253" on="0"/>
        <pt x="995" y="1253" on="1"/>
        <pt x="809" y="1253" on="0"/>
        <pt x="508" y="1069" on="0"/>
        <pt x="344" y="738" on="0"/>
        <pt x="344" y="524" on="1"/>
        <pt x="344" y="519" on="0"/>
        <pt x="344" y="514" on="1"/>
        <pt x="344" y="307" on="0"/>
        <pt x="585" y="43" on="0"/>
        <pt x="770" y="43" on="1"/>
        <pt x="773" y="43" on="0"/>
        <pt x="776" y="43" on="1"/>
        <pt x="880" y="43" on="0"/>
        <pt x="1144" y="93" on="0"/>
        <pt x="1255" y="137" on="1"/>
        <pt x="1255" y="-88" on="1"/>
        <pt x="1167" y="-130" on="0"/>
        <pt x="900" y="-186" on="0"/>
      </contour>
      <contour>
        <pt x="1012" y="868" on="1"/>
        <pt x="938" y="868" on="0"/>
        <pt x="828" y="774" on="0"/>
        <pt x="764" y="612" on="0"/>
        <pt x="764" y="532" on="1"/>
        <pt x="764" y="428" on="0"/>
        <pt x="842" y="428" on="1"/>
        <pt x="904" y="428" on="0"/>
        <pt x="980" y="532" on="0"/>
        <pt x="1016" y="668" on="1"/>
        <pt x="1063" y="858" on="1"/>
        <pt x="1042" y="868" on="0"/>
      </contour>
    </TTGlyph>
    <TTGlyph name="atilde" xMin="84" yMin="-20" xMax="1221" yMax="1581">
      <contour>
        <pt x="878" y="1239" on="1"/>
        <pt x="812" y="1239" on="0"/>
        <pt x="713" y="1292" on="1"/>
        <pt x="639" y="1337" on="0"/>
        <pt x="586" y="1337" on="1"/>
        <pt x="554" y="1337" on="0"/>
        <pt x="495" y="1281" on="0"/>
        <pt x="489" y="1237" on="1"/>
        <pt x="301" y="1237" on="1"/>
        <pt x="333" y="1410" on="0"/>
        <pt x="487" y="1579" on="0"/>
        <pt x="614" y="1579" on="1"/>
        <pt x="649" y="1579" on="0"/>
        <pt x="699" y="1566" on="0"/>
        <pt x="768" y="1530" on="1"/>
        <pt x="855" y="1481" on="0"/>
        <pt x="901" y="1481" on="1"/>
        <pt x="979" y="1481" on="0"/>
        <pt x="1016" y="1581" on="1"/>
        <pt x="1206" y="1581" on="1"/>
        <pt x="1172" y="1408" on="0"/>
        <pt x="1014" y="1239" on="0"/>
        <pt x="885" y="1239" on="1"/>
        <pt x="882" y="1239" on="0"/>
      </contour>
      <contour>
        <pt x="406" y="-20" on="1"/>
        <pt x="248" y="-20" on="0"/>
        <pt x="84" y="202" on="0"/>
        <pt x="84" y="412" on="1"/>
        <pt x="84" y="592" on="0"/>
        <pt x="229" y="961" on="0"/>
        <pt x="452" y="1153" on="0"/>
        <pt x="588" y="1153" on="1"/>
        <pt x="673" y="1153" on="0"/>
        <pt x="800" y="1077" on="0"/>
        <pt x="850" y="993" on="1"/>
        <pt x="858" y="993" on="1"/>
        <pt x="911" y="1133" on="1"/>
        <pt x="1221" y="1133" on="1"/>
        <pt x="981" y="0" on="1"/>
        <pt x="672" y="0" on="1"/>
        <pt x="682" y="123" on="1"/>
        <pt x="674" y="123" on="1"/>
        <pt x="619" y="47" on="0"/>
        <pt x="490" y="-20" on="0"/>
      </contour>
      <contour>
        <pt x="565" y="291" on="1"/>
        <pt x="615" y="291" on="0"/>
        <pt x="705" y="406" on="0"/>
        <pt x="760" y="604" on="0"/>
        <pt x="760" y="684" on="1"/>
        <pt x="760" y="842" on="0"/>
        <pt x="678" y="842" on="1"/>
        <pt x="601" y="842" on="0"/>
        <pt x="479" y="590" on="0"/>
        <pt x="479" y="291" on="0"/>
      </contour>
    </TTGlyph>
    <TTGlyph name="b" xMin="23" yMin="-20" xMax="1159" yMax="1556">
      <contour>
        <pt x="838" y="1153" on="1"/>
        <pt x="993" y="1153" on="0"/>
        <pt x="1159" y="930" on="0"/>
        <pt x="1159" y="721" on="1"/>
        <pt x="1159" y="545" on="0"/>
        <pt x="1018" y="176" on="0"/>
        <pt x="795" y="-20" on="0"/>
        <pt x="657" y="-20" on="1"/>
        <pt x="574" y="-20" on="0"/>
        <pt x="450" y="44" on="0"/>
        <pt x="387" y="125" on="1"/>
        <pt x="379" y="125" on="1"/>
        <pt x="330" y="0" on="1"/>
        <pt x="23" y="0" on="1"/>
        <pt x="352" y="1556" on="1"/>
        <pt x="739" y="1556" on="1"/>
        <pt x="690" y="1325" on="1"/>
        <pt x="653" y="1151" on="0"/>
        <pt x="600" y="1024" on="1"/>
        <pt x="608" y="1024" on="1"/>
        <pt x="655" y="1081" on="0"/>
        <pt x="685" y="1105" on="1"/>
        <pt x="747" y="1153" on="0"/>
      </contour>
      <contour>
        <pt x="678" y="842" on="1"/>
        <pt x="628" y="842" on="0"/>
        <pt x="538" y="728" on="0"/>
        <pt x="485" y="532" on="0"/>
        <pt x="485" y="434" on="1"/>
        <pt x="485" y="291" on="0"/>
        <pt x="563" y="291" on="1"/>
        <pt x="612" y="291" on="0"/>
        <pt x="707" y="410" on="0"/>
        <pt x="764" y="605" on="0"/>
        <pt x="764" y="698" on="1"/>
        <pt x="764" y="842" on="0"/>
      </contour>
    </TTGlyph>
    <TTGlyph name="backslash" xMin="221" yMin="-20" xMax="778" yMax="1483">
      <contour>
        <pt x="778" y="-20" on="1"/>
        <pt x="459" y="-20" on="1"/>
        <pt x="221" y="1483" on="1"/>
        <pt x="530" y="1483" on="1"/>
      </contour>
    </TTGlyph>
    <TTGlyph name="bar" xMin="442" yMin="-465" xMax="713" yMax="1548">
      <contour>
        <pt x="713" y="1548" on="1"/>
        <pt x="713" y="-465" on="1"/>
        <pt x="442" y="-465" on="1"/>
        <pt x="442" y="1548" on="1"/>
      </contour>
    </TTGlyph>
    <TTGlyph name="betdageshhb" xMin="-58" yMin="0" xMax="1092" yMax="1315">
      <contour>
        <pt x="1016" y="1220" on="1"/>
        <pt x="1050" y="1188" on="0"/>
        <pt x="1085" y="1115" on="0"/>
        <pt x="1090" y="1043" on="0"/>
        <pt x="1090" y="1017" on="1"/>
        <pt x="1090" y="949" on="0"/>
        <pt x="1066" y="839" on="1"/>
        <pt x="951" y="299" on="1"/>
        <pt x="1092" y="299" on="1"/>
        <pt x="1028" y="0" on="1"/>
        <pt x="-58" y="0" on="1"/>
        <pt x="6" y="299" on="1"/>
        <pt x="563" y="299" on="1"/>
        <pt x="674" y="822" on="1"/>
        <pt x="681" y="855" on="0"/>
        <pt x="681" y="883" on="1"/>
        <pt x="681" y="1015" on="0"/>
        <pt x="518" y="1015" on="1"/>
        <pt x="393" y="1015" on="0"/>
        <pt x="216" y="998" on="1"/>
        <pt x="153" y="992" on="1"/>
        <pt x="216" y="1289" on="1"/>
        <pt x="343" y="1315" on="0"/>
        <pt x="915" y="1315" on="0"/>
      </contour>
      <contour>
        <pt x="328" y="737" on="1"/>
        <pt x="358" y="760" on="0"/>
        <pt x="445" y="760" on="0"/>
        <pt x="481" y="719" on="0"/>
        <pt x="481" y="701" on="1"/>
        <pt x="481" y="642" on="0"/>
        <pt x="440" y="610" on="1"/>
        <pt x="409" y="587" on="0"/>
        <pt x="321" y="587" on="0"/>
        <pt x="287" y="625" on="0"/>
        <pt x="287" y="643" on="1"/>
        <pt x="287" y="706" on="0"/>
      </contour>
    </TTGlyph>
    <TTGlyph name="braceleft" xMin="-16" yMin="-324" xMax="883" yMax="1462">
      <contour>
        <pt x="432" y="45" on="1"/>
        <pt x="432" y="-43" on="0"/>
        <pt x="545" y="-43" on="1"/>
        <pt x="545" y="-324" on="1"/>
        <pt x="463" y="-324" on="1"/>
        <pt x="280" y="-324" on="0"/>
        <pt x="102" y="-187" on="0"/>
        <pt x="102" y="-47" on="1"/>
        <pt x="102" y="16" on="0"/>
        <pt x="117" y="80" on="1"/>
        <pt x="154" y="254" on="1"/>
        <pt x="160" y="278" on="0"/>
        <pt x="160" y="297" on="1"/>
        <pt x="160" y="371" on="0"/>
        <pt x="77" y="434" on="0"/>
        <pt x="-16" y="434" on="1"/>
        <pt x="37" y="721" on="1"/>
        <pt x="156" y="721" on="0"/>
        <pt x="268" y="798" on="0"/>
        <pt x="289" y="893" on="1"/>
        <pt x="344" y="1139" on="1"/>
        <pt x="373" y="1264" on="0"/>
        <pt x="420" y="1329" on="1"/>
        <pt x="518" y="1462" on="0"/>
        <pt x="754" y="1462" on="1"/>
        <pt x="883" y="1462" on="1"/>
        <pt x="821" y="1182" on="1"/>
        <pt x="739" y="1180" on="0"/>
        <pt x="662" y="1124" on="0"/>
        <pt x="645" y="1053" on="1"/>
        <pt x="592" y="795" on="1"/>
        <pt x="571" y="697" on="0"/>
        <pt x="439" y="588" on="0"/>
        <pt x="313" y="573" on="1"/>
        <pt x="313" y="565" on="1"/>
        <pt x="483" y="510" on="0"/>
        <pt x="483" y="332" on="1"/>
        <pt x="483" y="312" on="0"/>
        <pt x="473" y="258" on="1"/>
        <pt x="438" y="94" on="1"/>
        <pt x="432" y="64" on="0"/>
      </contour>
    </TTGlyph>
    <TTGlyph name="braceright" xMin="-123" yMin="-324" xMax="748" yMax="1462">
      <contour>
        <pt x="-123" y="-324" on="1"/>
        <pt x="-123" y="-43" on="1"/>
        <pt x="-52" y="-40" on="0"/>
        <pt x="22" y="-18" on="0"/>
        <pt x="58" y="26" on="0"/>
        <pt x="70" y="86" on="1"/>
        <pt x="123" y="344" on="1"/>
        <pt x="144" y="444" on="0"/>
        <pt x="279" y="553" on="0"/>
        <pt x="401" y="565" on="1"/>
        <pt x="401" y="573" on="1"/>
        <pt x="231" y="629" on="0"/>
        <pt x="231" y="807" on="1"/>
        <pt x="231" y="817" on="0"/>
        <pt x="242" y="881" on="1"/>
        <pt x="276" y="1044" on="1"/>
        <pt x="283" y="1071" on="0"/>
        <pt x="283" y="1094" on="1"/>
        <pt x="283" y="1182" on="0"/>
        <pt x="147" y="1182" on="1"/>
        <pt x="201" y="1462" on="1"/>
        <pt x="262" y="1462" on="1"/>
        <pt x="430" y="1462" on="0"/>
        <pt x="612" y="1320" on="0"/>
        <pt x="612" y="1188" on="1"/>
        <pt x="612" y="1121" on="0"/>
        <pt x="598" y="1059" on="1"/>
        <pt x="561" y="885" on="1"/>
        <pt x="555" y="860" on="0"/>
        <pt x="555" y="842" on="1"/>
        <pt x="555" y="774" on="0"/>
        <pt x="646" y="707" on="0"/>
        <pt x="748" y="707" on="1"/>
        <pt x="690" y="420" on="1"/>
        <pt x="569" y="420" on="0"/>
        <pt x="446" y="339" on="0"/>
        <pt x="426" y="246" on="1"/>
        <pt x="371" y="0" on="1"/>
        <pt x="334" y="-170" on="0"/>
        <pt x="132" y="-324" on="0"/>
        <pt x="-49" y="-324" on="1"/>
      </contour>
    </TTGlyph>
    <TTGlyph name="bracketleft" xMin="-53" yMin="-344" xMax="870" yMax="1503">
      <contour>
        <pt x="-53" y="-344" on="1"/>
        <pt x="340" y="1503" on="1"/>
        <pt x="870" y="1503" on="1"/>
        <pt x="815" y="1249" on="1"/>
        <pt x="600" y="1249" on="1"/>
        <pt x="315" y="-90" on="1"/>
        <pt x="530" y="-90" on="1"/>
        <pt x="477" y="-344" on="1"/>
      </contour>
    </TTGlyph>
    <TTGlyph name="bracketright" xMin="-133" yMin="-344" xMax="786" yMax="1503">
      <contour>
        <pt x="133" y="-90" on="1"/>
        <pt x="418" y="1249" on="1"/>
        <pt x="203" y="1249" on="1"/>
        <pt x="258" y="1503" on="1"/>
        <pt x="786" y="1503" on="1"/>
        <pt x="393" y="-344" on="1"/>
        <pt x="-133" y="-344" on="1"/>
        <pt x="-80" y="-90" on="1"/>
      </contour>
    </TTGlyph>
    <TTGlyph name="breve" xMin="399" yMin="1241" xMax="1210" yMax="1612">
      <contour>
        <pt x="756" y="1241" on="1"/>
        <pt x="589" y="1241" on="0"/>
        <pt x="399" y="1408" on="0"/>
        <pt x="399" y="1556" on="1"/>
        <pt x="399" y="1594" on="0"/>
        <pt x="408" y="1612" on="1"/>
        <pt x="625" y="1612" on="1"/>
        <pt x="625" y="1548" on="0"/>
        <pt x="712" y="1483" on="0"/>
        <pt x="788" y="1483" on="1"/>
        <pt x="947" y="1483" on="0"/>
        <pt x="989" y="1612" on="1"/>
        <pt x="1210" y="1612" on="1"/>
        <pt x="1179" y="1424" on="0"/>
        <pt x="955" y="1241" on="0"/>
      </contour>
    </TTGlyph>
    <TTGlyph name="bullet" xMin="86" yMin="389" xMax="762" yMax="1106">
      <contour>
        <pt x="86" y="695" on="1"/>
        <pt x="86" y="869" on="0"/>
        <pt x="296" y="1106" on="0"/>
        <pt x="456" y="1106" on="1"/>
        <pt x="462" y="1106" on="0"/>
        <pt x="467" y="1106" on="1"/>
        <pt x="614" y="1106" on="0"/>
        <pt x="762" y="952" on="0"/>
        <pt x="762" y="805" on="1"/>
        <pt x="762" y="611" on="0"/>
        <pt x="660" y="500" on="1"/>
        <pt x="560" y="389" on="0"/>
        <pt x="379" y="389" on="1"/>
        <pt x="242" y="389" on="0"/>
        <pt x="86" y="548" on="0"/>
        <pt x="86" y="688" on="1"/>
        <pt x="86" y="691" on="0"/>
      </contour>
    </TTGlyph>
    <TTGlyph name="c" xMin="84" yMin="-20" xMax="1057" yMax="1153">
      <contour>
        <pt x="881" y="70" on="1"/>
        <pt x="718" y="-20" on="0"/>
        <pt x="308" y="-20" on="0"/>
        <pt x="195" y="100" on="1"/>
        <pt x="84" y="222" on="0"/>
        <pt x="84" y="644" on="0"/>
        <pt x="236" y="969" on="0"/>
        <pt x="375" y="1061" on="1"/>
        <pt x="515" y="1153" on="0"/>
        <pt x="883" y="1153" on="0"/>
        <pt x="1057" y="1073" on="1"/>
        <pt x="934" y="786" on="1"/>
        <pt x="800" y="846" on="0"/>
        <pt x="709" y="846" on="1"/>
        <pt x="646" y="846" on="0"/>
        <pt x="542" y="750" on="0"/>
        <pt x="473" y="561" on="0"/>
        <pt x="473" y="376" on="0"/>
        <pt x="533" y="291" on="0"/>
        <pt x="598" y="291" on="1"/>
        <pt x="717" y="291" on="0"/>
        <pt x="881" y="377" on="1"/>
      </contour>
    </TTGlyph>
    <TTGlyph name="caron" xMin="322" yMin="1241" xMax="1257" yMax="1569">
      <contour>
        <pt x="322" y="1569" on="1"/>
        <pt x="588" y="1569" on="1"/>
        <pt x="628" y="1534" on="0"/>
        <pt x="743" y="1395" on="1"/>
        <pt x="882" y="1504" on="0"/>
        <pt x="983" y="1569" on="1"/>
        <pt x="1257" y="1569" on="1"/>
        <pt x="1257" y="1546" on="1"/>
        <pt x="1124" y="1434" on="0"/>
        <pt x="948" y="1241" on="1"/>
        <pt x="502" y="1241" on="1"/>
        <pt x="468" y="1316" on="0"/>
        <pt x="360" y="1497" on="0"/>
        <pt x="322" y="1546" on="1"/>
      </contour>
    </TTGlyph>
    <TTGlyph name="ccedilla" xMin="84" yMin="-492" xMax="1057" yMax="1153">
      <contour>
        <pt x="709" y="846" on="1"/>
        <pt x="646" y="846" on="0"/>
        <pt x="542" y="750" on="0"/>
        <pt x="473" y="561" on="0"/>
        <pt x="473" y="376" on="0"/>
        <pt x="533" y="291" on="0"/>
        <pt x="598" y="291" on="1"/>
        <pt x="717" y="291" on="0"/>
        <pt x="881" y="377" on="1"/>
        <pt x="881" y="70" on="1"/>
        <pt x="722" y="-17" on="0"/>
        <pt x="518" y="-20" on="1"/>
        <pt x="506" y="-41" on="1"/>
        <pt x="684" y="-78" on="0"/>
        <pt x="684" y="-236" on="1"/>
        <pt x="684" y="-357" on="0"/>
        <pt x="518" y="-492" on="0"/>
        <pt x="368" y="-492" on="1"/>
        <pt x="254" y="-492" on="0"/>
        <pt x="176" y="-463" on="1"/>
        <pt x="176" y="-258" on="1"/>
        <pt x="207" y="-267" on="0"/>
        <pt x="303" y="-285" on="0"/>
        <pt x="327" y="-285" on="1"/>
        <pt x="395" y="-285" on="0"/>
        <pt x="395" y="-236" on="1"/>
        <pt x="395" y="-163" on="0"/>
        <pt x="250" y="-135" on="1"/>
        <pt x="325" y="0" on="1"/>
        <pt x="358" y="0" on="1"/>
        <pt x="262" y="29" on="0"/>
        <pt x="195" y="100" on="1"/>
        <pt x="84" y="222" on="0"/>
        <pt x="84" y="644" on="0"/>
        <pt x="236" y="969" on="0"/>
        <pt x="375" y="1061" on="1"/>
        <pt x="515" y="1153" on="0"/>
        <pt x="883" y="1153" on="0"/>
        <pt x="1057" y="1073" on="1"/>
        <pt x="934" y="786" on="1"/>
        <pt x="800" y="846" on="0"/>
      </contour>
    </TTGlyph>
    <TTGlyph name="cedilla" xMin="-221" yMin="-492" xMax="287" yMax="0">
      <contour>
        <pt x="287" y="-236" on="1"/>
        <pt x="287" y="-357" on="0"/>
        <pt x="121" y="-492" on="0"/>
        <pt x="-29" y="-492" on="1"/>
        <pt x="-143" y="-492" on="0"/>
        <pt x="-221" y="-463" on="1"/>
        <pt x="-221" y="-258" on="1"/>
        <pt x="-190" y="-267" on="0"/>
        <pt x="-94" y="-285" on="0"/>
        <pt x="-70" y="-285" on="1"/>
        <pt x="-2" y="-285" on="0"/>
        <pt x="-2" y="-236" on="1"/>
        <pt x="-2" y="-163" on="0"/>
        <pt x="-147" y="-135" on="1"/>
        <pt x="-72" y="0" on="1"/>
        <pt x="133" y="0" on="1"/>
        <pt x="109" y="-41" on="1"/>
        <pt x="287" y="-78" on="0"/>
      </contour>
    </TTGlyph>
    <TTGlyph name="cent" xMin="154" yMin="-20" xMax="1126" yMax="1483">
      <contour>
        <pt x="154" y="586" on="1"/>
        <pt x="154" y="891" on="0"/>
        <pt x="294" y="1096" on="1"/>
        <pt x="435" y="1301" on="0"/>
        <pt x="666" y="1335" on="1"/>
        <pt x="698" y="1483" on="1"/>
        <pt x="928" y="1483" on="1"/>
        <pt x="895" y="1333" on="1"/>
        <pt x="1018" y="1313" on="0"/>
        <pt x="1126" y="1257" on="1"/>
        <pt x="1004" y="971" on="1"/>
        <pt x="924" y="1009" on="0"/>
        <pt x="824" y="1030" on="0"/>
        <pt x="778" y="1030" on="1"/>
        <pt x="716" y="1030" on="0"/>
        <pt x="610" y="930" on="0"/>
        <pt x="547" y="735" on="0"/>
        <pt x="547" y="627" on="1"/>
        <pt x="547" y="550" on="0"/>
        <pt x="607" y="479" on="0"/>
        <pt x="668" y="479" on="1"/>
        <pt x="782" y="479" on="0"/>
        <pt x="950" y="569" on="1"/>
        <pt x="950" y="258" on="1"/>
        <pt x="804" y="180" on="0"/>
        <pt x="643" y="168" on="1"/>
        <pt x="602" y="-20" on="1"/>
        <pt x="373" y="-20" on="1"/>
        <pt x="424" y="188" on="1"/>
        <pt x="154" y="261" on="0"/>
      </contour>
    </TTGlyph>
    <TTGlyph name="circumflex" xMin="254" yMin="1241" xMax="1190" yMax="1569">
      <contour>
        <pt x="1190" y="1241" on="1"/>
        <pt x="924" y="1241" on="1"/>
        <pt x="878" y="1282" on="0"/>
        <pt x="768" y="1415" on="1"/>
        <pt x="628" y="1306" on="0"/>
        <pt x="528" y="1241" on="1"/>
        <pt x="254" y="1241" on="1"/>
        <pt x="254" y="1264" on="1"/>
        <pt x="321" y="1325" on="0"/>
        <pt x="520" y="1522" on="0"/>
        <pt x="563" y="1569" on="1"/>
        <pt x="1010" y="1569" on="1"/>
        <pt x="1036" y="1510" on="0"/>
        <pt x="1142" y="1327" on="0"/>
        <pt x="1190" y="1264" on="1"/>
      </contour>
    </TTGlyph>
    <TTGlyph name="colon" xMin="0" yMin="-25" xMax="618" yMax="1147">
      <contour>
        <pt x="195" y="915" on="1"/>
        <pt x="195" y="1024" on="0"/>
        <pt x="324" y="1147" on="0"/>
        <pt x="436" y="1147" on="1"/>
        <pt x="521" y="1147" on="0"/>
        <pt x="618" y="1069" on="0"/>
        <pt x="618" y="993" on="1"/>
        <pt x="618" y="873" on="0"/>
        <pt x="500" y="762" on="0"/>
        <pt x="369" y="762" on="1"/>
        <pt x="288" y="762" on="0"/>
        <pt x="195" y="839" on="0"/>
      </contour>
      <contour>
        <pt x="0" y="127" on="1"/>
        <pt x="0" y="236" on="0"/>
        <pt x="130" y="360" on="0"/>
        <pt x="244" y="360" on="1"/>
        <pt x="329" y="360" on="0"/>
        <pt x="424" y="279" on="0"/>
        <pt x="424" y="205" on="1"/>
        <pt x="424" y="87" on="0"/>
        <pt x="303" y="-25" on="0"/>
        <pt x="174" y="-25" on="1"/>
        <pt x="93" y="-25" on="0"/>
        <pt x="0" y="51" on="0"/>
      </contour>
    </TTGlyph>
    <TTGlyph name="comma" xMin="-104" yMin="-264" xMax="440" yMax="238">
      <contour>
        <pt x="432" y="238" on="1"/>
        <pt x="440" y="215" on="1"/>
        <pt x="328" y="-39" on="0"/>
        <pt x="184" y="-264" on="1"/>
        <pt x="-104" y="-264" on="1"/>
        <pt x="-52" y="-142" on="0"/>
        <pt x="43" y="123" on="1"/>
        <pt x="84" y="238" on="1"/>
      </contour>
    </TTGlyph>
    <TTGlyph name="copyright" xMin="113" yMin="-20" xMax="1616" yMax="1483">
      <contour>
        <pt x="211" y="359" on="1"/>
        <pt x="113" y="534" on="0"/>
        <pt x="113" y="933" on="0"/>
        <pt x="214" y="1109" on="1"/>
        <pt x="316" y="1285" on="0"/>
        <pt x="664" y="1483" on="0"/>
        <pt x="1064" y="1483" on="0"/>
        <pt x="1415" y="1282" on="0"/>
        <pt x="1616" y="932" on="0"/>
        <pt x="1616" y="533" on="0"/>
        <pt x="1420" y="186" on="0"/>
        <pt x="1071" y="-20" on="0"/>
        <pt x="658" y="-20" on="0"/>
        <pt x="484" y="82" on="1"/>
        <pt x="310" y="186" on="0"/>
      </contour>
      <contour>
        <pt x="1158" y="1240" on="1"/>
        <pt x="1022" y="1319" on="0"/>
        <pt x="707" y="1319" on="0"/>
        <pt x="430" y="1159" on="0"/>
        <pt x="276" y="887" on="0"/>
        <pt x="276" y="574" on="0"/>
        <pt x="433" y="301" on="0"/>
        <pt x="705" y="143" on="0"/>
        <pt x="1020" y="143" on="0"/>
        <pt x="1292" y="297" on="0"/>
        <pt x="1452" y="571" on="0"/>
        <pt x="1452" y="889" on="0"/>
        <pt x="1373" y="1025" on="1"/>
        <pt x="1295" y="1162" on="0"/>
      </contour>
      <contour>
        <pt x="913" y="971" on="1"/>
        <pt x="832" y="971" on="0"/>
        <pt x="741" y="847" on="0"/>
        <pt x="741" y="604" on="0"/>
        <pt x="828" y="489" on="0"/>
        <pt x="920" y="489" on="1"/>
        <pt x="1057" y="489" on="0"/>
        <pt x="1178" y="557" on="1"/>
        <pt x="1178" y="326" on="1"/>
        <pt x="1053" y="262" on="0"/>
        <pt x="905" y="262" on="1"/>
        <pt x="692" y="262" on="0"/>
        <pt x="461" y="511" on="0"/>
        <pt x="461" y="954" on="0"/>
        <pt x="574" y="1076" on="1"/>
        <pt x="688" y="1198" on="0"/>
        <pt x="895" y="1198" on="1"/>
        <pt x="1062" y="1198" on="0"/>
        <pt x="1227" y="1116" on="1"/>
        <pt x="1135" y="911" on="1"/>
        <pt x="1021" y="971" on="0"/>
      </contour>
    </TTGlyph>
    <TTGlyph name="d" xMin="84" yMin="-20" xMax="1311" yMax="1556">
      <contour>
        <pt x="406" y="-20" on="1"/>
        <pt x="248" y="-20" on="0"/>
        <pt x="84" y="202" on="0"/>
        <pt x="84" y="412" on="1"/>
        <pt x="84" y="589" on="0"/>
        <pt x="226" y="959" on="0"/>
        <pt x="450" y="1153" on="0"/>
        <pt x="586" y="1153" on="1"/>
        <pt x="662" y="1153" on="0"/>
        <pt x="712" y="1122" on="1"/>
        <pt x="764" y="1092" on="0"/>
        <pt x="823" y="1001" on="1"/>
        <pt x="831" y="1001" on="1"/>
        <pt x="833" y="1038" on="1"/>
        <pt x="841" y="1178" on="0"/>
        <pt x="858" y="1255" on="1"/>
        <pt x="920" y="1556" on="1"/>
        <pt x="1311" y="1556" on="1"/>
        <pt x="981" y="0" on="1"/>
        <pt x="672" y="0" on="1"/>
        <pt x="682" y="123" on="1"/>
        <pt x="674" y="123" on="1"/>
        <pt x="618" y="46" on="0"/>
        <pt x="492" y="-20" on="0"/>
      </contour>
      <contour>
        <pt x="565" y="291" on="1"/>
        <pt x="615" y="291" on="0"/>
        <pt x="705" y="406" on="0"/>
        <pt x="760" y="604" on="0"/>
        <pt x="760" y="698" on="1"/>
        <pt x="760" y="842" on="0"/>
        <pt x="680" y="842" on="1"/>
        <pt x="631" y="842" on="0"/>
        <pt x="536" y="723" on="0"/>
        <pt x="479" y="529" on="0"/>
        <pt x="479" y="434" on="1"/>
        <pt x="479" y="291" on="0"/>
      </contour>
    </TTGlyph>
    <TTGlyph name="dagger" xMin="182" yMin="0" xMax="1090" yMax="1556">
      <contour>
        <pt x="717" y="913" on="1"/>
        <pt x="575" y="0" on="1"/>
        <pt x="242" y="0" on="1"/>
        <pt x="487" y="909" on="1"/>
        <pt x="182" y="883" on="1"/>
        <pt x="244" y="1169" on="1"/>
        <pt x="541" y="1143" on="1"/>
        <pt x="573" y="1556" on="1"/>
        <pt x="907" y="1556" on="1"/>
        <pt x="766" y="1143" on="1"/>
        <pt x="840" y="1149" on="1"/>
        <pt x="1008" y="1160" on="0"/>
        <pt x="1090" y="1169" on="1"/>
        <pt x="1026" y="883" on="1"/>
      </contour>
    </TTGlyph>
    <TTGlyph name="daggerdbl" xMin="47" yMin="0" xMax="1094" yMax="1556">
      <contour>
        <pt x="731" y="786" on="1"/>
        <pt x="647" y="606" on="1"/>
        <pt x="759" y="619" on="0"/>
        <pt x="867" y="622" on="0"/>
        <pt x="969" y="633" on="1"/>
        <pt x="909" y="346" on="1"/>
        <pt x="598" y="373" on="1"/>
        <pt x="586" y="185" on="1"/>
        <pt x="571" y="0" on="1"/>
        <pt x="238" y="0" on="1"/>
        <pt x="371" y="373" on="1"/>
        <pt x="170" y="358" on="1"/>
        <pt x="47" y="346" on="1"/>
        <pt x="109" y="633" on="1"/>
        <pt x="420" y="606" on="1"/>
        <pt x="414" y="786" on="1"/>
        <pt x="496" y="950" on="1"/>
        <pt x="172" y="924" on="1"/>
        <pt x="231" y="1210" on="1"/>
        <pt x="543" y="1184" on="1"/>
        <pt x="569" y="1556" on="1"/>
        <pt x="903" y="1556" on="1"/>
        <pt x="770" y="1184" on="1"/>
        <pt x="933" y="1196" on="1"/>
        <pt x="1094" y="1210" on="1"/>
        <pt x="1032" y="924" on="1"/>
        <pt x="723" y="950" on="1"/>
      </contour>
    </TTGlyph>
    <TTGlyph name="daletdageshhb" xMin="105" yMin="0" xMax="1254" yMax="1295">
      <contour>
        <pt x="1254" y="1295" on="1"/>
        <pt x="1195" y="1021" on="1"/>
        <pt x="1089" y="983" on="0"/>
        <pt x="998" y="886" on="0"/>
        <pt x="975" y="779" on="1"/>
        <pt x="809" y="0" on="1"/>
        <pt x="421" y="0" on="1"/>
        <pt x="588" y="786" on="1"/>
        <pt x="617" y="918" on="0"/>
        <pt x="726" y="996" on="1"/>
        <pt x="105" y="996" on="1"/>
        <pt x="169" y="1295" on="1"/>
      </contour>
      <contour>
        <pt x="234" y="737" on="1"/>
        <pt x="264" y="760" on="0"/>
        <pt x="351" y="760" on="0"/>
        <pt x="387" y="719" on="0"/>
        <pt x="387" y="701" on="1"/>
        <pt x="387" y="642" on="0"/>
        <pt x="346" y="610" on="1"/>
        <pt x="315" y="587" on="0"/>
        <pt x="227" y="587" on="0"/>
        <pt x="193" y="625" on="0"/>
        <pt x="193" y="643" on="1"/>
        <pt x="193" y="706" on="0"/>
      </contour>
    </TTGlyph>
    <TTGlyph name="degree" xMin="166" yMin="750" xMax="903" yMax="1483">
      <contour>
        <pt x="166" y="1125" on="1"/>
        <pt x="166" y="1214" on="0"/>
        <pt x="264" y="1382" on="0"/>
        <pt x="435" y="1483" on="0"/>
        <pt x="528" y="1483" on="1"/>
        <pt x="531" y="1483" on="0"/>
        <pt x="535" y="1483" on="1"/>
        <pt x="633" y="1483" on="0"/>
        <pt x="804" y="1384" on="0"/>
        <pt x="903" y="1211" on="0"/>
        <pt x="903" y="1017" on="0"/>
        <pt x="804" y="846" on="0"/>
        <pt x="632" y="750" on="0"/>
        <pt x="535" y="750" on="1"/>
        <pt x="531" y="750" on="0"/>
        <pt x="528" y="750" on="1"/>
        <pt x="435" y="750" on="0"/>
        <pt x="265" y="848" on="0"/>
        <pt x="166" y="1013" on="0"/>
        <pt x="166" y="1103" on="1"/>
        <pt x="166" y="1109" on="0"/>
        <pt x="166" y="1119" on="0"/>
      </contour>
      <contour>
        <pt x="590" y="1247" on="0"/>
        <pt x="480" y="1247" on="0"/>
        <pt x="403" y="1167" on="0"/>
        <pt x="403" y="1062" on="0"/>
        <pt x="483" y="987" on="0"/>
        <pt x="586" y="987" on="0"/>
        <pt x="666" y="1062" on="0"/>
        <pt x="666" y="1166" on="0"/>
      </contour>
    </TTGlyph>
    <TTGlyph name="dieresis" xMin="336" yMin="1257" xMax="1192" yMax="1571">
      <contour>
        <pt x="336" y="1384" on="1"/>
        <pt x="336" y="1571" on="0"/>
        <pt x="537" y="1571" on="1"/>
        <pt x="707" y="1571" on="0"/>
        <pt x="707" y="1446" on="1"/>
        <pt x="707" y="1257" on="0"/>
        <pt x="506" y="1257" on="1"/>
        <pt x="418" y="1257" on="0"/>
        <pt x="336" y="1319" on="0"/>
      </contour>
      <contour>
        <pt x="823" y="1384" on="1"/>
        <pt x="823" y="1571" on="0"/>
        <pt x="1024" y="1571" on="1"/>
        <pt x="1192" y="1571" on="0"/>
        <pt x="1192" y="1446" on="1"/>
        <pt x="1192" y="1257" on="0"/>
        <pt x="993" y="1257" on="1"/>
        <pt x="905" y="1257" on="0"/>
        <pt x="823" y="1319" on="0"/>
      </contour>
    </TTGlyph>
    <TTGlyph name="divide" xMin="102" yMin="201" xMax="1077" yMax="1243">
      <contour>
        <pt x="516" y="899" on="0"/>
        <pt x="432" y="991" on="0"/>
        <pt x="432" y="1154" on="0"/>
        <pt x="514" y="1243" on="0"/>
        <pt x="664" y="1243" on="0"/>
        <pt x="745" y="1154" on="0"/>
        <pt x="745" y="990" on="0"/>
        <pt x="662" y="899" on="0"/>
      </contour>
      <contour>
        <pt x="102" y="858" on="1"/>
        <pt x="1077" y="858" on="1"/>
        <pt x="1077" y="586" on="1"/>
        <pt x="102" y="586" on="1"/>
      </contour>
      <contour>
        <pt x="516" y="201" on="0"/>
        <pt x="432" y="293" on="0"/>
        <pt x="432" y="456" on="0"/>
        <pt x="514" y="545" on="0"/>
        <pt x="664" y="545" on="0"/>
        <pt x="745" y="456" on="0"/>
        <pt x="745" y="292" on="0"/>
        <pt x="662" y="201" on="0"/>
      </contour>
    </TTGlyph>
    <TTGlyph name="dollar" xMin="61" yMin="-121" xMax="1176" yMax="1556">
      <contour>
        <pt x="741" y="1130" on="1"/>
        <pt x="677" y="1130" on="0"/>
        <pt x="600" y="1075" on="0"/>
        <pt x="600" y="982" on="0"/>
        <pt x="676" y="910" on="0"/>
        <pt x="938" y="781" on="0"/>
        <pt x="1067" y="606" on="0"/>
        <pt x="1067" y="481" on="1"/>
        <pt x="1067" y="303" on="0"/>
        <pt x="802" y="80" on="0"/>
        <pt x="573" y="66" on="1"/>
        <pt x="535" y="-121" on="1"/>
        <pt x="367" y="-121" on="1"/>
        <pt x="408" y="70" on="1"/>
        <pt x="185" y="87" on="0"/>
        <pt x="61" y="162" on="1"/>
        <pt x="61" y="473" on="1"/>
        <pt x="301" y="360" on="0"/>
        <pt x="492" y="360" on="1"/>
        <pt x="666" y="360" on="0"/>
        <pt x="666" y="465" on="1"/>
        <pt x="666" y="506" on="0"/>
        <pt x="633" y="537" on="1"/>
        <pt x="602" y="569" on="0"/>
        <pt x="494" y="621" on="1"/>
        <pt x="354" y="684" on="0"/>
        <pt x="205" y="880" on="0"/>
        <pt x="205" y="1008" on="1"/>
        <pt x="205" y="1184" on="0"/>
        <pt x="471" y="1408" on="0"/>
        <pt x="696" y="1423" on="1"/>
        <pt x="725" y="1556" on="1"/>
        <pt x="893" y="1556" on="1"/>
        <pt x="862" y="1419" on="1"/>
        <pt x="1023" y="1404" on="0"/>
        <pt x="1176" y="1329" on="1"/>
        <pt x="1036" y="1059" on="1"/>
        <pt x="877" y="1130" on="0"/>
      </contour>
    </TTGlyph>
    <TTGlyph name="dotaccent" xMin="319" yMin="1241" xMax="737" yMax="1591">
      <contour>
        <pt x="319" y="1382" on="1"/>
        <pt x="319" y="1591" on="0"/>
        <pt x="547" y="1591" on="1"/>
        <pt x="737" y="1591" on="0"/>
        <pt x="737" y="1450" on="1"/>
        <pt x="737" y="1241" on="0"/>
        <pt x="510" y="1241" on="1"/>
        <pt x="319" y="1241" on="0"/>
      </contour>
    </TTGlyph>
    <TTGlyph name="dotlessi" xMin="23" yMin="0" xMax="651" yMax="1133">
      <contour>
        <pt x="23" y="0" on="1"/>
        <pt x="262" y="1133" on="1"/>
        <pt x="651" y="1133" on="1"/>
        <pt x="410" y="0" on="1"/>
      </contour>
    </TTGlyph>
    <TTGlyph name="e" xMin="84" yMin="-20" xMax="1141" yMax="1153">
      <contour>
        <pt x="532" y="-20" on="1"/>
        <pt x="320" y="-20" on="0"/>
        <pt x="84" y="216" on="0"/>
        <pt x="84" y="637" on="0"/>
        <pt x="251" y="977" on="0"/>
        <pt x="541" y="1153" on="0"/>
        <pt x="922" y="1153" on="0"/>
        <pt x="1141" y="982" on="0"/>
        <pt x="1141" y="838" on="1"/>
        <pt x="1141" y="637" on="0"/>
        <pt x="828" y="422" on="0"/>
        <pt x="532" y="422" on="1"/>
        <pt x="473" y="422" on="1"/>
        <pt x="473" y="406" on="1"/>
        <pt x="473" y="258" on="0"/>
        <pt x="637" y="258" on="1"/>
        <pt x="715" y="258" on="0"/>
        <pt x="867" y="304" on="0"/>
        <pt x="965" y="356" on="1"/>
        <pt x="965" y="82" on="1"/>
        <pt x="850" y="24" on="0"/>
        <pt x="661" y="-20" on="0"/>
      </contour>
      <contour>
        <pt x="541" y="664" on="1"/>
        <pt x="649" y="664" on="0"/>
        <pt x="774" y="746" on="0"/>
        <pt x="774" y="815" on="1"/>
        <pt x="774" y="849" on="0"/>
        <pt x="732" y="891" on="0"/>
        <pt x="690" y="891" on="1"/>
        <pt x="628" y="891" on="0"/>
        <pt x="522" y="750" on="0"/>
        <pt x="512" y="664" on="1"/>
      </contour>
    </TTGlyph>
    <TTGlyph name="eacute" xMin="84" yMin="-20" xMax="1244" yMax="1569">
      <contour>
        <pt x="523" y="1241" on="1"/>
        <pt x="523" y="1264" on="1"/>
        <pt x="645" y="1365" on="0"/>
        <pt x="805" y="1569" on="1"/>
        <pt x="1244" y="1569" on="1"/>
        <pt x="1244" y="1554" on="1"/>
        <pt x="1200" y="1501" on="0"/>
        <pt x="908" y="1295" on="0"/>
        <pt x="807" y="1241" on="1"/>
      </contour>
      <contour>
        <pt x="532" y="-20" on="1"/>
        <pt x="320" y="-20" on="0"/>
        <pt x="84" y="216" on="0"/>
        <pt x="84" y="637" on="0"/>
        <pt x="251" y="977" on="0"/>
        <pt x="541" y="1153" on="0"/>
        <pt x="922" y="1153" on="0"/>
        <pt x="1141" y="982" on="0"/>
        <pt x="1141" y="838" on="1"/>
        <pt x="1141" y="637" on="0"/>
        <pt x="828" y="422" on="0"/>
        <pt x="532" y="422" on="1"/>
        <pt x="473" y="422" on="1"/>
        <pt x="473" y="406" on="1"/>
        <pt x="473" y="258" on="0"/>
        <pt x="637" y="258" on="1"/>
        <pt x="715" y="258" on="0"/>
        <pt x="867" y="304" on="0"/>
        <pt x="965" y="356" on="1"/>
        <pt x="965" y="82" on="1"/>
        <pt x="850" y="24" on="0"/>
        <pt x="661" y="-20" on="0"/>
      </contour>
      <contour>
        <pt x="541" y="664" on="1"/>
        <pt x="649" y="664" on="0"/>
        <pt x="774" y="746" on="0"/>
        <pt x="774" y="815" on="1"/>
        <pt x="774" y="849" on="0"/>
        <pt x="732" y="891" on="0"/>
        <pt x="690" y="891" on="1"/>
        <pt x="628" y="891" on="0"/>
        <pt x="522" y="750" on="0"/>
        <pt x="512" y="664" on="1"/>
      </contour>
    </TTGlyph>
    <TTGlyph name="ecircumflex" xMin="84" yMin="-20" xMax="1213" yMax="1569">
      <contour>
        <pt x="1213" y="1241" on="1"/>
        <pt x="947" y="1241" on="1"/>
        <pt x="900" y="1282" on="0"/>
        <pt x="791" y="1415" on="1"/>
        <pt x="652" y="1306" on="0"/>
        <pt x="551" y="1241" on="1"/>
        <pt x="277" y="1241" on="1"/>
        <pt x="277" y="1264" on="1"/>
        <pt x="344" y="1325" on="0"/>
        <pt x="543" y="1522" on="0"/>
        <pt x="586" y="1569" on="1"/>
        <pt x="1033" y="1569" on="1"/>
        <pt x="1058" y="1510" on="0"/>
        <pt x="1165" y="1327" on="0"/>
        <pt x="1213" y="1264" on="1"/>
      </contour>
      <contour>
        <pt x="532" y="-20" on="1"/>
        <pt x="320" y="-20" on="0"/>
        <pt x="84" y="216" on="0"/>
        <pt x="84" y="637" on="0"/>
        <pt x="251" y="977" on="0"/>
        <pt x="541" y="1153" on="0"/>
        <pt x="922" y="1153" on="0"/>
        <pt x="1141" y="982" on="0"/>
        <pt x="1141" y="838" on="1"/>
        <pt x="1141" y="637" on="0"/>
        <pt x="828" y="422" on="0"/>
        <pt x="532" y="422" on="1"/>
        <pt x="473" y="422" on="1"/>
        <pt x="473" y="406" on="1"/>
        <pt x="473" y="258" on="0"/>
        <pt x="637" y="258" on="1"/>
        <pt x="715" y="258" on="0"/>
        <pt x="867" y="304" on="0"/>
        <pt x="965" y="356" on="1"/>
        <pt x="965" y="82" on="1"/>
        <pt x="850" y="24" on="0"/>
        <pt x="661" y="-20" on="0"/>
      </contour>
      <contour>
        <pt x="541" y="664" on="1"/>
        <pt x="649" y="664" on="0"/>
        <pt x="774" y="746" on="0"/>
        <pt x="774" y="815" on="1"/>
        <pt x="774" y="849" on="0"/>
        <pt x="732" y="891" on="0"/>
        <pt x="690" y="891" on="1"/>
        <pt x="628" y="891" on="0"/>
        <pt x="522" y="750" on="0"/>
        <pt x="512" y="664" on="1"/>
      </contour>
    </TTGlyph>
    <TTGlyph name="edieresis" xMin="84" yMin="-20" xMax="1192" yMax="1571">
      <contour>
        <pt x="336" y="1384" on="1"/>
        <pt x="336" y="1571" on="0"/>
        <pt x="537" y="1571" on="1"/>
        <pt x="707" y="1571" on="0"/>
        <pt x="707" y="1446" on="1"/>
        <pt x="707" y="1257" on="0"/>
        <pt x="506" y="1257" on="1"/>
        <pt x="418" y="1257" on="0"/>
        <pt x="336" y="1319" on="0"/>
      </contour>
      <contour>
        <pt x="823" y="1384" on="1"/>
        <pt x="823" y="1571" on="0"/>
        <pt x="1024" y="1571" on="1"/>
        <pt x="1192" y="1571" on="0"/>
        <pt x="1192" y="1446" on="1"/>
        <pt x="1192" y="1257" on="0"/>
        <pt x="993" y="1257" on="1"/>
        <pt x="905" y="1257" on="0"/>
        <pt x="823" y="1319" on="0"/>
      </contour>
      <contour>
        <pt x="532" y="-20" on="1"/>
        <pt x="320" y="-20" on="0"/>
        <pt x="84" y="216" on="0"/>
        <pt x="84" y="637" on="0"/>
        <pt x="251" y="977" on="0"/>
        <pt x="541" y="1153" on="0"/>
        <pt x="922" y="1153" on="0"/>
        <pt x="1141" y="982" on="0"/>
        <pt x="1141" y="838" on="1"/>
        <pt x="1141" y="637" on="0"/>
        <pt x="828" y="422" on="0"/>
        <pt x="532" y="422" on="1"/>
        <pt x="473" y="422" on="1"/>
        <pt x="473" y="406" on="1"/>
        <pt x="473" y="258" on="0"/>
        <pt x="637" y="258" on="1"/>
        <pt x="715" y="258" on="0"/>
        <pt x="867" y="304" on="0"/>
        <pt x="965" y="356" on="1"/>
        <pt x="965" y="82" on="1"/>
        <pt x="850" y="24" on="0"/>
        <pt x="661" y="-20" on="0"/>
      </contour>
      <contour>
        <pt x="541" y="664" on="1"/>
        <pt x="649" y="664" on="0"/>
        <pt x="774" y="746" on="0"/>
        <pt x="774" y="815" on="1"/>
        <pt x="774" y="849" on="0"/>
        <pt x="732" y="891" on="0"/>
        <pt x="690" y="891" on="1"/>
        <pt x="628" y="891" on="0"/>
        <pt x="522" y="750" on="0"/>
        <pt x="512" y="664" on="1"/>
      </contour>
    </TTGlyph>
    <TTGlyph name="egrave" xMin="84" yMin="-20" xMax="1141" yMax="1569">
      <contour>
        <pt x="919" y="1241" on="1"/>
        <pt x="683" y="1241" on="1"/>
        <pt x="605" y="1312" on="0"/>
        <pt x="460" y="1485" on="0"/>
        <pt x="429" y="1548" on="1"/>
        <pt x="429" y="1569" on="1"/>
        <pt x="825" y="1569" on="1"/>
        <pt x="853" y="1415" on="0"/>
        <pt x="919" y="1266" on="1"/>
      </contour>
      <contour>
        <pt x="532" y="-20" on="1"/>
        <pt x="320" y="-20" on="0"/>
        <pt x="84" y="216" on="0"/>
        <pt x="84" y="637" on="0"/>
        <pt x="251" y="977" on="0"/>
        <pt x="541" y="1153" on="0"/>
        <pt x="922" y="1153" on="0"/>
        <pt x="1141" y="982" on="0"/>
        <pt x="1141" y="838" on="1"/>
        <pt x="1141" y="637" on="0"/>
        <pt x="828" y="422" on="0"/>
        <pt x="532" y="422" on="1"/>
        <pt x="473" y="422" on="1"/>
        <pt x="473" y="406" on="1"/>
        <pt x="473" y="258" on="0"/>
        <pt x="637" y="258" on="1"/>
        <pt x="715" y="258" on="0"/>
        <pt x="867" y="304" on="0"/>
        <pt x="965" y="356" on="1"/>
        <pt x="965" y="82" on="1"/>
        <pt x="850" y="24" on="0"/>
        <pt x="661" y="-20" on="0"/>
      </contour>
      <contour>
        <pt x="541" y="664" on="1"/>
        <pt x="649" y="664" on="0"/>
        <pt x="774" y="746" on="0"/>
        <pt x="774" y="815" on="1"/>
        <pt x="774" y="849" on="0"/>
        <pt x="732" y="891" on="0"/>
        <pt x="690" y="891" on="1"/>
        <pt x="628" y="891" on="0"/>
        <pt x="522" y="750" on="0"/>
        <pt x="512" y="664" on="1"/>
      </contour>
    </TTGlyph>
    <TTGlyph name="eight" xMin="49" yMin="-20" xMax="1157" yMax="1485">
      <contour>
        <pt x="1157" y="1151" on="1"/>
        <pt x="1157" y="1022" on="0"/>
        <pt x="1079" y="922" on="1"/>
        <pt x="1004" y="823" on="0"/>
        <pt x="877" y="782" on="1"/>
        <pt x="972" y="709" on="0"/>
        <pt x="1065" y="534" on="0"/>
        <pt x="1065" y="420" on="1"/>
        <pt x="1065" y="214" on="0"/>
        <pt x="783" y="-20" on="0"/>
        <pt x="312" y="-20" on="0"/>
        <pt x="180" y="79" on="1"/>
        <pt x="49" y="178" on="0"/>
        <pt x="49" y="338" on="1"/>
        <pt x="49" y="639" on="0"/>
        <pt x="381" y="756" on="1"/>
        <pt x="225" y="878" on="0"/>
        <pt x="225" y="1065" on="1"/>
        <pt x="225" y="1069" on="0"/>
        <pt x="225" y="1073" on="1"/>
        <pt x="225" y="1251" on="0"/>
        <pt x="498" y="1485" on="0"/>
        <pt x="718" y="1485" on="1"/>
        <pt x="721" y="1485" on="0"/>
        <pt x="725" y="1485" on="1"/>
        <pt x="926" y="1485" on="0"/>
        <pt x="1157" y="1300" on="0"/>
      </contour>
      <contour>
        <pt x="801" y="1150" on="0"/>
        <pt x="746" y="1202" on="0"/>
        <pt x="659" y="1202" on="0"/>
        <pt x="588" y="1122" on="0"/>
        <pt x="588" y="1026" on="0"/>
        <pt x="636" y="948" on="0"/>
        <pt x="674" y="930" on="1"/>
        <pt x="731" y="951" on="0"/>
        <pt x="801" y="1049" on="0"/>
      </contour>
      <contour>
        <pt x="414" y="385" on="1"/>
        <pt x="414" y="331" on="0"/>
        <pt x="487" y="262" on="0"/>
        <pt x="617" y="262" on="0"/>
        <pt x="702" y="346" on="0"/>
        <pt x="702" y="414" on="1"/>
        <pt x="702" y="529" on="0"/>
        <pt x="584" y="608" on="1"/>
        <pt x="414" y="518" on="0"/>
      </contour>
    </TTGlyph>
    <TTGlyph name="ellipsis" xMin="12" yMin="-25" xMax="1610" yMax="360">
      <contour>
        <pt x="12" y="127" on="1"/>
        <pt x="12" y="236" on="0"/>
        <pt x="142" y="360" on="0"/>
        <pt x="256" y="360" on="1"/>
        <pt x="341" y="360" on="0"/>
        <pt x="436" y="279" on="0"/>
        <pt x="436" y="205" on="1"/>
        <pt x="436" y="87" on="0"/>
        <pt x="315" y="-25" on="0"/>
        <pt x="186" y="-25" on="1"/>
        <pt x="105" y="-25" on="0"/>
        <pt x="12" y="51" on="0"/>
      </contour>
      <contour>
        <pt x="600" y="127" on="1"/>
        <pt x="600" y="236" on="0"/>
        <pt x="730" y="360" on="0"/>
        <pt x="844" y="360" on="1"/>
        <pt x="929" y="360" on="0"/>
        <pt x="1024" y="279" on="0"/>
        <pt x="1024" y="205" on="1"/>
        <pt x="1024" y="87" on="0"/>
        <pt x="903" y="-25" on="0"/>
        <pt x="774" y="-25" on="1"/>
        <pt x="693" y="-25" on="0"/>
        <pt x="600" y="51" on="0"/>
      </contour>
      <contour>
        <pt x="1186" y="127" on="1"/>
        <pt x="1186" y="236" on="0"/>
        <pt x="1316" y="360" on="0"/>
        <pt x="1430" y="360" on="1"/>
        <pt x="1515" y="360" on="0"/>
        <pt x="1610" y="279" on="0"/>
        <pt x="1610" y="205" on="1"/>
        <pt x="1610" y="87" on="0"/>
        <pt x="1489" y="-25" on="0"/>
        <pt x="1360" y="-25" on="1"/>
        <pt x="1279" y="-25" on="0"/>
        <pt x="1186" y="51" on="0"/>
      </contour>
    </TTGlyph>
    <TTGlyph name="emdash" xMin="33" yMin="416" xMax="1944" yMax="690">
      <contour>
        <pt x="90" y="690" on="1"/>
        <pt x="1944" y="690" on="1"/>
        <pt x="1884" y="416" on="1"/>
        <pt x="33" y="416" on="1"/>
      </contour>
    </TTGlyph>
    <TTGlyph name="endash" xMin="33" yMin="416" xMax="961" yMax="690">
      <contour>
        <pt x="90" y="690" on="1"/>
        <pt x="961" y="690" on="1"/>
        <pt x="901" y="416" on="1"/>
        <pt x="33" y="416" on="1"/>
      </contour>
    </TTGlyph>
    <TTGlyph name="equal" xMin="102" yMin="399" xMax="1077" yMax="1040">
      <contour>
        <pt x="102" y="1040" on="1"/>
        <pt x="1077" y="1040" on="1"/>
        <pt x="1077" y="774" on="1"/>
        <pt x="102" y="774" on="1"/>
      </contour>
      <contour>
        <pt x="102" y="670" on="1"/>
        <pt x="1077" y="670" on="1"/>
        <pt x="1077" y="399" on="1"/>
        <pt x="102" y="399" on="1"/>
      </contour>
    </TTGlyph>
    <TTGlyph name="exclam" xMin="12" yMin="-25" xMax="707" yMax="1462">
      <contour>
        <pt x="125" y="516" on="1"/>
        <pt x="281" y="1462" on="1"/>
        <pt x="707" y="1462" on="1"/>
        <pt x="453" y="516" on="1"/>
      </contour>
      <contour>
        <pt x="12" y="127" on="1"/>
        <pt x="12" y="235" on="0"/>
        <pt x="142" y="360" on="0"/>
        <pt x="256" y="360" on="1"/>
        <pt x="343" y="360" on="0"/>
        <pt x="436" y="279" on="0"/>
        <pt x="436" y="205" on="1"/>
        <pt x="436" y="96" on="0"/>
        <pt x="310" y="-25" on="0"/>
        <pt x="199" y="-25" on="1"/>
        <pt x="110" y="-25" on="0"/>
        <pt x="12" y="53" on="0"/>
      </contour>
    </TTGlyph>
    <TTGlyph name="exclamdown" xMin="-109" yMin="-338" xMax="586" yMax="1153">
      <contour>
        <pt x="586" y="1001" on="1"/>
        <pt x="586" y="893" on="0"/>
        <pt x="456" y="768" on="0"/>
        <pt x="342" y="768" on="1"/>
        <pt x="255" y="768" on="0"/>
        <pt x="162" y="849" on="0"/>
        <pt x="162" y="924" on="1"/>
        <pt x="162" y="1032" on="0"/>
        <pt x="289" y="1153" on="0"/>
        <pt x="399" y="1153" on="1"/>
        <pt x="488" y="1153" on="0"/>
        <pt x="586" y="1074" on="0"/>
      </contour>
      <contour>
        <pt x="473" y="608" on="1"/>
        <pt x="317" y="-338" on="1"/>
        <pt x="-109" y="-338" on="1"/>
        <pt x="145" y="608" on="1"/>
      </contour>
    </TTGlyph>
    <TTGlyph name="f" xMin="-209" yMin="-492" xMax="1049" yMax="1567">
      <contour>
        <pt x="-2" y="-492" on="1"/>
        <pt x="-112" y="-492" on="0"/>
        <pt x="-209" y="-465" on="1"/>
        <pt x="-209" y="-162" on="1"/>
        <pt x="-146" y="-180" on="0"/>
        <pt x="-18" y="-180" on="0"/>
        <pt x="58" y="-121" on="0"/>
        <pt x="72" y="-55" on="1"/>
        <pt x="262" y="842" on="1"/>
        <pt x="96" y="842" on="1"/>
        <pt x="139" y="1032" on="1"/>
        <pt x="328" y="1128" on="1"/>
        <pt x="344" y="1202" on="1"/>
        <pt x="386" y="1392" on="0"/>
        <pt x="592" y="1567" on="0"/>
        <pt x="931" y="1567" on="0"/>
        <pt x="1049" y="1509" on="1"/>
        <pt x="950" y="1245" on="1"/>
        <pt x="887" y="1276" on="0"/>
        <pt x="746" y="1276" on="0"/>
        <pt x="729" y="1204" on="1"/>
        <pt x="713" y="1133" on="1"/>
        <pt x="924" y="1133" on="1"/>
        <pt x="858" y="842" on="1"/>
        <pt x="649" y="842" on="1"/>
        <pt x="444" y="-117" on="1"/>
        <pt x="401" y="-308" on="0"/>
        <pt x="181" y="-492" on="0"/>
      </contour>
    </TTGlyph>
    <TTGlyph name="finalkafdageshhb" xMin="106" yMin="-492" xMax="1024" yMax="1315">
      <contour>
        <pt x="582" y="1315" on="1"/>
        <pt x="791" y="1315" on="0"/>
        <pt x="895" y="1228" on="1"/>
        <pt x="997" y="1143" on="0"/>
        <pt x="1017" y="1012" on="1"/>
        <pt x="1024" y="963" on="0"/>
        <pt x="1024" y="929" on="1"/>
        <pt x="1024" y="831" on="0"/>
        <pt x="1003" y="729" on="1"/>
        <pt x="744" y="-492" on="1"/>
        <pt x="357" y="-492" on="1"/>
        <pt x="617" y="731" on="1"/>
        <pt x="633" y="806" on="0"/>
        <pt x="633" y="871" on="0"/>
        <pt x="623" y="935" on="0"/>
        <pt x="602" y="959" on="1"/>
        <pt x="555" y="1013" on="0"/>
        <pt x="434" y="1013" on="1"/>
        <pt x="304" y="1013" on="0"/>
        <pt x="156" y="1000" on="1"/>
        <pt x="106" y="995" on="1"/>
        <pt x="171" y="1299" on="1"/>
        <pt x="344" y="1315" on="0"/>
      </contour>
      <contour>
        <pt x="239" y="737" on="1"/>
        <pt x="269" y="760" on="0"/>
        <pt x="356" y="760" on="0"/>
        <pt x="392" y="719" on="0"/>
        <pt x="392" y="701" on="1"/>
        <pt x="392" y="642" on="0"/>
        <pt x="351" y="610" on="1"/>
        <pt x="320" y="587" on="0"/>
        <pt x="232" y="587" on="0"/>
        <pt x="198" y="625" on="0"/>
        <pt x="198" y="643" on="1"/>
        <pt x="198" y="706" on="0"/>
      </contour>
    </TTGlyph>
    <TTGlyph name="finalpedageshhb" xMin="78" yMin="-492" xMax="1212" yMax="1315">
      <contour>
        <pt x="112" y="569" on="1"/>
        <pt x="94" y="602" on="0"/>
        <pt x="78" y="677" on="0"/>
        <pt x="78" y="728" on="0"/>
        <pt x="79" y="787" on="0"/>
        <pt x="92" y="848" on="1"/>
        <pt x="114" y="953" on="0"/>
        <pt x="219" y="1118" on="0"/>
        <pt x="352" y="1221" on="0"/>
        <pt x="436" y="1254" on="1"/>
        <pt x="586" y="1315" on="0"/>
        <pt x="759" y="1315" on="1"/>
        <pt x="958" y="1315" on="0"/>
        <pt x="1072" y="1228" on="1"/>
        <pt x="1114" y="1196" on="0"/>
        <pt x="1148" y="1144" on="1"/>
        <pt x="1212" y="1044" on="0"/>
        <pt x="1212" y="880" on="1"/>
        <pt x="1212" y="774" on="0"/>
        <pt x="1185" y="648" on="1"/>
        <pt x="943" y="-492" on="1"/>
        <pt x="550" y="-492" on="1"/>
        <pt x="792" y="648" on="1"/>
        <pt x="825" y="798" on="0"/>
        <pt x="825" y="872" on="1"/>
        <pt x="825" y="924" on="0"/>
        <pt x="801" y="963" on="1"/>
        <pt x="775" y="1006" on="0"/>
        <pt x="693" y="1006" on="1"/>
        <pt x="646" y="1006" on="0"/>
        <pt x="570" y="979" on="0"/>
        <pt x="528" y="945" on="0"/>
        <pt x="513" y="922" on="1"/>
        <pt x="494" y="891" on="0"/>
        <pt x="486" y="858" on="1"/>
        <pt x="482" y="828" on="0"/>
        <pt x="482" y="785" on="0"/>
        <pt x="501" y="751" on="0"/>
        <pt x="519" y="729" on="0"/>
        <pt x="533" y="721" on="1"/>
        <pt x="556" y="708" on="0"/>
        <pt x="576" y="704" on="1"/>
        <pt x="655" y="687" on="1"/>
        <pt x="534" y="411" on="1"/>
        <pt x="438" y="414" on="1"/>
        <pt x="192" y="423" on="0"/>
      </contour>
      <contour>
        <pt x="597" y="931" on="1"/>
        <pt x="627" y="954" on="0"/>
        <pt x="714" y="954" on="0"/>
        <pt x="750" y="913" on="0"/>
        <pt x="750" y="895" on="1"/>
        <pt x="750" y="836" on="0"/>
        <pt x="709" y="804" on="1"/>
        <pt x="678" y="781" on="0"/>
        <pt x="590" y="781" on="0"/>
        <pt x="556" y="819" on="0"/>
        <pt x="556" y="837" on="1"/>
        <pt x="556" y="900" on="0"/>
      </contour>
    </TTGlyph>
    <TTGlyph name="five" xMin="20" yMin="-20" xMax="1178" yMax="1462">
      <contour>
        <pt x="655" y="958" on="1"/>
        <pt x="836" y="958" on="0"/>
        <pt x="1061" y="722" on="0"/>
        <pt x="1061" y="524" on="1"/>
        <pt x="1061" y="264" on="0"/>
        <pt x="900" y="121" on="1"/>
        <pt x="739" y="-20" on="0"/>
        <pt x="434" y="-20" on="1"/>
        <pt x="302" y="-20" on="0"/>
        <pt x="73" y="25" on="0"/>
        <pt x="20" y="63" on="1"/>
        <pt x="20" y="387" on="1"/>
        <pt x="101" y="341" on="0"/>
        <pt x="301" y="291" on="0"/>
        <pt x="385" y="291" on="1"/>
        <pt x="662" y="291" on="0"/>
        <pt x="662" y="483" on="1"/>
        <pt x="662" y="559" on="0"/>
        <pt x="561" y="653" on="0"/>
        <pt x="475" y="653" on="1"/>
        <pt x="420" y="653" on="0"/>
        <pt x="305" y="632" on="0"/>
        <pt x="272" y="621" on="1"/>
        <pt x="150" y="713" on="1"/>
        <pt x="365" y="1462" on="1"/>
        <pt x="1178" y="1462" on="1"/>
        <pt x="1110" y="1139" on="1"/>
        <pt x="639" y="1139" on="1"/>
        <pt x="580" y="954" on="1"/>
        <pt x="611" y="958" on="0"/>
      </contour>
    </TTGlyph>
    <TTGlyph name="florin" xMin="-53" yMin="-492" xMax="1186" yMax="1483">
      <contour>
        <pt x="154" y="-492" on="1"/>
        <pt x="44" y="-492" on="0"/>
        <pt x="-53" y="-465" on="1"/>
        <pt x="-53" y="-158" on="1"/>
        <pt x="2" y="-176" on="0"/>
        <pt x="63" y="-176" on="1"/>
        <pt x="203" y="-176" on="0"/>
        <pt x="229" y="-51" on="1"/>
        <pt x="395" y="737" on="1"/>
        <pt x="244" y="737" on="1"/>
        <pt x="283" y="940" on="1"/>
        <pt x="461" y="1030" on="1"/>
        <pt x="481" y="1118" on="1"/>
        <pt x="524" y="1306" on="0"/>
        <pt x="734" y="1483" on="0"/>
        <pt x="920" y="1483" on="1"/>
        <pt x="1067" y="1483" on="0"/>
        <pt x="1186" y="1425" on="1"/>
        <pt x="1081" y="1143" on="1"/>
        <pt x="1014" y="1176" on="0"/>
        <pt x="881" y="1176" on="0"/>
        <pt x="866" y="1112" on="1"/>
        <pt x="848" y="1034" on="1"/>
        <pt x="1057" y="1034" on="1"/>
        <pt x="991" y="737" on="1"/>
        <pt x="784" y="737" on="1"/>
        <pt x="602" y="-117" on="1"/>
        <pt x="563" y="-301" on="0"/>
        <pt x="334" y="-492" on="0"/>
      </contour>
    </TTGlyph>
    <TTGlyph name="four" xMin="-10" yMin="0" xMax="1163" yMax="1462">
      <contour>
        <pt x="915" y="283" on="1"/>
        <pt x="856" y="0" on="1"/>
        <pt x="479" y="0" on="1"/>
        <pt x="539" y="283" on="1"/>
        <pt x="-10" y="283" on="1"/>
        <pt x="41" y="539" on="1"/>
        <pt x="803" y="1462" on="1"/>
        <pt x="1163" y="1462" on="1"/>
        <pt x="977" y="578" on="1"/>
        <pt x="1126" y="578" on="1"/>
        <pt x="1065" y="283" on="1"/>
      </contour>
      <contour>
        <pt x="600" y="578" on="1"/>
        <pt x="649" y="772" on="1"/>
        <pt x="680" y="887" on="0"/>
        <pt x="709" y="983" on="1"/>
        <pt x="700" y="983" on="1"/>
        <pt x="650" y="887" on="0"/>
        <pt x="586" y="811" on="1"/>
        <pt x="391" y="578" on="1"/>
      </contour>
    </TTGlyph>
    <TTGlyph name="fraction" xMin="-563" yMin="0" xMax="817" yMax="1462">
      <contour>
        <pt x="-266" y="0" on="1"/>
        <pt x="-563" y="0" on="1"/>
        <pt x="526" y="1462" on="1"/>
        <pt x="817" y="1462" on="1"/>
      </contour>
    </TTGlyph>
    <TTGlyph name="g" xMin="-133" yMin="-492" xMax="1235" yMax="1153">
      <contour>
        <pt x="639" y="1153" on="1"/>
        <pt x="744" y="1153" on="0"/>
        <pt x="836" y="1133" on="1"/>
        <pt x="1235" y="1133" on="1"/>
        <pt x="1194" y="926" on="1"/>
        <pt x="1034" y="874" on="1"/>
        <pt x="1044" y="835" on="0"/>
        <pt x="1044" y="780" on="1"/>
        <pt x="1044" y="589" on="0"/>
        <pt x="914" y="471" on="1"/>
        <pt x="784" y="354" on="0"/>
        <pt x="575" y="354" on="1"/>
        <pt x="497" y="354" on="0"/>
        <pt x="451" y="367" on="1"/>
        <pt x="421" y="351" on="0"/>
        <pt x="403" y="327" on="0"/>
        <pt x="403" y="315" on="1"/>
        <pt x="403" y="272" on="0"/>
        <pt x="514" y="256" on="1"/>
        <pt x="651" y="238" on="1"/>
        <pt x="826" y="212" on="0"/>
        <pt x="977" y="80" on="0"/>
        <pt x="977" y="-43" on="1"/>
        <pt x="977" y="-258" on="0"/>
        <pt x="640" y="-492" on="0"/>
        <pt x="330" y="-492" on="1"/>
        <pt x="117" y="-492" on="0"/>
        <pt x="-7" y="-416" on="1"/>
        <pt x="-133" y="-341" on="0"/>
        <pt x="-133" y="-207" on="1"/>
        <pt x="-133" y="-108" on="0"/>
        <pt x="4" y="33" on="0"/>
        <pt x="147" y="80" on="1"/>
        <pt x="109" y="104" on="0"/>
        <pt x="63" y="178" on="0"/>
        <pt x="63" y="219" on="1"/>
        <pt x="63" y="289" on="0"/>
        <pt x="163" y="400" on="0"/>
        <pt x="266" y="446" on="1"/>
        <pt x="135" y="550" on="0"/>
        <pt x="135" y="727" on="1"/>
        <pt x="135" y="923" on="0"/>
        <pt x="407" y="1153" on="0"/>
      </contour>
      <contour>
        <pt x="620" y="920" on="1"/>
        <pt x="570" y="920" on="0"/>
        <pt x="500" y="777" on="0"/>
        <pt x="500" y="598" on="0"/>
        <pt x="567" y="598" on="1"/>
        <pt x="619" y="598" on="0"/>
        <pt x="652" y="666" on="1"/>
        <pt x="686" y="734" on="0"/>
        <pt x="686" y="920" on="0"/>
        <pt x="625" y="920" on="1"/>
        <pt x="622" y="920" on="0"/>
      </contour>
      <contour>
        <pt x="197" y="-152" on="1"/>
        <pt x="197" y="-238" on="0"/>
        <pt x="367" y="-238" on="1"/>
        <pt x="492" y="-238" on="0"/>
        <pt x="623" y="-181" on="0"/>
        <pt x="623" y="-127" on="1"/>
        <pt x="623" y="-91" on="0"/>
        <pt x="557" y="-54" on="0"/>
        <pt x="475" y="-45" on="1"/>
        <pt x="360" y="-33" on="1"/>
        <pt x="197" y="-57" on="0"/>
      </contour>
    </TTGlyph>
    <TTGlyph name="gereshhb" xMin="94" yMin="789" xMax="639" yMax="1290">
      <contour>
        <pt x="94" y="789" on="1"/>
        <pt x="157" y="939" on="0"/>
        <pt x="283" y="1290" on="1"/>
        <pt x="631" y="1290" on="1"/>
        <pt x="639" y="1268" on="1"/>
        <pt x="549" y="1060" on="0"/>
        <pt x="383" y="789" on="1"/>
      </contour>
    </TTGlyph>
    <TTGlyph name="germandbls" xMin="-260" yMin="-492" xMax="1399" yMax="1567">
      <contour>
        <pt x="-53" y="-492" on="1"/>
        <pt x="-162" y="-492" on="0"/>
        <pt x="-260" y="-465" on="1"/>
        <pt x="-260" y="-162" on="1"/>
        <pt x="-197" y="-180" on="0"/>
        <pt x="-70" y="-180" on="0"/>
        <pt x="6" y="-121" on="0"/>
        <pt x="20" y="-55" on="1"/>
        <pt x="264" y="1096" on="1"/>
        <pt x="316" y="1345" on="0"/>
        <pt x="613" y="1567" on="0"/>
        <pt x="1126" y="1567" on="0"/>
        <pt x="1399" y="1369" on="0"/>
        <pt x="1399" y="1194" on="1"/>
        <pt x="1399" y="1076" on="0"/>
        <pt x="1296" y="915" on="0"/>
        <pt x="1069" y="808" on="0"/>
        <pt x="1069" y="762" on="1"/>
        <pt x="1069" y="734" on="0"/>
        <pt x="1089" y="711" on="1"/>
        <pt x="1112" y="688" on="0"/>
        <pt x="1177" y="655" on="1"/>
        <pt x="1273" y="604" on="0"/>
        <pt x="1362" y="469" on="0"/>
        <pt x="1362" y="373" on="1"/>
        <pt x="1362" y="194" on="0"/>
        <pt x="1097" y="-20" on="0"/>
        <pt x="862" y="-20" on="1"/>
        <pt x="701" y="-20" on="0"/>
        <pt x="588" y="25" on="1"/>
        <pt x="588" y="324" on="1"/>
        <pt x="649" y="294" on="0"/>
        <pt x="800" y="262" on="0"/>
        <pt x="914" y="262" on="0"/>
        <pt x="973" y="304" on="0"/>
        <pt x="973" y="365" on="0"/>
        <pt x="932" y="411" on="0"/>
        <pt x="751" y="528" on="0"/>
        <pt x="674" y="639" on="0"/>
        <pt x="674" y="804" on="0"/>
        <pt x="758" y="922" on="0"/>
        <pt x="881" y="989" on="1"/>
        <pt x="951" y="1028" on="0"/>
        <pt x="1010" y="1100" on="0"/>
        <pt x="1010" y="1202" on="0"/>
        <pt x="927" y="1264" on="0"/>
        <pt x="773" y="1264" on="0"/>
        <pt x="665" y="1163" on="0"/>
        <pt x="645" y="1067" on="1"/>
        <pt x="393" y="-117" on="1"/>
        <pt x="350" y="-308" on="0"/>
        <pt x="130" y="-492" on="0"/>
      </contour>
    </TTGlyph>
    <TTGlyph name="gershayimhb" xMin="94" yMin="789" xMax="1135" yMax="1290">
      <contour>
        <pt x="631" y="1290" on="1"/>
        <pt x="639" y="1268" on="1"/>
        <pt x="549" y="1060" on="0"/>
        <pt x="383" y="789" on="1"/>
        <pt x="94" y="789" on="1"/>
        <pt x="140" y="898" on="0"/>
        <pt x="194" y="1047" on="1"/>
        <pt x="283" y="1290" on="1"/>
      </contour>
      <contour>
        <pt x="1128" y="1290" on="1"/>
        <pt x="1135" y="1268" on="1"/>
        <pt x="1099" y="1184" on="0"/>
        <pt x="956" y="910" on="0"/>
        <pt x="881" y="789" on="1"/>
        <pt x="592" y="789" on="1"/>
        <pt x="632" y="886" on="0"/>
        <pt x="691" y="1047" on="1"/>
        <pt x="780" y="1290" on="1"/>
      </contour>
    </TTGlyph>
    <TTGlyph name="gimeldageshhb" xMin="-88" yMin="-20" xMax="925" yMax="1315">
      <contour>
        <pt x="315" y="1283" on="1"/>
        <pt x="448" y="1315" on="0"/>
        <pt x="650" y="1315" on="0"/>
        <pt x="768" y="1293" on="0"/>
        <pt x="847" y="1255" on="0"/>
        <pt x="872" y="1225" on="1"/>
        <pt x="925" y="1164" on="0"/>
        <pt x="925" y="1062" on="1"/>
        <pt x="925" y="1003" on="0"/>
        <pt x="904" y="902" on="1"/>
        <pt x="712" y="0" on="1"/>
        <pt x="421" y="0" on="1"/>
        <pt x="399" y="182" on="1"/>
        <pt x="382" y="182" on="1"/>
        <pt x="362" y="156" on="0"/>
        <pt x="279" y="77" on="0"/>
        <pt x="202" y="24" on="0"/>
        <pt x="87" y="-20" on="0"/>
        <pt x="46" y="-20" on="1"/>
        <pt x="-18" y="-20" on="0"/>
        <pt x="-88" y="0" on="1"/>
        <pt x="18" y="343" on="1"/>
        <pt x="83" y="328" on="0"/>
        <pt x="143" y="328" on="1"/>
        <pt x="252" y="328" on="0"/>
        <pt x="416" y="435" on="0"/>
        <pt x="441" y="549" on="1"/>
        <pt x="512" y="884" on="1"/>
        <pt x="519" y="915" on="0"/>
        <pt x="519" y="939" on="1"/>
        <pt x="519" y="1009" on="0"/>
        <pt x="456" y="1009" on="1"/>
        <pt x="367" y="1009" on="0"/>
        <pt x="279" y="987" on="1"/>
        <pt x="251" y="980" on="1"/>
      </contour>
      <contour>
        <pt x="230" y="737" on="1"/>
        <pt x="260" y="760" on="0"/>
        <pt x="347" y="760" on="0"/>
        <pt x="383" y="719" on="0"/>
        <pt x="383" y="701" on="1"/>
        <pt x="383" y="642" on="0"/>
        <pt x="342" y="610" on="1"/>
        <pt x="311" y="587" on="0"/>
        <pt x="223" y="587" on="0"/>
        <pt x="189" y="625" on="0"/>
        <pt x="189" y="643" on="1"/>
        <pt x="189" y="706" on="0"/>
      </contour>
    </TTGlyph>
    <TTGlyph name="grave" xMin="485" yMin="1241" xMax="975" yMax="1569">
      <contour>
        <pt x="975" y="1241" on="1"/>
        <pt x="739" y="1241" on="1"/>
        <pt x="661" y="1312" on="0"/>
        <pt x="516" y="1485" on="0"/>
        <pt x="485" y="1548" on="1"/>
        <pt x="485" y="1569" on="1"/>
        <pt x="881" y="1569" on="1"/>
        <pt x="909" y="1415" on="0"/>
        <pt x="975" y="1266" on="1"/>
      </contour>
    </TTGlyph>
    <TTGlyph name="greater" xMin="109" yMin="176" xMax="1081" yMax="1307">
      <contour>
        <pt x="684" y="725" on="1"/>
        <pt x="109" y="1008" on="1"/>
        <pt x="109" y="1307" on="1"/>
        <pt x="1081" y="799" on="1"/>
        <pt x="1081" y="627" on="1"/>
        <pt x="109" y="176" on="1"/>
        <pt x="109" y="473" on="1"/>
      </contour>
    </TTGlyph>
    <TTGlyph name="greaterequal" xMin="113" yMin="0" xMax="1087" yMax="1413">
      <contour>
        <pt x="688" y="831" on="1"/>
        <pt x="113" y="1116" on="1"/>
        <pt x="113" y="1413" on="1"/>
        <pt x="1087" y="905" on="1"/>
        <pt x="1087" y="733" on="1"/>
        <pt x="113" y="285" on="1"/>
        <pt x="113" y="582" on="1"/>
      </contour>
      <contour>
        <pt x="113" y="270" on="1"/>
        <pt x="1087" y="270" on="1"/>
        <pt x="1087" y="0" on="1"/>
        <pt x="113" y="0" on="1"/>
      </contour>
    </TTGlyph>
    <TTGlyph name="guillemotleft" xMin="61" yMin="76" xMax="1292" yMax="1087">
      <contour>
        <pt x="1032" y="1087" on="1"/>
        <pt x="1292" y="877" on="1"/>
        <pt x="1014" y="571" on="1"/>
        <pt x="1137" y="213" on="1"/>
        <pt x="803" y="76" on="1"/>
        <pt x="608" y="582" on="1"/>
        <pt x="608" y="592" on="1"/>
      </contour>
      <contour>
        <pt x="469" y="1081" on="1"/>
        <pt x="733" y="877" on="1"/>
        <pt x="467" y="543" on="1"/>
        <pt x="578" y="213" on="1"/>
        <pt x="244" y="76" on="1"/>
        <pt x="61" y="553" on="1"/>
        <pt x="61" y="563" on="1"/>
      </contour>
    </TTGlyph>
    <TTGlyph name="guillemotright" xMin="-14" yMin="35" xMax="1214" yMax="1049">
      <contour>
        <pt x="244" y="35" on="1"/>
        <pt x="-14" y="248" on="1"/>
        <pt x="262" y="553" on="1"/>
        <pt x="141" y="911" on="1"/>
        <pt x="473" y="1049" on="1"/>
        <pt x="668" y="543" on="1"/>
        <pt x="668" y="532" on="1"/>
      </contour>
      <contour>
        <pt x="807" y="43" on="1"/>
        <pt x="543" y="248" on="1"/>
        <pt x="809" y="582" on="1"/>
        <pt x="698" y="911" on="1"/>
        <pt x="1032" y="1049" on="1"/>
        <pt x="1214" y="571" on="1"/>
        <pt x="1214" y="561" on="1"/>
      </contour>
    </TTGlyph>
    <TTGlyph name="guilsinglleft" xMin="61" yMin="76" xMax="733" yMax="1081">
      <contour>
        <pt x="469" y="1081" on="1"/>
        <pt x="733" y="877" on="1"/>
        <pt x="467" y="543" on="1"/>
        <pt x="578" y="213" on="1"/>
        <pt x="244" y="76" on="1"/>
        <pt x="61" y="553" on="1"/>
        <pt x="61" y="563" on="1"/>
      </contour>
    </TTGlyph>
    <TTGlyph name="guilsinglright" xMin="-14" yMin="43" xMax="657" yMax="1049">
      <contour>
        <pt x="250" y="43" on="1"/>
        <pt x="-14" y="248" on="1"/>
        <pt x="252" y="582" on="1"/>
        <pt x="141" y="911" on="1"/>
        <pt x="473" y="1049" on="1"/>
        <pt x="657" y="571" on="1"/>
        <pt x="657" y="561" on="1"/>
      </contour>
    </TTGlyph>
    <TTGlyph name="h" xMin="23" yMin="0" xMax="1178" yMax="1556">
      <contour>
        <pt x="768" y="618" on="1"/>
        <pt x="786" y="696" on="0"/>
        <pt x="786" y="801" on="0"/>
        <pt x="743" y="846" on="0"/>
        <pt x="711" y="846" on="1"/>
        <pt x="586" y="846" on="0"/>
        <pt x="526" y="553" on="1"/>
        <pt x="410" y="0" on="1"/>
        <pt x="23" y="0" on="1"/>
        <pt x="352" y="1556" on="1"/>
        <pt x="739" y="1556" on="1"/>
        <pt x="686" y="1307" on="1"/>
        <pt x="652" y="1152" on="0"/>
        <pt x="598" y="1024" on="1"/>
        <pt x="606" y="1024" on="1"/>
        <pt x="706" y="1153" on="0"/>
        <pt x="879" y="1153" on="1"/>
        <pt x="1020" y="1153" on="0"/>
        <pt x="1178" y="982" on="0"/>
        <pt x="1178" y="831" on="1"/>
        <pt x="1178" y="723" on="0"/>
        <pt x="1153" y="602" on="1"/>
        <pt x="1026" y="0" on="1"/>
        <pt x="639" y="0" on="1"/>
      </contour>
    </TTGlyph>
    <TTGlyph name="hedageshhb" xMin="-4" yMin="0" xMax="1279" yMax="1315">
      <contour>
        <pt x="1206" y="1214" on="1"/>
        <pt x="1240" y="1180" on="0"/>
        <pt x="1274" y="1103" on="0"/>
        <pt x="1279" y="1030" on="0"/>
        <pt x="1279" y="1003" on="1"/>
        <pt x="1279" y="936" on="0"/>
        <pt x="1254" y="822" on="1"/>
        <pt x="1079" y="0" on="1"/>
        <pt x="690" y="0" on="1"/>
        <pt x="865" y="822" on="1"/>
        <pt x="872" y="855" on="0"/>
        <pt x="872" y="883" on="1"/>
        <pt x="872" y="1015" on="0"/>
        <pt x="710" y="1015" on="1"/>
        <pt x="533" y="1015" on="0"/>
        <pt x="288" y="989" on="1"/>
        <pt x="204" y="980" on="1"/>
        <pt x="267" y="1277" on="1"/>
        <pt x="513" y="1315" on="0"/>
        <pt x="1107" y="1315" on="0"/>
      </contour>
      <contour>
        <pt x="623" y="737" on="1"/>
        <pt x="653" y="760" on="0"/>
        <pt x="740" y="760" on="0"/>
        <pt x="776" y="719" on="0"/>
        <pt x="776" y="701" on="1"/>
        <pt x="776" y="642" on="0"/>
        <pt x="735" y="610" on="1"/>
        <pt x="704" y="587" on="0"/>
        <pt x="616" y="587" on="0"/>
        <pt x="582" y="625" on="0"/>
        <pt x="582" y="643" on="1"/>
        <pt x="582" y="706" on="0"/>
      </contour>
      <contour>
        <pt x="-4" y="0" on="1"/>
        <pt x="157" y="755" on="1"/>
        <pt x="544" y="755" on="1"/>
        <pt x="383" y="0" on="1"/>
      </contour>
    </TTGlyph>
    <TTGlyph name="hungarumlaut" xMin="211" yMin="1241" xMax="1253" yMax="1569">
      <contour>
        <pt x="211" y="1241" on="1"/>
        <pt x="211" y="1270" on="1"/>
        <pt x="256" y="1324" on="0"/>
        <pt x="390" y="1504" on="0"/>
        <pt x="428" y="1569" on="1"/>
        <pt x="799" y="1569" on="1"/>
        <pt x="799" y="1548" on="1"/>
        <pt x="756" y="1478" on="0"/>
        <pt x="414" y="1241" on="1"/>
      </contour>
      <contour>
        <pt x="1253" y="1569" on="1"/>
        <pt x="1253" y="1548" on="1"/>
        <pt x="1204" y="1467" on="0"/>
        <pt x="877" y="1241" on="1"/>
        <pt x="674" y="1241" on="1"/>
        <pt x="674" y="1270" on="1"/>
        <pt x="723" y="1337" on="1"/>
        <pt x="838" y="1491" on="0"/>
        <pt x="881" y="1569" on="1"/>
      </contour>
    </TTGlyph>
    <TTGlyph name="hyphen" xMin="23" yMin="393" xMax="639" yMax="705">
      <contour>
        <pt x="86" y="705" on="1"/>
        <pt x="639" y="705" on="1"/>
        <pt x="575" y="393" on="1"/>
        <pt x="23" y="393" on="1"/>
      </contour>
    </TTGlyph>
    <TTGlyph name="i" xMin="23" yMin="0" xMax="725" yMax="1591">
      <contour>
        <pt x="309" y="1382" on="1"/>
        <pt x="309" y="1484" on="0"/>
        <pt x="427" y="1591" on="0"/>
        <pt x="626" y="1591" on="0"/>
        <pt x="725" y="1518" on="0"/>
        <pt x="725" y="1450" on="1"/>
        <pt x="725" y="1350" on="0"/>
        <pt x="608" y="1241" on="0"/>
        <pt x="500" y="1241" on="1"/>
        <pt x="309" y="1241" on="0"/>
      </contour>
      <contour>
        <pt x="23" y="0" on="1"/>
        <pt x="262" y="1133" on="1"/>
        <pt x="651" y="1133" on="1"/>
        <pt x="410" y="0" on="1"/>
      </contour>
    </TTGlyph>
    <TTGlyph name="iacute" xMin="23" yMin="0" xMax="1015" yMax="1569">
      <contour>
        <pt x="294" y="1241" on="1"/>
        <pt x="294" y="1264" on="1"/>
        <pt x="416" y="1365" on="0"/>
        <pt x="576" y="1569" on="1"/>
        <pt x="1015" y="1569" on="1"/>
        <pt x="1015" y="1554" on="1"/>
        <pt x="971" y="1501" on="0"/>
        <pt x="679" y="1295" on="0"/>
        <pt x="578" y="1241" on="1"/>
      </contour>
      <contour>
        <pt x="262" y="1133" on="1"/>
        <pt x="651" y="1133" on="1"/>
        <pt x="410" y="0" on="1"/>
        <pt x="23" y="0" on="1"/>
      </contour>
    </TTGlyph>
    <TTGlyph name="icircumflex" xMin="-7" yMin="0" xMax="929" yMax="1569">
      <contour>
        <pt x="929" y="1241" on="1"/>
        <pt x="663" y="1241" on="1"/>
        <pt x="616" y="1282" on="0"/>
        <pt x="507" y="1415" on="1"/>
        <pt x="368" y="1306" on="0"/>
        <pt x="267" y="1241" on="1"/>
        <pt x="-7" y="1241" on="1"/>
        <pt x="-7" y="1264" on="1"/>
        <pt x="60" y="1325" on="0"/>
        <pt x="259" y="1522" on="0"/>
        <pt x="302" y="1569" on="1"/>
        <pt x="749" y="1569" on="1"/>
        <pt x="774" y="1510" on="0"/>
        <pt x="881" y="1327" on="0"/>
        <pt x="929" y="1264" on="1"/>
      </contour>
      <contour>
        <pt x="262" y="1133" on="1"/>
        <pt x="651" y="1133" on="1"/>
        <pt x="410" y="0" on="1"/>
        <pt x="23" y="0" on="1"/>
      </contour>
    </TTGlyph>
    <TTGlyph name="idieresis" xMin="23" yMin="0" xMax="947" yMax="1571">
      <contour>
        <pt x="91" y="1384" on="1"/>
        <pt x="91" y="1571" on="0"/>
        <pt x="292" y="1571" on="1"/>
        <pt x="462" y="1571" on="0"/>
        <pt x="462" y="1446" on="1"/>
        <pt x="462" y="1257" on="0"/>
        <pt x="261" y="1257" on="1"/>
        <pt x="173" y="1257" on="0"/>
        <pt x="91" y="1319" on="0"/>
      </contour>
      <contour>
        <pt x="578" y="1384" on="1"/>
        <pt x="578" y="1571" on="0"/>
        <pt x="779" y="1571" on="1"/>
        <pt x="947" y="1571" on="0"/>
        <pt x="947" y="1446" on="1"/>
        <pt x="947" y="1257" on="0"/>
        <pt x="748" y="1257" on="1"/>
        <pt x="660" y="1257" on="0"/>
        <pt x="578" y="1319" on="0"/>
      </contour>
      <contour>
        <pt x="262" y="1133" on="1"/>
        <pt x="651" y="1133" on="1"/>
        <pt x="410" y="0" on="1"/>
        <pt x="23" y="0" on="1"/>
      </contour>
    </TTGlyph>
    <TTGlyph name="igrave" xMin="23" yMin="0" xMax="657" yMax="1569">
      <contour>
        <pt x="657" y="1241" on="1"/>
        <pt x="421" y="1241" on="1"/>
        <pt x="343" y="1312" on="0"/>
        <pt x="198" y="1485" on="0"/>
        <pt x="167" y="1548" on="1"/>
        <pt x="167" y="1569" on="1"/>
        <pt x="563" y="1569" on="1"/>
        <pt x="591" y="1415" on="0"/>
        <pt x="657" y="1266" on="1"/>
      </contour>
      <contour>
        <pt x="23" y="0" on="1"/>
        <pt x="262" y="1133" on="1"/>
        <pt x="651" y="1133" on="1"/>
        <pt x="410" y="0" on="1"/>
      </contour>
    </TTGlyph>
    <TTGlyph name="integral" xMin="-29" yMin="-492" xMax="877" yMax="1556">
      <contour>
        <pt x="219" y="-68" on="1"/>
        <pt x="219" y="1167" on="1"/>
        <pt x="219" y="1358" on="0"/>
        <pt x="433" y="1556" on="0"/>
        <pt x="637" y="1556" on="1"/>
        <pt x="768" y="1556" on="0"/>
        <pt x="877" y="1501" on="1"/>
        <pt x="877" y="1184" on="1"/>
        <pt x="751" y="1233" on="0"/>
        <pt x="657" y="1233" on="0"/>
        <pt x="616" y="1185" on="0"/>
        <pt x="616" y="1130" on="1"/>
        <pt x="616" y="-102" on="1"/>
        <pt x="616" y="-293" on="0"/>
        <pt x="407" y="-492" on="0"/>
        <pt x="205" y="-492" on="1"/>
        <pt x="78" y="-492" on="0"/>
        <pt x="-29" y="-436" on="1"/>
        <pt x="-29" y="-119" on="1"/>
        <pt x="79" y="-168" on="0"/>
        <pt x="180" y="-168" on="0"/>
        <pt x="219" y="-119" on="0"/>
      </contour>
    </TTGlyph>
    <TTGlyph name="j" xMin="-264" yMin="-492" xMax="733" yMax="1591">
      <contour>
        <pt x="317" y="1382" on="1"/>
        <pt x="317" y="1484" on="0"/>
        <pt x="435" y="1591" on="0"/>
        <pt x="634" y="1591" on="0"/>
        <pt x="733" y="1518" on="0"/>
        <pt x="733" y="1450" on="1"/>
        <pt x="733" y="1353" on="0"/>
        <pt x="619" y="1241" on="0"/>
        <pt x="508" y="1241" on="1"/>
        <pt x="317" y="1241" on="0"/>
      </contour>
      <contour>
        <pt x="-57" y="-492" on="1"/>
        <pt x="-166" y="-492" on="0"/>
        <pt x="-264" y="-465" on="1"/>
        <pt x="-264" y="-162" on="1"/>
        <pt x="-208" y="-180" on="0"/>
        <pt x="-152" y="-180" on="1"/>
        <pt x="-10" y="-180" on="0"/>
        <pt x="23" y="-33" on="1"/>
        <pt x="270" y="1133" on="1"/>
        <pt x="657" y="1133" on="1"/>
        <pt x="397" y="-94" on="1"/>
        <pt x="357" y="-287" on="0"/>
        <pt x="123" y="-492" on="0"/>
      </contour>
    </TTGlyph>
    <TTGlyph name="k" xMin="23" yMin="0" xMax="1374" yMax="1556">
      <contour>
        <pt x="735" y="1556" on="1"/>
        <pt x="596" y="893" on="1"/>
        <pt x="580" y="818" on="0"/>
        <pt x="528" y="670" on="1"/>
        <pt x="537" y="670" on="1"/>
        <pt x="619" y="794" on="0"/>
        <pt x="690" y="870" on="1"/>
        <pt x="932" y="1133" on="1"/>
        <pt x="1374" y="1133" on="1"/>
        <pt x="883" y="621" on="1"/>
        <pt x="1157" y="0" on="1"/>
        <pt x="719" y="0" on="1"/>
        <pt x="580" y="391" on="1"/>
        <pt x="479" y="338" on="1"/>
        <pt x="410" y="0" on="1"/>
        <pt x="23" y="0" on="1"/>
        <pt x="348" y="1556" on="1"/>
      </contour>
    </TTGlyph>
    <TTGlyph name="kafdageshhb" xMin="-70" yMin="-20" xMax="1059" yMax="1315">
      <contour>
        <pt x="616" y="1315" on="1"/>
        <pt x="826" y="1315" on="0"/>
        <pt x="1033" y="1142" on="0"/>
        <pt x="1052" y="1012" on="1"/>
        <pt x="1059" y="963" on="0"/>
        <pt x="1059" y="929" on="1"/>
        <pt x="1059" y="831" on="0"/>
        <pt x="1038" y="729" on="1"/>
        <pt x="1003" y="565" on="1"/>
        <pt x="983" y="469" on="0"/>
        <pt x="925" y="312" on="0"/>
        <pt x="819" y="154" on="0"/>
        <pt x="678" y="47" on="0"/>
        <pt x="465" y="-20" on="0"/>
        <pt x="332" y="-20" on="1"/>
        <pt x="69" y="-20" on="0"/>
        <pt x="-70" y="7" on="1"/>
        <pt x="-6" y="310" on="1"/>
        <pt x="146" y="292" on="0"/>
        <pt x="361" y="292" on="1"/>
        <pt x="469" y="292" on="0"/>
        <pt x="588" y="437" on="0"/>
        <pt x="615" y="565" on="1"/>
        <pt x="651" y="731" on="1"/>
        <pt x="667" y="805" on="0"/>
        <pt x="667" y="871" on="0"/>
        <pt x="656" y="935" on="0"/>
        <pt x="615" y="982" on="0"/>
        <pt x="531" y="1013" on="0"/>
        <pt x="467" y="1013" on="1"/>
        <pt x="338" y="1013" on="0"/>
        <pt x="190" y="1000" on="1"/>
        <pt x="140" y="995" on="1"/>
        <pt x="204" y="1299" on="1"/>
        <pt x="378" y="1315" on="0"/>
      </contour>
      <contour>
        <pt x="302" y="737" on="1"/>
        <pt x="332" y="760" on="0"/>
        <pt x="419" y="760" on="0"/>
        <pt x="455" y="719" on="0"/>
        <pt x="455" y="701" on="1"/>
        <pt x="455" y="642" on="0"/>
        <pt x="414" y="610" on="1"/>
        <pt x="383" y="587" on="0"/>
        <pt x="295" y="587" on="0"/>
        <pt x="261" y="625" on="0"/>
        <pt x="261" y="643" on="1"/>
        <pt x="261" y="706" on="0"/>
      </contour>
    </TTGlyph>
    <TTGlyph name="l" xMin="23" yMin="0" xMax="739" yMax="1556">
      <contour>
        <pt x="23" y="0" on="1"/>
        <pt x="352" y="1556" on="1"/>
        <pt x="739" y="1556" on="1"/>
        <pt x="410" y="0" on="1"/>
      </contour>
    </TTGlyph>
    <TTGlyph name="lameddageshhb" xMin="129" yMin="0" xMax="1232" yMax="1551">
      <contour>
        <pt x="1232" y="1295" on="1"/>
        <pt x="1182" y="1058" on="1"/>
        <pt x="889" y="481" on="1"/>
        <pt x="891" y="482" on="1"/>
        <pt x="679" y="0" on="1"/>
        <pt x="297" y="0" on="1"/>
        <pt x="515" y="495" on="1"/>
        <pt x="771" y="996" on="1"/>
        <pt x="129" y="996" on="1"/>
        <pt x="247" y="1551" on="1"/>
        <pt x="635" y="1551" on="1"/>
        <pt x="580" y="1295" on="1"/>
      </contour>
      <contour>
        <pt x="261" y="737" on="1"/>
        <pt x="291" y="760" on="0"/>
        <pt x="378" y="760" on="0"/>
        <pt x="414" y="719" on="0"/>
        <pt x="414" y="701" on="1"/>
        <pt x="414" y="642" on="0"/>
        <pt x="373" y="610" on="1"/>
        <pt x="342" y="587" on="0"/>
        <pt x="254" y="587" on="0"/>
        <pt x="220" y="625" on="0"/>
        <pt x="220" y="643" on="1"/>
        <pt x="220" y="706" on="0"/>
      </contour>
    </TTGlyph>
    <TTGlyph name="less" xMin="88" yMin="176" xMax="1061" yMax="1307">
      <contour>
        <pt x="88" y="627" on="1"/>
        <pt x="88" y="799" on="1"/>
        <pt x="1061" y="1307" on="1"/>
        <pt x="1061" y="1008" on="1"/>
        <pt x="485" y="725" on="1"/>
        <pt x="1061" y="473" on="1"/>
        <pt x="1061" y="176" on="1"/>
      </contour>
    </TTGlyph>
    <TTGlyph name="lessequal" xMin="82" yMin="0" xMax="1061" yMax="1413">
      <contour>
        <pt x="86" y="733" on="1"/>
        <pt x="86" y="905" on="1"/>
        <pt x="1061" y="1413" on="1"/>
        <pt x="1061" y="1114" on="1"/>
        <pt x="485" y="831" on="1"/>
        <pt x="1061" y="582" on="1"/>
        <pt x="1061" y="285" on="1"/>
      </contour>
      <contour>
        <pt x="82" y="270" on="1"/>
        <pt x="1057" y="270" on="1"/>
        <pt x="1057" y="0" on="1"/>
        <pt x="82" y="0" on="1"/>
      </contour>
    </TTGlyph>
    <TTGlyph name="logicalnot" xMin="82" yMin="238" xMax="1057" yMax="858">
      <contour>
        <pt x="1057" y="238" on="1"/>
        <pt x="786" y="238" on="1"/>
        <pt x="786" y="586" on="1"/>
        <pt x="82" y="586" on="1"/>
        <pt x="82" y="858" on="1"/>
        <pt x="1057" y="858" on="1"/>
      </contour>
    </TTGlyph>
    <TTGlyph name="m" xMin="23" yMin="0" xMax="1800" yMax="1153">
      <contour>
        <pt x="791" y="752" on="1"/>
        <pt x="791" y="846" on="0"/>
        <pt x="719" y="846" on="1"/>
        <pt x="652" y="846" on="0"/>
        <pt x="561" y="701" on="0"/>
        <pt x="528" y="551" on="1"/>
        <pt x="410" y="0" on="1"/>
        <pt x="23" y="0" on="1"/>
        <pt x="262" y="1133" on="1"/>
        <pt x="571" y="1133" on="1"/>
        <pt x="555" y="946" on="1"/>
        <pt x="563" y="946" on="1"/>
        <pt x="625" y="1060" on="0"/>
        <pt x="777" y="1153" on="0"/>
        <pt x="1005" y="1153" on="0"/>
        <pt x="1134" y="1049" on="0"/>
        <pt x="1161" y="946" on="1"/>
        <pt x="1169" y="946" on="1"/>
        <pt x="1234" y="1052" on="0"/>
        <pt x="1402" y="1153" on="0"/>
        <pt x="1513" y="1153" on="1"/>
        <pt x="1654" y="1153" on="0"/>
        <pt x="1800" y="984" on="0"/>
        <pt x="1800" y="819" on="1"/>
        <pt x="1800" y="720" on="0"/>
        <pt x="1778" y="614" on="1"/>
        <pt x="1653" y="0" on="1"/>
        <pt x="1266" y="0" on="1"/>
        <pt x="1395" y="631" on="1"/>
        <pt x="1409" y="689" on="0"/>
        <pt x="1409" y="764" on="1"/>
        <pt x="1409" y="803" on="0"/>
        <pt x="1372" y="846" on="0"/>
        <pt x="1339" y="846" on="1"/>
        <pt x="1267" y="846" on="0"/>
        <pt x="1175" y="698" on="0"/>
        <pt x="1143" y="543" on="1"/>
        <pt x="1032" y="0" on="1"/>
        <pt x="645" y="0" on="1"/>
        <pt x="776" y="631" on="1"/>
        <pt x="791" y="721" on="0"/>
      </contour>
    </TTGlyph>
    <TTGlyph name="memdageshhb" xMin="-54" yMin="0" xMax="1342" yMax="1315">
      <contour>
        <pt x="581" y="1295" on="1"/>
        <pt x="603" y="1236" on="0"/>
        <pt x="597" y="1163" on="1"/>
        <pt x="611" y="1163" on="1"/>
        <pt x="724" y="1260" on="0"/>
        <pt x="876" y="1298" on="1"/>
        <pt x="941" y="1315" on="0"/>
        <pt x="1106" y="1315" on="0"/>
        <pt x="1245" y="1256" on="0"/>
        <pt x="1282" y="1206" on="1"/>
        <pt x="1342" y="1125" on="0"/>
        <pt x="1342" y="974" on="1"/>
        <pt x="1342" y="875" on="0"/>
        <pt x="1310" y="729" on="1"/>
        <pt x="1155" y="0" on="1"/>
        <pt x="529" y="0" on="1"/>
        <pt x="593" y="299" on="1"/>
        <pt x="824" y="299" on="1"/>
        <pt x="915" y="729" on="1"/>
        <pt x="945" y="874" on="0"/>
        <pt x="932" y="924" on="1"/>
        <pt x="917" y="982" on="0"/>
        <pt x="875" y="998" on="1"/>
        <pt x="850" y="1007" on="0"/>
        <pt x="758" y="1007" on="0"/>
        <pt x="646" y="940" on="0"/>
        <pt x="618" y="907" on="1"/>
        <pt x="589" y="874" on="1"/>
        <pt x="328" y="0" on="1"/>
        <pt x="-54" y="0" on="1"/>
        <pt x="195" y="818" on="1"/>
        <pt x="252" y="991" on="0"/>
        <pt x="252" y="1151" on="1"/>
        <pt x="252" y="1222" on="0"/>
        <pt x="241" y="1295" on="1"/>
      </contour>
      <contour>
        <pt x="661" y="737" on="1"/>
        <pt x="691" y="760" on="0"/>
        <pt x="778" y="760" on="0"/>
        <pt x="814" y="719" on="0"/>
        <pt x="814" y="701" on="1"/>
        <pt x="814" y="642" on="0"/>
        <pt x="773" y="610" on="1"/>
        <pt x="742" y="587" on="0"/>
        <pt x="654" y="587" on="0"/>
        <pt x="620" y="625" on="0"/>
        <pt x="620" y="643" on="1"/>
        <pt x="620" y="706" on="0"/>
      </contour>
    </TTGlyph>
    <TTGlyph name="n" xMin="23" yMin="0" xMax="1178" yMax="1153">
      <contour>
        <pt x="768" y="618" on="1"/>
        <pt x="786" y="696" on="0"/>
        <pt x="786" y="801" on="0"/>
        <pt x="743" y="846" on="0"/>
        <pt x="711" y="846" on="1"/>
        <pt x="652" y="846" on="0"/>
        <pt x="556" y="700" on="0"/>
        <pt x="526" y="553" on="1"/>
        <pt x="410" y="0" on="1"/>
        <pt x="23" y="0" on="1"/>
        <pt x="262" y="1133" on="1"/>
        <pt x="571" y="1133" on="1"/>
        <pt x="559" y="975" on="1"/>
        <pt x="567" y="975" on="1"/>
        <pt x="621" y="1069" on="0"/>
        <pt x="770" y="1153" on="0"/>
        <pt x="879" y="1153" on="1"/>
        <pt x="1020" y="1153" on="0"/>
        <pt x="1178" y="982" on="0"/>
        <pt x="1178" y="831" on="1"/>
        <pt x="1178" y="723" on="0"/>
        <pt x="1153" y="602" on="1"/>
        <pt x="1026" y="0" on="1"/>
        <pt x="639" y="0" on="1"/>
      </contour>
    </TTGlyph>
    <TTGlyph name="nine" xMin="106" yMin="-20" xMax="1137" yMax="1483">
      <contour>
        <pt x="436" y="481" on="1"/>
        <pt x="286" y="481" on="0"/>
        <pt x="109" y="700" on="0"/>
        <pt x="109" y="887" on="1"/>
        <pt x="109" y="890" on="0"/>
        <pt x="109" y="894" on="1"/>
        <pt x="109" y="1155" on="0"/>
        <pt x="405" y="1483" on="0"/>
        <pt x="656" y="1483" on="1"/>
        <pt x="659" y="1483" on="0"/>
        <pt x="662" y="1483" on="1"/>
        <pt x="892" y="1483" on="0"/>
        <pt x="1137" y="1208" on="0"/>
        <pt x="1137" y="952" on="1"/>
        <pt x="1137" y="657" on="0"/>
        <pt x="932" y="208" on="0"/>
        <pt x="568" y="-20" on="0"/>
        <pt x="317" y="-20" on="1"/>
        <pt x="202" y="-20" on="0"/>
        <pt x="106" y="10" on="1"/>
        <pt x="106" y="324" on="1"/>
        <pt x="196" y="287" on="0"/>
        <pt x="309" y="287" on="1"/>
        <pt x="496" y="287" on="0"/>
        <pt x="704" y="460" on="0"/>
        <pt x="745" y="655" on="1"/>
        <pt x="737" y="655" on="1"/>
        <pt x="679" y="562" on="0"/>
        <pt x="534" y="481" on="0"/>
      </contour>
      <contour>
        <pt x="672" y="1176" on="1"/>
        <pt x="600" y="1176" on="0"/>
        <pt x="550" y="1105" on="1"/>
        <pt x="502" y="1034" on="0"/>
        <pt x="502" y="932" on="1"/>
        <pt x="502" y="788" on="0"/>
        <pt x="594" y="788" on="1"/>
        <pt x="668" y="788" on="0"/>
        <pt x="770" y="928" on="0"/>
        <pt x="770" y="1030" on="1"/>
        <pt x="770" y="1095" on="0"/>
        <pt x="715" y="1176" on="0"/>
      </contour>
    </TTGlyph>
    <TTGlyph name="notequal" xMin="72" yMin="129" xMax="1087" yMax="1319">
      <contour>
        <pt x="72" y="358" on="1"/>
        <pt x="72" y="629" on="1"/>
        <pt x="387" y="629" on="1"/>
        <pt x="473" y="815" on="1"/>
        <pt x="72" y="815" on="1"/>
        <pt x="72" y="1083" on="1"/>
        <pt x="598" y="1083" on="1"/>
        <pt x="707" y="1319" on="1"/>
        <pt x="954" y="1214" on="1"/>
        <pt x="891" y="1083" on="1"/>
        <pt x="1087" y="1083" on="1"/>
        <pt x="1087" y="815" on="1"/>
        <pt x="768" y="815" on="1"/>
        <pt x="682" y="629" on="1"/>
        <pt x="1087" y="629" on="1"/>
        <pt x="1087" y="358" on="1"/>
        <pt x="557" y="358" on="1"/>
        <pt x="451" y="129" on="1"/>
        <pt x="203" y="231" on="1"/>
        <pt x="262" y="358" on="1"/>
      </contour>
    </TTGlyph>
    <TTGlyph name="ntilde" xMin="23" yMin="0" xMax="1224" yMax="1581">
      <contour>
        <pt x="896" y="1239" on="1"/>
        <pt x="830" y="1239" on="0"/>
        <pt x="731" y="1292" on="1"/>
        <pt x="658" y="1337" on="0"/>
        <pt x="604" y="1337" on="1"/>
        <pt x="572" y="1337" on="0"/>
        <pt x="513" y="1281" on="0"/>
        <pt x="507" y="1237" on="1"/>
        <pt x="319" y="1237" on="1"/>
        <pt x="351" y="1410" on="0"/>
        <pt x="505" y="1579" on="0"/>
        <pt x="632" y="1579" on="1"/>
        <pt x="667" y="1579" on="0"/>
        <pt x="717" y="1566" on="0"/>
        <pt x="786" y="1530" on="1"/>
        <pt x="873" y="1481" on="0"/>
        <pt x="919" y="1481" on="1"/>
        <pt x="997" y="1481" on="0"/>
        <pt x="1034" y="1581" on="1"/>
        <pt x="1224" y="1581" on="1"/>
        <pt x="1190" y="1408" on="0"/>
        <pt x="1032" y="1239" on="0"/>
        <pt x="903" y="1239" on="1"/>
        <pt x="900" y="1239" on="0"/>
      </contour>
      <contour>
        <pt x="768" y="618" on="1"/>
        <pt x="786" y="696" on="0"/>
        <pt x="786" y="801" on="0"/>
        <pt x="743" y="846" on="0"/>
        <pt x="711" y="846" on="1"/>
        <pt x="652" y="846" on="0"/>
        <pt x="556" y="700" on="0"/>
        <pt x="526" y="553" on="1"/>
        <pt x="410" y="0" on="1"/>
        <pt x="23" y="0" on="1"/>
        <pt x="262" y="1133" on="1"/>
        <pt x="571" y="1133" on="1"/>
        <pt x="559" y="975" on="1"/>
        <pt x="567" y="975" on="1"/>
        <pt x="621" y="1069" on="0"/>
        <pt x="770" y="1153" on="0"/>
        <pt x="879" y="1153" on="1"/>
        <pt x="1020" y="1153" on="0"/>
        <pt x="1178" y="982" on="0"/>
        <pt x="1178" y="831" on="1"/>
        <pt x="1178" y="723" on="0"/>
        <pt x="1153" y="602" on="1"/>
        <pt x="1026" y="0" on="1"/>
        <pt x="639" y="0" on="1"/>
      </contour>
    </TTGlyph>
    <TTGlyph name="numbersign" xMin="14" yMin="0" xMax="1358" yMax="1462">
      <contour>
        <pt x="1010" y="631" on="1"/>
        <pt x="1253" y="631" on="1"/>
        <pt x="1233" y="393" on="1"/>
        <pt x="940" y="393" on="1"/>
        <pt x="829" y="0" on="1"/>
        <pt x="559" y="0" on="1"/>
        <pt x="672" y="393" on="1"/>
        <pt x="504" y="393" on="1"/>
        <pt x="391" y="0" on="1"/>
        <pt x="121" y="0" on="1"/>
        <pt x="233" y="393" on="1"/>
        <pt x="14" y="393" on="1"/>
        <pt x="35" y="631" on="1"/>
        <pt x="301" y="631" on="1"/>
        <pt x="358" y="831" on="1"/>
        <pt x="123" y="831" on="1"/>
        <pt x="143" y="1073" on="1"/>
        <pt x="428" y="1073" on="1"/>
        <pt x="539" y="1462" on="1"/>
        <pt x="809" y="1462" on="1"/>
        <pt x="698" y="1073" on="1"/>
        <pt x="866" y="1073" on="1"/>
        <pt x="977" y="1462" on="1"/>
        <pt x="1247" y="1462" on="1"/>
        <pt x="1137" y="1073" on="1"/>
        <pt x="1358" y="1073" on="1"/>
        <pt x="1337" y="831" on="1"/>
        <pt x="1067" y="831" on="1"/>
      </contour>
      <contour>
        <pt x="739" y="631" on="1"/>
        <pt x="797" y="831" on="1"/>
        <pt x="629" y="831" on="1"/>
        <pt x="571" y="631" on="1"/>
      </contour>
    </TTGlyph>
    <TTGlyph name="nundageshhb" xMin="-68" yMin="0" xMax="841" yMax="1315">
      <contour>
        <pt x="265" y="1299" on="1"/>
        <pt x="349" y="1315" on="0"/>
        <pt x="595" y="1315" on="0"/>
        <pt x="735" y="1269" on="0"/>
        <pt x="773" y="1230" on="1"/>
        <pt x="841" y="1161" on="0"/>
        <pt x="841" y="1031" on="1"/>
        <pt x="841" y="967" on="0"/>
        <pt x="823" y="883" on="1"/>
        <pt x="721" y="405" on="1"/>
        <pt x="701" y="311" on="0"/>
        <pt x="636" y="108" on="0"/>
        <pt x="613" y="54" on="1"/>
        <pt x="590" y="0" on="1"/>
        <pt x="-68" y="0" on="1"/>
        <pt x="-4" y="299" on="1"/>
        <pt x="299" y="299" on="1"/>
        <pt x="321" y="348" on="0"/>
        <pt x="333" y="405" on="1"/>
        <pt x="435" y="883" on="1"/>
        <pt x="440" y="914" on="0"/>
        <pt x="438" y="969" on="0"/>
        <pt x="401" y="1008" on="0"/>
        <pt x="369" y="1008" on="1"/>
        <pt x="301" y="1008" on="0"/>
        <pt x="228" y="998" on="1"/>
        <pt x="201" y="995" on="1"/>
      </contour>
      <contour>
        <pt x="146" y="737" on="1"/>
        <pt x="176" y="760" on="0"/>
        <pt x="263" y="760" on="0"/>
        <pt x="299" y="719" on="0"/>
        <pt x="299" y="701" on="1"/>
        <pt x="299" y="642" on="0"/>
        <pt x="258" y="610" on="1"/>
        <pt x="227" y="587" on="0"/>
        <pt x="139" y="587" on="0"/>
        <pt x="105" y="625" on="0"/>
        <pt x="105" y="643" on="1"/>
        <pt x="105" y="706" on="0"/>
      </contour>
    </TTGlyph>
    <TTGlyph name="o" xMin="84" yMin="-20" xMax="1159" yMax="1153">
      <contour>
        <pt x="1000" y="167" on="0"/>
        <pt x="710" y="-20" on="0"/>
        <pt x="311" y="-20" on="0"/>
        <pt x="84" y="206" on="0"/>
        <pt x="84" y="627" on="0"/>
        <pt x="244" y="967" on="0"/>
        <pt x="532" y="1153" on="0"/>
        <pt x="932" y="1153" on="0"/>
        <pt x="1159" y="927" on="0"/>
        <pt x="1159" y="508" on="0"/>
      </contour>
      <contour>
        <pt x="678" y="862" on="1"/>
        <pt x="596" y="862" on="0"/>
        <pt x="479" y="584" on="0"/>
        <pt x="479" y="403" on="1"/>
        <pt x="479" y="270" on="0"/>
        <pt x="563" y="270" on="1"/>
        <pt x="644" y="270" on="0"/>
        <pt x="764" y="548" on="0"/>
        <pt x="764" y="729" on="1"/>
        <pt x="764" y="794" on="0"/>
        <pt x="718" y="862" on="0"/>
      </contour>
    </TTGlyph>
    <TTGlyph name="oacute" xMin="84" yMin="-20" xMax="1254" yMax="1569">
      <contour>
        <pt x="533" y="1241" on="1"/>
        <pt x="533" y="1264" on="1"/>
        <pt x="655" y="1365" on="0"/>
        <pt x="815" y="1569" on="1"/>
        <pt x="1254" y="1569" on="1"/>
        <pt x="1254" y="1554" on="1"/>
        <pt x="1210" y="1501" on="0"/>
        <pt x="918" y="1295" on="0"/>
        <pt x="817" y="1241" on="1"/>
      </contour>
      <contour>
        <pt x="1000" y="167" on="0"/>
        <pt x="710" y="-20" on="0"/>
        <pt x="311" y="-20" on="0"/>
        <pt x="84" y="206" on="0"/>
        <pt x="84" y="627" on="0"/>
        <pt x="244" y="967" on="0"/>
        <pt x="532" y="1153" on="0"/>
        <pt x="932" y="1153" on="0"/>
        <pt x="1159" y="927" on="0"/>
        <pt x="1159" y="508" on="0"/>
      </contour>
      <contour>
        <pt x="678" y="862" on="1"/>
        <pt x="596" y="862" on="0"/>
        <pt x="479" y="584" on="0"/>
        <pt x="479" y="403" on="1"/>
        <pt x="479" y="270" on="0"/>
        <pt x="563" y="270" on="1"/>
        <pt x="644" y="270" on="0"/>
        <pt x="764" y="548" on="0"/>
        <pt x="764" y="729" on="1"/>
        <pt x="764" y="794" on="0"/>
        <pt x="718" y="862" on="0"/>
      </contour>
    </TTGlyph>
    <TTGlyph name="ocircumflex" xMin="84" yMin="-20" xMax="1183" yMax="1569">
      <contour>
        <pt x="1183" y="1241" on="1"/>
        <pt x="917" y="1241" on="1"/>
        <pt x="870" y="1282" on="0"/>
        <pt x="761" y="1415" on="1"/>
        <pt x="622" y="1306" on="0"/>
        <pt x="521" y="1241" on="1"/>
        <pt x="247" y="1241" on="1"/>
        <pt x="247" y="1264" on="1"/>
        <pt x="314" y="1325" on="0"/>
        <pt x="513" y="1522" on="0"/>
        <pt x="556" y="1569" on="1"/>
        <pt x="1003" y="1569" on="1"/>
        <pt x="1028" y="1510" on="0"/>
        <pt x="1135" y="1327" on="0"/>
        <pt x="1183" y="1264" on="1"/>
      </contour>
      <contour>
        <pt x="1000" y="167" on="0"/>
        <pt x="710" y="-20" on="0"/>
        <pt x="311" y="-20" on="0"/>
        <pt x="84" y="206" on="0"/>
        <pt x="84" y="627" on="0"/>
        <pt x="244" y="967" on="0"/>
        <pt x="532" y="1153" on="0"/>
        <pt x="932" y="1153" on="0"/>
        <pt x="1159" y="927" on="0"/>
        <pt x="1159" y="508" on="0"/>
      </contour>
      <contour>
        <pt x="678" y="862" on="1"/>
        <pt x="596" y="862" on="0"/>
        <pt x="479" y="584" on="0"/>
        <pt x="479" y="403" on="1"/>
        <pt x="479" y="270" on="0"/>
        <pt x="563" y="270" on="1"/>
        <pt x="644" y="270" on="0"/>
        <pt x="764" y="548" on="0"/>
        <pt x="764" y="729" on="1"/>
        <pt x="764" y="794" on="0"/>
        <pt x="718" y="862" on="0"/>
      </contour>
    </TTGlyph>
    <TTGlyph name="odieresis" xMin="84" yMin="-20" xMax="1173" yMax="1571">
      <contour>
        <pt x="317" y="1384" on="1"/>
        <pt x="317" y="1571" on="0"/>
        <pt x="518" y="1571" on="1"/>
        <pt x="688" y="1571" on="0"/>
        <pt x="688" y="1446" on="1"/>
        <pt x="688" y="1257" on="0"/>
        <pt x="487" y="1257" on="1"/>
        <pt x="399" y="1257" on="0"/>
        <pt x="317" y="1319" on="0"/>
      </contour>
      <contour>
        <pt x="804" y="1384" on="1"/>
        <pt x="804" y="1571" on="0"/>
        <pt x="1005" y="1571" on="1"/>
        <pt x="1173" y="1571" on="0"/>
        <pt x="1173" y="1446" on="1"/>
        <pt x="1173" y="1257" on="0"/>
        <pt x="974" y="1257" on="1"/>
        <pt x="886" y="1257" on="0"/>
        <pt x="804" y="1319" on="0"/>
      </contour>
      <contour>
        <pt x="1000" y="167" on="0"/>
        <pt x="710" y="-20" on="0"/>
        <pt x="311" y="-20" on="0"/>
        <pt x="84" y="206" on="0"/>
        <pt x="84" y="627" on="0"/>
        <pt x="244" y="967" on="0"/>
        <pt x="532" y="1153" on="0"/>
        <pt x="932" y="1153" on="0"/>
        <pt x="1159" y="927" on="0"/>
        <pt x="1159" y="508" on="0"/>
      </contour>
      <contour>
        <pt x="678" y="862" on="1"/>
        <pt x="596" y="862" on="0"/>
        <pt x="479" y="584" on="0"/>
        <pt x="479" y="403" on="1"/>
        <pt x="479" y="270" on="0"/>
        <pt x="563" y="270" on="1"/>
        <pt x="644" y="270" on="0"/>
        <pt x="764" y="548" on="0"/>
        <pt x="764" y="729" on="1"/>
        <pt x="764" y="794" on="0"/>
        <pt x="718" y="862" on="0"/>
      </contour>
    </TTGlyph>
    <TTGlyph name="oe" xMin="84" yMin="-20" xMax="1757" yMax="1153">
      <contour>
        <pt x="1149" y="-20" on="1"/>
        <pt x="945" y="-20" on="0"/>
        <pt x="854" y="92" on="1"/>
        <pt x="730" y="-20" on="0"/>
        <pt x="311" y="-20" on="0"/>
        <pt x="84" y="206" on="0"/>
        <pt x="84" y="626" on="0"/>
        <pt x="242" y="968" on="0"/>
        <pt x="520" y="1153" on="0"/>
        <pt x="887" y="1153" on="0"/>
        <pt x="977" y="1028" on="1"/>
        <pt x="1122" y="1153" on="0"/>
        <pt x="1350" y="1153" on="1"/>
        <pt x="1537" y="1153" on="0"/>
        <pt x="1757" y="981" on="0"/>
        <pt x="1757" y="838" on="1"/>
        <pt x="1757" y="635" on="0"/>
        <pt x="1444" y="422" on="0"/>
        <pt x="1149" y="422" on="1"/>
        <pt x="1090" y="422" on="1"/>
        <pt x="1090" y="406" on="1"/>
        <pt x="1090" y="258" on="0"/>
        <pt x="1253" y="258" on="1"/>
        <pt x="1331" y="258" on="0"/>
        <pt x="1483" y="304" on="0"/>
        <pt x="1581" y="356" on="1"/>
        <pt x="1581" y="82" on="1"/>
        <pt x="1470" y="25" on="0"/>
        <pt x="1276" y="-20" on="0"/>
      </contour>
      <contour>
        <pt x="1157" y="664" on="1"/>
        <pt x="1266" y="664" on="0"/>
        <pt x="1391" y="745" on="0"/>
        <pt x="1391" y="815" on="1"/>
        <pt x="1391" y="849" on="0"/>
        <pt x="1348" y="891" on="0"/>
        <pt x="1307" y="891" on="1"/>
        <pt x="1247" y="891" on="0"/>
        <pt x="1142" y="756" on="0"/>
        <pt x="1128" y="664" on="1"/>
      </contour>
      <contour>
        <pt x="678" y="862" on="1"/>
        <pt x="596" y="862" on="0"/>
        <pt x="479" y="584" on="0"/>
        <pt x="479" y="403" on="1"/>
        <pt x="479" y="270" on="0"/>
        <pt x="563" y="270" on="1"/>
        <pt x="644" y="270" on="0"/>
        <pt x="764" y="548" on="0"/>
        <pt x="764" y="729" on="1"/>
        <pt x="764" y="794" on="0"/>
        <pt x="718" y="862" on="0"/>
      </contour>
    </TTGlyph>
    <TTGlyph name="ogonek" xMin="-190" yMin="-524" xMax="279" yMax="0">
      <contour>
        <pt x="88" y="-246" on="1"/>
        <pt x="88" y="-267" on="0"/>
        <pt x="116" y="-297" on="0"/>
        <pt x="141" y="-297" on="1"/>
        <pt x="189" y="-297" on="0"/>
        <pt x="258" y="-272" on="1"/>
        <pt x="258" y="-494" on="1"/>
        <pt x="164" y="-524" on="0"/>
        <pt x="-54" y="-524" on="0"/>
        <pt x="-190" y="-404" on="0"/>
        <pt x="-190" y="-221" on="0"/>
        <pt x="-89" y="-75" on="0"/>
        <pt x="27" y="0" on="1"/>
        <pt x="279" y="0" on="1"/>
        <pt x="188" y="-74" on="0"/>
        <pt x="151" y="-113" on="1"/>
        <pt x="88" y="-184" on="0"/>
      </contour>
    </TTGlyph>
    <TTGlyph name="ograve" xMin="84" yMin="-20" xMax="1159" yMax="1569">
      <contour>
        <pt x="894" y="1241" on="1"/>
        <pt x="658" y="1241" on="1"/>
        <pt x="580" y="1312" on="0"/>
        <pt x="435" y="1485" on="0"/>
        <pt x="404" y="1548" on="1"/>
        <pt x="404" y="1569" on="1"/>
        <pt x="800" y="1569" on="1"/>
        <pt x="828" y="1415" on="0"/>
        <pt x="894" y="1266" on="1"/>
      </contour>
      <contour>
        <pt x="1000" y="167" on="0"/>
        <pt x="710" y="-20" on="0"/>
        <pt x="311" y="-20" on="0"/>
        <pt x="84" y="206" on="0"/>
        <pt x="84" y="627" on="0"/>
        <pt x="244" y="967" on="0"/>
        <pt x="532" y="1153" on="0"/>
        <pt x="932" y="1153" on="0"/>
        <pt x="1159" y="927" on="0"/>
        <pt x="1159" y="508" on="0"/>
      </contour>
      <contour>
        <pt x="678" y="862" on="1"/>
        <pt x="596" y="862" on="0"/>
        <pt x="479" y="584" on="0"/>
        <pt x="479" y="403" on="1"/>
        <pt x="479" y="270" on="0"/>
        <pt x="563" y="270" on="1"/>
        <pt x="644" y="270" on="0"/>
        <pt x="764" y="548" on="0"/>
        <pt x="764" y="729" on="1"/>
        <pt x="764" y="794" on="0"/>
        <pt x="718" y="862" on="0"/>
      </contour>
    </TTGlyph>
    <TTGlyph name="one" xMin="150" yMin="0" xMax="1081" yMax="1462">
      <contour>
        <pt x="385" y="0" on="1"/>
        <pt x="559" y="799" on="1"/>
        <pt x="588" y="933" on="0"/>
        <pt x="635" y="1055" on="1"/>
        <pt x="554" y="985" on="0"/>
        <pt x="504" y="952" on="1"/>
        <pt x="301" y="827" on="1"/>
        <pt x="150" y="1079" on="1"/>
        <pt x="770" y="1462" on="1"/>
        <pt x="1081" y="1462" on="1"/>
        <pt x="774" y="0" on="1"/>
      </contour>
    </TTGlyph>
    <TTGlyph name="ordfeminine" xMin="139" yMin="729" xMax="940" yMax="1475">
      <contour>
        <pt x="352" y="729" on="1"/>
        <pt x="259" y="729" on="0"/>
        <pt x="139" y="873" on="0"/>
        <pt x="139" y="1120" on="0"/>
        <pt x="184" y="1233" on="1"/>
        <pt x="230" y="1346" on="0"/>
        <pt x="386" y="1475" on="0"/>
        <pt x="483" y="1475" on="1"/>
        <pt x="546" y="1475" on="0"/>
        <pt x="641" y="1436" on="0"/>
        <pt x="696" y="1376" on="1"/>
        <pt x="705" y="1376" on="1"/>
        <pt x="741" y="1462" on="1"/>
        <pt x="940" y="1462" on="1"/>
        <pt x="770" y="741" on="1"/>
        <pt x="575" y="741" on="1"/>
        <pt x="584" y="827" on="1"/>
        <pt x="575" y="827" on="1"/>
        <pt x="486" y="729" on="0"/>
      </contour>
      <contour>
        <pt x="481" y="911" on="1"/>
        <pt x="546" y="911" on="0"/>
        <pt x="629" y="1072" on="0"/>
        <pt x="629" y="1178" on="1"/>
        <pt x="629" y="1231" on="0"/>
        <pt x="590" y="1292" on="0"/>
        <pt x="519" y="1292" on="0"/>
        <pt x="484" y="1251" on="1"/>
        <pt x="450" y="1209" on="0"/>
        <pt x="412" y="1078" on="0"/>
        <pt x="412" y="965" on="0"/>
        <pt x="450" y="911" on="0"/>
      </contour>
    </TTGlyph>
    <TTGlyph name="ordmasculine" xMin="139" yMin="727" xMax="874" yMax="1479">
      <contour>
        <pt x="874" y="1172" on="1"/>
        <pt x="874" y="977" on="0"/>
        <pt x="642" y="727" on="0"/>
        <pt x="448" y="727" on="1"/>
        <pt x="445" y="727" on="0"/>
        <pt x="442" y="727" on="1"/>
        <pt x="298" y="727" on="0"/>
        <pt x="218" y="802" on="1"/>
        <pt x="139" y="878" on="0"/>
        <pt x="139" y="1004" on="1"/>
        <pt x="139" y="1217" on="0"/>
        <pt x="255" y="1348" on="1"/>
        <pt x="372" y="1479" on="0"/>
        <pt x="573" y="1479" on="1"/>
        <pt x="716" y="1479" on="0"/>
        <pt x="874" y="1321" on="0"/>
        <pt x="874" y="1182" on="1"/>
        <pt x="874" y="1177" on="0"/>
      </contour>
      <contour>
        <pt x="602" y="1182" on="1"/>
        <pt x="602" y="1229" on="0"/>
        <pt x="578" y="1274" on="0"/>
        <pt x="547" y="1274" on="1"/>
        <pt x="486" y="1274" on="0"/>
        <pt x="412" y="1128" on="0"/>
        <pt x="412" y="1016" on="1"/>
        <pt x="412" y="932" on="0"/>
        <pt x="467" y="932" on="1"/>
        <pt x="527" y="932" on="0"/>
        <pt x="602" y="1073" on="0"/>
      </contour>
    </TTGlyph>
    <TTGlyph name="oslash" xMin="66" yMin="-111" xMax="1225" yMax="1217">
      <contour>
        <pt x="1202" y="717" on="1"/>
        <pt x="1202" y="508" on="0"/>
        <pt x="1040" y="169" on="0"/>
        <pt x="743" y="-20" on="0"/>
        <pt x="549" y="-20" on="1"/>
        <pt x="421" y="-20" on="0"/>
        <pt x="311" y="29" on="1"/>
        <pt x="193" y="-111" on="1"/>
        <pt x="66" y="-2" on="1"/>
        <pt x="178" y="129" on="1"/>
        <pt x="84" y="245" on="0"/>
        <pt x="84" y="416" on="1"/>
        <pt x="84" y="624" on="0"/>
        <pt x="247" y="965" on="0"/>
        <pt x="546" y="1153" on="0"/>
        <pt x="743" y="1153" on="1"/>
        <pt x="879" y="1153" on="0"/>
        <pt x="993" y="1096" on="1"/>
        <pt x="1098" y="1217" on="1"/>
        <pt x="1225" y="1108" on="1"/>
        <pt x="1120" y="985" on="1"/>
        <pt x="1202" y="872" on="0"/>
      </contour>
      <contour>
        <pt x="696" y="877" on="1"/>
        <pt x="599" y="877" on="0"/>
        <pt x="449" y="629" on="0"/>
        <pt x="449" y="451" on="1"/>
        <pt x="784" y="848" on="1"/>
        <pt x="749" y="877" on="0"/>
        <pt x="702" y="877" on="1"/>
        <pt x="699" y="877" on="0"/>
      </contour>
      <contour>
        <pt x="590" y="260" on="1"/>
        <pt x="698" y="260" on="0"/>
        <pt x="827" y="464" on="0"/>
        <pt x="836" y="649" on="1"/>
        <pt x="518" y="274" on="1"/>
        <pt x="548" y="260" on="0"/>
      </contour>
    </TTGlyph>
    <TTGlyph name="otilde" xMin="84" yMin="-20" xMax="1182" yMax="1581">
      <contour>
        <pt x="854" y="1239" on="1"/>
        <pt x="788" y="1239" on="0"/>
        <pt x="689" y="1292" on="1"/>
        <pt x="616" y="1337" on="0"/>
        <pt x="562" y="1337" on="1"/>
        <pt x="530" y="1337" on="0"/>
        <pt x="471" y="1281" on="0"/>
        <pt x="465" y="1237" on="1"/>
        <pt x="277" y="1237" on="1"/>
        <pt x="309" y="1410" on="0"/>
        <pt x="463" y="1579" on="0"/>
        <pt x="590" y="1579" on="1"/>
        <pt x="625" y="1579" on="0"/>
        <pt x="675" y="1566" on="0"/>
        <pt x="744" y="1530" on="1"/>
        <pt x="831" y="1481" on="0"/>
        <pt x="877" y="1481" on="1"/>
        <pt x="955" y="1481" on="0"/>
        <pt x="992" y="1581" on="1"/>
        <pt x="1182" y="1581" on="1"/>
        <pt x="1148" y="1408" on="0"/>
        <pt x="990" y="1239" on="0"/>
        <pt x="861" y="1239" on="1"/>
        <pt x="858" y="1239" on="0"/>
      </contour>
      <contour>
        <pt x="1000" y="167" on="0"/>
        <pt x="710" y="-20" on="0"/>
        <pt x="311" y="-20" on="0"/>
        <pt x="84" y="206" on="0"/>
        <pt x="84" y="627" on="0"/>
        <pt x="244" y="967" on="0"/>
        <pt x="532" y="1153" on="0"/>
        <pt x="932" y="1153" on="0"/>
        <pt x="1159" y="927" on="0"/>
        <pt x="1159" y="508" on="0"/>
      </contour>
      <contour>
        <pt x="678" y="862" on="1"/>
        <pt x="596" y="862" on="0"/>
        <pt x="479" y="584" on="0"/>
        <pt x="479" y="403" on="1"/>
        <pt x="479" y="270" on="0"/>
        <pt x="563" y="270" on="1"/>
        <pt x="644" y="270" on="0"/>
        <pt x="764" y="548" on="0"/>
        <pt x="764" y="729" on="1"/>
        <pt x="764" y="794" on="0"/>
        <pt x="718" y="862" on="0"/>
      </contour>
    </TTGlyph>
    <TTGlyph name="overscore" xMin="183" yMin="1554" xMax="1170" yMax="1800">
      <contour>
        <pt x="240" y="1800" on="1"/>
        <pt x="1170" y="1800" on="1"/>
        <pt x="1112" y="1554" on="1"/>
        <pt x="183" y="1554" on="1"/>
      </contour>
    </TTGlyph>
    <TTGlyph name="p" xMin="-82" yMin="-492" xMax="1159" yMax="1153">
      <contour>
        <pt x="567" y="1006" on="1"/>
        <pt x="663" y="1153" on="0"/>
        <pt x="982" y="1153" on="0"/>
        <pt x="1159" y="929" on="0"/>
        <pt x="1159" y="531" on="0"/>
        <pt x="1018" y="174" on="0"/>
        <pt x="788" y="-20" on="0"/>
        <pt x="508" y="-20" on="0"/>
        <pt x="420" y="125" on="1"/>
        <pt x="412" y="125" on="1"/>
        <pt x="400" y="-36" on="0"/>
        <pt x="356" y="-246" on="1"/>
        <pt x="305" y="-492" on="1"/>
        <pt x="-82" y="-492" on="1"/>
        <pt x="262" y="1133" on="1"/>
        <pt x="571" y="1133" on="1"/>
        <pt x="559" y="1006" on="1"/>
      </contour>
      <contour>
        <pt x="678" y="842" on="1"/>
        <pt x="628" y="842" on="0"/>
        <pt x="538" y="728" on="0"/>
        <pt x="485" y="532" on="0"/>
        <pt x="485" y="450" on="1"/>
        <pt x="485" y="291" on="0"/>
        <pt x="573" y="291" on="1"/>
        <pt x="622" y="291" on="0"/>
        <pt x="709" y="406" on="0"/>
        <pt x="764" y="595" on="0"/>
        <pt x="764" y="698" on="1"/>
        <pt x="764" y="842" on="0"/>
      </contour>
    </TTGlyph>
    <TTGlyph name="paragraph" xMin="102" yMin="-260" xMax="1186" yMax="1556">
      <contour>
        <pt x="995" y="-260" on="1"/>
        <pt x="995" y="1327" on="1"/>
        <pt x="838" y="1327" on="1"/>
        <pt x="838" y="-260" on="1"/>
        <pt x="647" y="-260" on="1"/>
        <pt x="647" y="559" on="1"/>
        <pt x="593" y="541" on="0"/>
        <pt x="522" y="541" on="1"/>
        <pt x="307" y="541" on="0"/>
        <pt x="102" y="789" on="0"/>
        <pt x="102" y="1301" on="0"/>
        <pt x="320" y="1556" on="0"/>
        <pt x="553" y="1556" on="1"/>
        <pt x="1186" y="1556" on="1"/>
        <pt x="1186" y="-260" on="1"/>
      </contour>
    </TTGlyph>
    <TTGlyph name="parenleft" xMin="68" yMin="-324" xMax="903" yMax="1503">
      <contour>
        <pt x="68" y="326" on="1"/>
        <pt x="68" y="658" on="0"/>
        <pt x="318" y="1235" on="0"/>
        <pt x="580" y="1503" on="1"/>
        <pt x="903" y="1503" on="1"/>
        <pt x="644" y="1223" on="0"/>
        <pt x="395" y="634" on="0"/>
        <pt x="395" y="309" on="1"/>
        <pt x="395" y="161" on="0"/>
        <pt x="461" y="-197" on="0"/>
        <pt x="512" y="-324" on="1"/>
        <pt x="219" y="-324" on="1"/>
        <pt x="153" y="-206" on="0"/>
        <pt x="68" y="154" on="0"/>
      </contour>
    </TTGlyph>
    <TTGlyph name="parenright" xMin="-133" yMin="-324" xMax="694" yMax="1503">
      <contour>
        <pt x="694" y="854" on="1"/>
        <pt x="694" y="512" on="0"/>
        <pt x="447" y="-62" on="0"/>
        <pt x="193" y="-324" on="1"/>
        <pt x="-133" y="-324" on="1"/>
        <pt x="122" y="-49" on="0"/>
        <pt x="367" y="541" on="0"/>
        <pt x="367" y="870" on="1"/>
        <pt x="367" y="1020" on="0"/>
        <pt x="303" y="1363" on="0"/>
        <pt x="248" y="1503" on="1"/>
        <pt x="543" y="1503" on="1"/>
        <pt x="614" y="1378" on="0"/>
        <pt x="694" y="1033" on="0"/>
      </contour>
    </TTGlyph>
</ttFont>
